Biryani-Bold.ufo
<glyph name="exclam" format="1">
  <advance width="284"/>
  <unicode hex="0021"/>
  <outline>
    <contour>
      <point x="216" y="230" type="line"/>
      <point x="238" y="758" type="line"/>
      <point x="46" y="758" type="line"/>
      <point x="68" y="230" type="line"/>
    </contour>
    <contour>
      <point x="234" y="0" type="line"/>
      <point x="234" y="171" type="line"/>
      <point x="50" y="171" type="line"/>
      <point x="50" y="0" type="line"/>
    </contour>
  </outline>
</glyph>
<glyph name="numbersign" format="1">
  <advance width="703"/>
  <unicode hex="0023"/>
  <outline>
    <contour>
      <point x="510" y="0" type="line"/>
      <point x="597" y="674" type="line"/>
      <point x="441" y="674" type="line"/>
      <point x="354" y="0" type="line"/>
    </contour>
    <contour>
      <point x="612" y="133" type="line"/>
      <point x="612" y="287" type="line"/>
      <point x="60" y="287" type="line"/>
      <point x="60" y="133" type="line"/>
    </contour>
    <contour>
      <point x="261" y="0" type="line"/>
      <point x="348" y="674" type="line"/>
      <point x="192" y="674" type="line"/>
      <point x="105" y="0" type="line"/>
    </contour>
    <contour>
      <point x="642" y="387" type="line"/>
      <point x="642" y="541" type="line"/>
      <point x="90" y="541" type="line"/>
      <point x="90" y="387" type="line"/>
    </contour>
  </outline>
</glyph>
<glyph name="dollar" format="1">
  <advance width="550"/>
  <unicode hex="0024"/>
  <outline>
    <contour>
      <point x="433" y="-17"/>
      <point x="534" y="62"/>
      <point x="534" y="200" type="curve" smooth="yes"/>
      <point x="534" y="302"/>
      <point x="486" y="362"/>
      <point x="368" y="395" type="curve" smooth="yes"/>
      <point x="252" y="428" type="line" smooth="yes"/>
      <point x="201" y="443"/>
      <point x="184" y="453"/>
      <point x="184" y="489" type="curve" smooth="yes"/>
      <point x="184" y="516"/>
      <point x="197" y="536"/>
      <point x="245" y="536" type="curve" smooth="yes"/>
      <point x="344" y="536"/>
      <point x="424" y="520"/>
      <point x="493" y="481" type="curve"/>
      <point x="493" y="636" type="line"/>
      <point x="426" y="671"/>
      <point x="362" y="687"/>
      <point x="265" y="687" type="curve" smooth="yes"/>
      <point x="108" y="687"/>
      <point x="14" y="615"/>
      <point x="14" y="473" type="curve" smooth="yes"/>
      <point x="14" y="349"/>
      <point x="85" y="296"/>
      <point x="191" y="265" type="curve" smooth="yes"/>
      <point x="310" y="230" type="line" smooth="yes"/>
      <point x="353" y="217"/>
      <point x="364" y="206"/>
      <point x="364" y="184" type="curve" smooth="yes"/>
      <point x="364" y="157"/>
      <point x="352" y="135"/>
      <point x="267" y="135" type="curve" smooth="yes"/>
      <point x="186" y="135"/>
      <point x="100" y="151"/>
      <point x="21" y="194" type="curve"/>
      <point x="21" y="34" type="line"/>
      <point x="95" y="-3"/>
      <point x="175" y="-17"/>
      <point x="267" y="-17" type="curve" smooth="yes"/>
    </contour>
    <contour>
      <point x="335" y="-96" type="line"/>
      <point x="335" y="303" type="line"/>
      <point x="189" y="303" type="line"/>
      <point x="189" y="-96" type="line"/>
    </contour>
    <contour>
      <point x="360" y="372" type="line"/>
      <point x="360" y="758" type="line"/>
      <point x="214" y="758" type="line"/>
      <point x="214" y="372" type="line"/>
    </contour>
  </outline>
</glyph>
<glyph name="percent" format="1">
  <advance width="1035"/>
  <unicode hex="0025"/>
  <outline>
    <contour>
      <point x="939" y="-17"/>
      <point x="1018" y="82"/>
      <point x="1018" y="205" type="curve" smooth="yes"/>
      <point x="1018" y="328"/>
      <point x="939" y="426"/>
      <point x="797" y="426" type="curve" smooth="yes"/>
      <point x="655" y="426"/>
      <point x="575" y="328"/>
      <point x="575" y="205" type="curve" smooth="yes"/>
      <point x="575" y="82"/>
      <point x="655" y="-17"/>
      <point x="797" y="-17" type="curve" smooth="yes"/>
    </contour>
    <contour>
      <point x="381" y="315"/>
      <point x="460" y="414"/>
      <point x="460" y="537" type="curve" smooth="yes"/>
      <point x="460" y="660"/>
      <point x="381" y="758"/>
      <point x="239" y="758" type="curve" smooth="yes"/>
      <point x="97" y="758"/>
      <point x="17" y="660"/>
      <point x="17" y="537" type="curve" smooth="yes"/>
      <point x="17" y="414"/>
      <point x="97" y="315"/>
      <point x="239" y="315" type="curve" smooth="yes"/>
    </contour>
    <contour>
      <point x="177" y="429"/>
      <point x="143" y="479"/>
      <point x="143" y="537" type="curve" smooth="yes"/>
      <point x="143" y="596"/>
      <point x="177" y="644"/>
      <point x="239" y="644" type="curve" smooth="yes"/>
      <point x="303" y="644"/>
      <point x="334" y="596"/>
      <point x="334" y="537" type="curve" smooth="yes"/>
      <point x="334" y="479"/>
      <point x="303" y="429"/>
      <point x="239" y="429" type="curve" smooth="yes"/>
    </contour>
    <contour>
      <point x="735" y="97"/>
      <point x="701" y="147"/>
      <point x="701" y="205" type="curve" smooth="yes"/>
      <point x="701" y="264"/>
      <point x="735" y="312"/>
      <point x="797" y="312" type="curve" smooth="yes"/>
      <point x="861" y="312"/>
      <point x="892" y="264"/>
      <point x="892" y="205" type="curve" smooth="yes"/>
      <point x="892" y="147"/>
      <point x="861" y="97"/>
      <point x="797" y="97" type="curve" smooth="yes"/>
    </contour>
    <component base="fraction" xOffset="319"/>
  </outline>
</glyph>
<glyph name="ampersand" format="1">
  <advance width="814"/>
  <unicode hex="0026"/>
  <outline>
    <contour>
      <point x="551" y="-17"/>
      <point x="752" y="230"/>
      <point x="752" y="498" type="curve"/>
      <point x="574" y="498" type="line"/>
      <point x="572" y="285"/>
      <point x="465" y="135"/>
      <point x="306" y="135" type="curve" smooth="yes"/>
      <point x="233" y="135"/>
      <point x="205" y="160"/>
      <point x="205" y="198" type="curve" smooth="yes"/>
      <point x="205" y="236"/>
      <point x="212" y="257"/>
      <point x="293" y="307" type="curve" smooth="yes"/>
      <point x="393" y="368" type="line" smooth="yes"/>
      <point x="475" y="418"/>
      <point x="546" y="491"/>
      <point x="546" y="580" type="curve" smooth="yes"/>
      <point x="546" y="709"/>
      <point x="450" y="779"/>
      <point x="319" y="779" type="curve" smooth="yes"/>
      <point x="191" y="779"/>
      <point x="94" y="707"/>
      <point x="94" y="578" type="curve" smooth="yes"/>
      <point x="94" y="507"/>
      <point x="125" y="443"/>
      <point x="172" y="386" type="curve" smooth="yes"/>
      <point x="187" y="368" type="line" smooth="yes"/>
      <point x="244" y="300"/>
      <point x="344" y="185"/>
      <point x="416" y="124" type="curve" smooth="yes"/>
      <point x="524" y="34"/>
      <point x="610" y="0"/>
      <point x="716" y="0" type="curve" smooth="yes"/>
      <point x="784" y="0" type="line"/>
      <point x="784" y="154" type="line"/>
      <point x="717" y="154" type="line" smooth="yes"/>
      <point x="671" y="154"/>
      <point x="631" y="169"/>
      <point x="543" y="240" type="curve" smooth="yes"/>
      <point x="485" y="286"/>
      <point x="404" y="371"/>
      <point x="366" y="415" type="curve" smooth="yes"/>
      <point x="349" y="435" type="line" smooth="yes"/>
      <point x="297" y="496"/>
      <point x="272" y="531"/>
      <point x="272" y="577" type="curve" smooth="yes"/>
      <point x="272" y="610"/>
      <point x="281" y="637"/>
      <point x="319" y="637" type="curve" smooth="yes"/>
      <point x="360" y="637"/>
      <point x="368" y="610"/>
      <point x="368" y="583" type="curve" smooth="yes"/>
      <point x="368" y="554"/>
      <point x="347" y="513"/>
      <point x="303" y="488" type="curve" smooth="yes"/>
      <point x="201" y="431" type="line" smooth="yes"/>
      <point x="111" y="381"/>
      <point x="27" y="315"/>
      <point x="27" y="192" type="curve" smooth="yes"/>
      <point x="27" y="53"/>
      <point x="125" y="-17"/>
      <point x="306" y="-17" type="curve" smooth="yes"/>
    </contour>
  </outline>
</glyph>
<glyph name="parenleft" format="1">
  <advance width="386"/>
  <unicode hex="0028"/>
  <outline>
    <contour>
      <point x="366" y="-42" type="line"/>
      <point x="283" y="70"/>
      <point x="244" y="203"/>
      <point x="244" y="359" type="curve"/>
      <point x="244" y="515"/>
      <point x="283" y="648"/>
      <point x="366" y="760" type="curve"/>
      <point x="240" y="847" type="line"/>
      <point x="114" y="706"/>
      <point x="56" y="560"/>
      <point x="56" y="359" type="curve"/>
      <point x="56" y="158"/>
      <point x="114" y="12"/>
      <point x="240" y="-129" type="curve"/>
    </contour>
  </outline>
</glyph>
<glyph name="parenright" format="1">
  <advance width="386"/>
  <unicode hex="0029"/>
  <outline>
    <contour>
      <point x="272" y="12"/>
      <point x="330" y="158"/>
      <point x="330" y="359" type="curve"/>
      <point x="330" y="560"/>
      <point x="272" y="706"/>
      <point x="146" y="847" type="curve"/>
      <point x="20" y="760" type="line"/>
      <point x="103" y="648"/>
      <point x="142" y="515"/>
      <point x="142" y="359" type="curve"/>
      <point x="142" y="203"/>
      <point x="103" y="70"/>
      <point x="20" y="-42" type="curve"/>
      <point x="146" y="-129" type="line"/>
    </contour>
  </outline>
</glyph>
<glyph name="asterisk" format="1">
  <advance width="618"/>
  <unicode hex="002A"/>
  <outline>
    <contour>
      <point x="489" y="808" type="line"/>
      <point x="358" y="710" type="line"/>
      <point x="378" y="872" type="line"/>
      <point x="240" y="872" type="line"/>
      <point x="260" y="710" type="line"/>
      <point x="129" y="808" type="line"/>
      <point x="60" y="688" type="line"/>
      <point x="210" y="624" type="line"/>
      <point x="60" y="560" type="line"/>
      <point x="129" y="440" type="line"/>
      <point x="260" y="538" type="line"/>
      <point x="240" y="376" type="line"/>
      <point x="378" y="376" type="line"/>
      <point x="358" y="538" type="line"/>
      <point x="489" y="440" type="line"/>
      <point x="558" y="560" type="line"/>
      <point x="408" y="624" type="line"/>
      <point x="558" y="688" type="line"/>
    </contour>
  </outline>
</glyph>
<glyph name="plus" format="1">
  <advance width="550"/>
  <unicode hex="002B"/>
  <outline>
    <contour>
      <point x="353" y="128" type="line"/>
      <point x="353" y="544" type="line"/>
      <point x="197" y="544" type="line"/>
      <point x="197" y="128" type="line"/>
    </contour>
    <contour>
      <point x="483" y="260" type="line"/>
      <point x="483" y="414" type="line"/>
      <point x="67" y="414" type="line"/>
      <point x="67" y="260" type="line"/>
    </contour>
  </outline>
</glyph>
<glyph name="hyphen" format="1">
  <advance width="454"/>
  <unicode hex="002D"/>
  <outline>
    <contour>
      <point x="374" y="220" type="line"/>
      <point x="374" y="372" type="line"/>
      <point x="80" y="372" type="line"/>
      <point x="80" y="220" type="line"/>
    </contour>
  </outline>
</glyph>
<glyph name="period" format="1">
  <advance width="284"/>
  <unicode hex="002E"/>
  <outline>
    <contour>
      <point x="234" y="0" type="line"/>
      <point x="234" y="181" type="line"/>
      <point x="50" y="181" type="line"/>
      <point x="50" y="0" type="line"/>
    </contour>
  </outline>
</glyph>
<glyph name="slash" format="1">
  <advance width="437"/>
  <unicode hex="002F"/>
  <outline>
    <contour>
      <point x="151" y="-177" type="line"/>
      <point x="462" y="931" type="line"/>
      <point x="286" y="931" type="line"/>
      <point x="-25" y="-177" type="line"/>
    </contour>
  </outline>
</glyph>
<glyph name="zero" format="1">
  <advance width="550"/>
  <unicode hex="0030"/>
  <outline>
    <contour>
      <point x="436" y="-17"/>
      <point x="523" y="82"/>
      <point x="523" y="336" type="curve" smooth="yes"/>
      <point x="523" y="584"/>
      <point x="436" y="688"/>
      <point x="275" y="688" type="curve" smooth="yes"/>
      <point x="107" y="688"/>
      <point x="27" y="584"/>
      <point x="27" y="336" type="curve" smooth="yes"/>
      <point x="27" y="82"/>
      <point x="107" y="-17"/>
      <point x="275" y="-17" type="curve" smooth="yes"/>
    </contour>
    <contour>
      <point x="228" y="135"/>
      <point x="205" y="170"/>
      <point x="205" y="336" type="curve" smooth="yes"/>
      <point x="205" y="498"/>
      <point x="228" y="536"/>
      <point x="275" y="536" type="curve" smooth="yes"/>
      <point x="318" y="536"/>
      <point x="345" y="497"/>
      <point x="345" y="336" type="curve" smooth="yes"/>
      <point x="345" y="170"/>
      <point x="318" y="135"/>
      <point x="275" y="135" type="curve" smooth="yes"/>
    </contour>
  </outline>
</glyph>
<glyph name="one" format="1">
  <advance width="550"/>
  <unicode hex="0031"/>
  <outline>
    <contour>
      <point x="373" y="0" type="line"/>
      <point x="373" y="674" type="line"/>
      <point x="197" y="674" type="line"/>
      <point x="197" y="0" type="line"/>
    </contour>
    <contour>
      <point x="509" y="0" type="line"/>
      <point x="509" y="154" type="line"/>
      <point x="61" y="154" type="line"/>
      <point x="61" y="0" type="line"/>
    </contour>
    <contour>
      <point x="279" y="520" type="line"/>
      <point x="279" y="674" type="line"/>
      <point x="81" y="674" type="line"/>
      <point x="81" y="520" type="line"/>
    </contour>
  </outline>
</glyph>
<glyph name="two" format="1">
  <advance width="550"/>
  <unicode hex="0032"/>
  <outline>
    <contour>
      <point x="523" y="0" type="line"/>
      <point x="523" y="154" type="line"/>
      <point x="269" y="154" type="line"/>
      <point x="436" y="287"/>
      <point x="503" y="359"/>
      <point x="503" y="476" type="curve" smooth="yes"/>
      <point x="503" y="617"/>
      <point x="402" y="688"/>
      <point x="271" y="688" type="curve" smooth="yes"/>
      <point x="204" y="688"/>
      <point x="138" y="682"/>
      <point x="67" y="651" type="curve"/>
      <point x="67" y="495" type="line"/>
      <point x="117" y="520"/>
      <point x="174" y="536"/>
      <point x="232" y="536" type="curve" smooth="yes"/>
      <point x="288" y="536"/>
      <point x="325" y="511"/>
      <point x="325" y="458" type="curve" smooth="yes"/>
      <point x="325" y="392"/>
      <point x="246" y="326"/>
      <point x="42" y="154" type="curve"/>
      <point x="42" y="0" type="line"/>
    </contour>
  </outline>
</glyph>
<glyph name="three" format="1">
  <advance width="550"/>
  <unicode hex="0033"/>
  <outline>
    <contour>
      <point x="413" y="-17"/>
      <point x="513" y="61"/>
      <point x="513" y="185" type="curve" smooth="yes"/>
      <point x="513" y="287"/>
      <point x="455" y="340"/>
      <point x="367" y="356" type="curve"/>
      <point x="368" y="347" type="line"/>
      <point x="448" y="370"/>
      <point x="503" y="412"/>
      <point x="503" y="514" type="curve" smooth="yes"/>
      <point x="503" y="620"/>
      <point x="407" y="688"/>
      <point x="252" y="688" type="curve" smooth="yes"/>
      <point x="186" y="688"/>
      <point x="119" y="682"/>
      <point x="57" y="657" type="curve"/>
      <point x="57" y="501" type="line"/>
      <point x="109" y="527"/>
      <point x="172" y="536"/>
      <point x="224" y="536" type="curve" smooth="yes"/>
      <point x="289" y="536"/>
      <point x="325" y="516"/>
      <point x="325" y="480" type="curve" smooth="yes"/>
      <point x="325" y="445"/>
      <point x="296" y="427"/>
      <point x="241" y="427" type="curve" smooth="yes"/>
      <point x="127" y="427" type="line"/>
      <point x="127" y="275" type="line"/>
      <point x="241" y="275" type="line" smooth="yes"/>
      <point x="302" y="275"/>
      <point x="335" y="253"/>
      <point x="335" y="210" type="curve" smooth="yes"/>
      <point x="335" y="159"/>
      <point x="288" y="135"/>
      <point x="212" y="135" type="curve" smooth="yes"/>
      <point x="155" y="135"/>
      <point x="96" y="150"/>
      <point x="47" y="174" type="curve"/>
      <point x="47" y="18" type="line"/>
      <point x="107" y="-7"/>
      <point x="173" y="-17"/>
      <point x="252" y="-17" type="curve" smooth="yes"/>
    </contour>
  </outline>
</glyph>
<glyph name="four" format="1">
  <advance width="550"/>
  <unicode hex="0034"/>
  <outline>
    <contour>
      <point x="470" y="-17" type="line"/>
      <point x="470" y="683" type="line"/>
      <point x="234" y="683" type="line"/>
      <point x="10" y="274" type="line"/>
      <point x="192" y="274" type="line"/>
      <point x="370" y="609" type="line"/>
      <point x="294" y="609" type="line"/>
      <point x="294" y="-17" type="line"/>
    </contour>
    <contour>
      <point x="543" y="130" type="line"/>
      <point x="543" y="274" type="line"/>
      <point x="10" y="274" type="line"/>
      <point x="10" y="130" type="line"/>
    </contour>
  </outline>
</glyph>
<glyph name="five" format="1">
  <advance width="550"/>
  <unicode hex="0035"/>
  <outline>
    <contour>
      <point x="421" y="-17"/>
      <point x="518" y="66"/>
      <point x="518" y="216" type="curve" smooth="yes"/>
      <point x="518" y="348"/>
      <point x="434" y="439"/>
      <point x="280" y="439" type="curve" smooth="yes"/>
      <point x="206" y="439"/>
      <point x="114" y="426"/>
      <point x="71" y="414" type="curve"/>
      <point x="63" y="257" type="line"/>
      <point x="108" y="275"/>
      <point x="175" y="287"/>
      <point x="240" y="287" type="curve" smooth="yes"/>
      <point x="303" y="287"/>
      <point x="340" y="262"/>
      <point x="340" y="216" type="curve" smooth="yes"/>
      <point x="340" y="161"/>
      <point x="299" y="135"/>
      <point x="221" y="135" type="curve"/>
      <point x="174" y="135"/>
      <point x="104" y="145"/>
      <point x="52" y="167" type="curve"/>
      <point x="52" y="12" type="line"/>
      <point x="108" y="-7"/>
      <point x="175" y="-17"/>
      <point x="240" y="-17" type="curve"/>
    </contour>
    <contour>
      <point x="239" y="393" type="line"/>
      <point x="246" y="674" type="line"/>
      <point x="70" y="674" type="line" smooth="yes"/>
      <point x="63" y="257" type="line"/>
    </contour>
    <contour>
      <point x="479" y="520" type="line"/>
      <point x="479" y="674" type="line"/>
      <point x="111" y="674" type="line"/>
      <point x="111" y="520" type="line"/>
    </contour>
  </outline>
</glyph>
<glyph name="six" format="1">
  <advance width="550"/>
  <unicode hex="0036"/>
  <outline>
    <contour>
      <point x="426" y="-17"/>
      <point x="531" y="74"/>
      <point x="531" y="221" type="curve" smooth="yes"/>
      <point x="531" y="338"/>
      <point x="451" y="428"/>
      <point x="320" y="428" type="curve" smooth="yes"/>
      <point x="245" y="428"/>
      <point x="177" y="391"/>
      <point x="120" y="328" type="curve"/>
      <point x="120" y="219" type="line"/>
      <point x="171" y="269"/>
      <point x="220" y="296"/>
      <point x="277" y="296" type="curve" smooth="yes"/>
      <point x="326" y="296"/>
      <point x="353" y="262"/>
      <point x="353" y="211" type="curve" smooth="yes"/>
      <point x="353" y="154"/>
      <point x="322" y="125"/>
      <point x="278" y="125" type="curve" smooth="yes"/>
      <point x="223" y="125"/>
      <point x="195" y="163"/>
      <point x="195" y="234" type="curve" smooth="yes"/>
      <point x="195" y="402"/>
      <point x="246" y="444"/>
      <point x="463" y="579" type="curve"/>
      <point x="346" y="686" type="line"/>
      <point x="140" y="582"/>
      <point x="17" y="443"/>
      <point x="17" y="252" type="curve" smooth="yes"/>
      <point x="17" y="79"/>
      <point x="106" y="-17"/>
      <point x="282" y="-17" type="curve" smooth="yes"/>
    </contour>
  </outline>
</glyph>
<glyph name="eight" format="1">
  <advance width="550"/>
  <unicode hex="0038"/>
  <outline>
    <contour>
      <point x="436" y="-17"/>
      <point x="530" y="59"/>
      <point x="530" y="177" type="curve" smooth="yes"/>
      <point x="530" y="294"/>
      <point x="436" y="371"/>
      <point x="275" y="371" type="curve" smooth="yes"/>
      <point x="104" y="371"/>
      <point x="20" y="294"/>
      <point x="20" y="177" type="curve" smooth="yes"/>
      <point x="20" y="59"/>
      <point x="104" y="-17"/>
      <point x="275" y="-17" type="curve" smooth="yes"/>
    </contour>
    <contour>
      <point x="232" y="125"/>
      <point x="198" y="155"/>
      <point x="198" y="202" type="curve" smooth="yes"/>
      <point x="198" y="250"/>
      <point x="232" y="279"/>
      <point x="275" y="279" type="curve" smooth="yes"/>
      <point x="318" y="279"/>
      <point x="352" y="250"/>
      <point x="352" y="202" type="curve" smooth="yes"/>
      <point x="352" y="155"/>
      <point x="318" y="125"/>
      <point x="275" y="125" type="curve" smooth="yes"/>
    </contour>
    <contour>
      <point x="240" y="418"/>
      <point x="220" y="444"/>
      <point x="220" y="482" type="curve" smooth="yes"/>
      <point x="220" y="520"/>
      <point x="240" y="546"/>
      <point x="275" y="546" type="curve" smooth="yes"/>
      <point x="310" y="546"/>
      <point x="330" y="520"/>
      <point x="330" y="482" type="curve" smooth="yes"/>
      <point x="330" y="444"/>
      <point x="310" y="418"/>
      <point x="275" y="418" type="curve" smooth="yes"/>
    </contour>
    <contour>
      <point x="423" y="326"/>
      <point x="508" y="402"/>
      <point x="508" y="507" type="curve" smooth="yes"/>
      <point x="508" y="611"/>
      <point x="423" y="688"/>
      <point x="275" y="688" type="curve" smooth="yes"/>
      <point x="117" y="688"/>
      <point x="42" y="611"/>
      <point x="42" y="507" type="curve" smooth="yes"/>
      <point x="42" y="402"/>
      <point x="117" y="326"/>
      <point x="275" y="326" type="curve" smooth="yes"/>
    </contour>
  </outline>
</glyph>
<glyph name="nine" format="1">
  <advance width="550"/>
  <unicode hex="0039"/>
  <outline>
    <contour>
      <point x="410" y="87"/>
      <point x="533" y="226"/>
      <point x="533" y="417" type="curve" smooth="yes"/>
      <point x="533" y="590"/>
      <point x="444" y="686"/>
      <point x="268" y="686" type="curve" smooth="yes"/>
      <point x="124" y="686"/>
      <point x="19" y="595"/>
      <point x="19" y="448" type="curve" smooth="yes"/>
      <point x="19" y="331"/>
      <point x="99" y="241"/>
      <point x="230" y="241" type="curve" smooth="yes"/>
      <point x="305" y="241"/>
      <point x="373" y="278"/>
      <point x="430" y="341" type="curve"/>
      <point x="430" y="450" type="line"/>
      <point x="379" y="400"/>
      <point x="330" y="373"/>
      <point x="273" y="373" type="curve" smooth="yes"/>
      <point x="224" y="373"/>
      <point x="197" y="407"/>
      <point x="197" y="458" type="curve" smooth="yes"/>
      <point x="197" y="515"/>
      <point x="228" y="544"/>
      <point x="272" y="544" type="curve" smooth="yes"/>
      <point x="327" y="544"/>
      <point x="355" y="506"/>
      <point x="355" y="435" type="curve" smooth="yes"/>
      <point x="355" y="267"/>
      <point x="304" y="225"/>
      <point x="87" y="90" type="curve"/>
      <point x="204" y="-17" type="line"/>
    </contour>
  </outline>
</glyph>
<glyph name="less" format="1">
  <advance width="550"/>
  <unicode hex="003C"/>
  <outline>
    <contour>
      <point x="494" y="191" type="line"/>
      <point x="167" y="382" type="line"/>
      <point x="167" y="283" type="line"/>
      <point x="494" y="475" type="line"/>
      <point x="421" y="613" type="line"/>
      <point x="67" y="404" type="line"/>
      <point x="67" y="262" type="line"/>
      <point x="421" y="54" type="line"/>
    </contour>
  </outline>
</glyph>
<glyph name="question" format="1">
  <advance width="500"/>
  <unicode hex="003F"/>
  <outline>
    <contour>
      <point x="292" y="230" type="line"/>
      <point x="292" y="279" type="line" smooth="yes"/>
      <point x="292" y="318"/>
      <point x="300" y="336"/>
      <point x="333" y="363" type="curve" smooth="yes"/>
      <point x="363" y="387" type="line" smooth="yes"/>
      <point x="417" y="431"/>
      <point x="473" y="476"/>
      <point x="473" y="578" type="curve" smooth="yes"/>
      <point x="473" y="707"/>
      <point x="368" y="772"/>
      <point x="231" y="772" type="curve" smooth="yes"/>
      <point x="167" y="772"/>
      <point x="105" y="765"/>
      <point x="37" y="735" type="curve"/>
      <point x="37" y="579" type="line"/>
      <point x="90" y="605"/>
      <point x="150" y="620"/>
      <point x="211" y="620" type="curve" smooth="yes"/>
      <point x="262" y="620"/>
      <point x="295" y="600"/>
      <point x="295" y="564" type="curve" smooth="yes"/>
      <point x="295" y="534"/>
      <point x="286" y="522"/>
      <point x="245" y="489" type="curve" smooth="yes"/>
      <point x="195" y="449" type="line" smooth="yes"/>
      <point x="136" y="402"/>
      <point x="116" y="369"/>
      <point x="116" y="296" type="curve" smooth="yes"/>
      <point x="116" y="230" type="line"/>
    </contour>
    <contour>
      <point x="296" y="0" type="line"/>
      <point x="296" y="171" type="line"/>
      <point x="112" y="171" type="line"/>
      <point x="112" y="0" type="line"/>
    </contour>
  </outline>
</glyph>
<glyph name="at" format="1">
  <advance width="986"/>
  <unicode hex="0040"/>
  <outline>
    <contour>
      <point x="600" y="-212"/>
      <point x="683" y="-179"/>
      <point x="768" y="-137" type="curve"/>
      <point x="728" y="-37" type="line"/>
      <point x="651" y="-79"/>
      <point x="577" y="-110"/>
      <point x="486" y="-110" type="curve" smooth="yes"/>
      <point x="274" y="-110"/>
      <point x="173" y="29"/>
      <point x="173" y="228" type="curve" smooth="yes"/>
      <point x="173" y="461"/>
      <point x="337" y="620"/>
      <point x="522" y="620" type="curve" smooth="yes"/>
      <point x="703" y="620"/>
      <point x="813" y="520"/>
      <point x="813" y="337" type="curve" smooth="yes"/>
      <point x="813" y="224"/>
      <point x="768" y="116"/>
      <point x="688" y="116" type="curve" smooth="yes"/>
      <point x="672" y="116"/>
      <point x="660" y="130"/>
      <point x="669" y="160" type="curve" smooth="yes"/>
      <point x="766" y="490" type="line"/>
      <point x="629" y="490" type="line"/>
      <point x="541" y="189" type="line" smooth="yes"/>
      <point x="509" y="81"/>
      <point x="558" y="14"/>
      <point x="660" y="14" type="curve" smooth="yes"/>
      <point x="824" y="14"/>
      <point x="939" y="146"/>
      <point x="939" y="337" type="curve" smooth="yes"/>
      <point x="939" y="573"/>
      <point x="779" y="722"/>
      <point x="522" y="722" type="curve"/>
      <point x="266" y="722"/>
      <point x="47" y="523"/>
      <point x="47" y="228" type="curve" smooth="yes"/>
      <point x="47" y="-54"/>
      <point x="229" y="-212"/>
      <point x="486" y="-212" type="curve" smooth="yes"/>
    </contour>
    <contour>
      <point x="474" y="27"/>
      <point x="548" y="71"/>
      <point x="589" y="152" type="curve"/>
      <point x="589" y="283" type="line"/>
      <point x="547" y="201"/>
      <point x="500" y="142"/>
      <point x="434" y="142" type="curve" smooth="yes"/>
      <point x="402" y="142"/>
      <point x="382" y="161"/>
      <point x="382" y="213" type="curve" smooth="yes"/>
      <point x="382" y="310"/>
      <point x="437" y="392"/>
      <point x="519" y="392" type="curve" smooth="yes"/>
      <point x="563" y="392"/>
      <point x="598" y="365"/>
      <point x="631" y="296" type="curve"/>
      <point x="661" y="384" type="line"/>
      <point x="633" y="482"/>
      <point x="573" y="506"/>
      <point x="506" y="506" type="curve" smooth="yes"/>
      <point x="359" y="506"/>
      <point x="246" y="381"/>
      <point x="246" y="201" type="curve" smooth="yes"/>
      <point x="246" y="87"/>
      <point x="315" y="27"/>
      <point x="403" y="27" type="curve"/>
    </contour>
  </outline>
</glyph>
<glyph name="A" format="1">
  <advance width="819"/>
  <unicode hex="0041"/>
  <outline>
    <contour>
      <point x="210" y="0" type="line"/>
      <point x="447" y="695" type="line"/>
      <point x="371" y="695" type="line"/>
      <point x="609" y="0" type="line"/>
      <point x="789" y="0" type="line"/>
      <point x="523" y="767" type="line"/>
      <point x="295" y="767" type="line"/>
      <point x="30" y="0" type="line"/>
    </contour>
    <contour>
      <point x="598" y="154" type="line"/>
      <point x="598" y="308" type="line"/>
      <point x="222" y="308" type="line"/>
      <point x="222" y="154" type="line"/>
    </contour>
    <contour>
      <point x="410" y="800" type="move" name="Accent"/>
    </contour>
    <contour>
      <point x="721" y="0" type="move" name="ogonek"/>
    </contour>
  </outline>
</glyph>
<glyph name="B" format="1">
  <advance width="746"/>
  <unicode hex="0042"/>
  <outline>
    <contour>
      <point x="397" y="0" type="line" smooth="yes"/>
      <point x="619" y="0"/>
      <point x="696" y="75"/>
      <point x="696" y="212" type="curve" smooth="yes"/>
      <point x="696" y="306"/>
      <point x="633" y="368"/>
      <point x="538" y="391" type="curve"/>
      <point x="539" y="377" type="line"/>
      <point x="633" y="408"/>
      <point x="666" y="469"/>
      <point x="666" y="555" type="curve" smooth="yes"/>
      <point x="666" y="679"/>
      <point x="602" y="758"/>
      <point x="397" y="758" type="curve" smooth="yes"/>
      <point x="80" y="758" type="line"/>
      <point x="80" y="0" type="line"/>
    </contour>
    <contour>
      <point x="260" y="309" type="line"/>
      <point x="397" y="309" type="line" smooth="yes"/>
      <point x="474" y="309"/>
      <point x="515" y="284"/>
      <point x="514" y="224" type="curve" smooth="yes"/>
      <point x="514" y="168"/>
      <point x="484" y="142"/>
      <point x="397" y="142" type="curve" smooth="yes"/>
      <point x="260" y="142" type="line"/>
    </contour>
    <contour>
      <point x="260" y="616" type="line"/>
      <point x="397" y="616" type="line" smooth="yes"/>
      <point x="458" y="616"/>
      <point x="484" y="592"/>
      <point x="484" y="533" type="curve" smooth="yes"/>
      <point x="483" y="478"/>
      <point x="453" y="451"/>
      <point x="397" y="451" type="curve" smooth="yes"/>
      <point x="260" y="451" type="line"/>
    </contour>
  </outline>
</glyph>
<glyph name="C" format="1">
  <advance width="713"/>
  <unicode hex="0043"/>
  <outline>
    <contour>
      <point x="509" y="-17"/>
      <point x="598" y="3"/>
      <point x="678" y="44" type="curve"/>
      <point x="625" y="191" type="line"/>
      <point x="562" y="157"/>
      <point x="502" y="135"/>
      <point x="434" y="135" type="curve"/>
      <point x="295" y="135"/>
      <point x="217" y="234"/>
      <point x="217" y="378" type="curve" smooth="yes"/>
      <point x="217" y="517"/>
      <point x="307" y="620"/>
      <point x="439" y="620" type="curve"/>
      <point x="499" y="620"/>
      <point x="558" y="608"/>
      <point x="618" y="579" type="curve"/>
      <point x="618" y="735" type="line"/>
      <point x="557" y="760"/>
      <point x="507" y="772"/>
      <point x="434" y="772" type="curve"/>
      <point x="168" y="772"/>
      <point x="35" y="595"/>
      <point x="35" y="377" type="curve" smooth="yes"/>
      <point x="35" y="141"/>
      <point x="158" y="-17"/>
      <point x="434" y="-17" type="curve"/>
    </contour>
    <contour>
      <point x="394" y="800" type="move" name="Accent"/>
    </contour>
    <contour>
      <point x="404" y="0" type="move" name="bottomaccent"/>
    </contour>
  </outline>
</glyph>
<glyph name="D" format="1">
  <advance width="801"/>
  <unicode hex="0044"/>
  <outline>
    <contour>
      <point x="347" y="0" type="line"/>
      <point x="625" y="0"/>
      <point x="766" y="127"/>
      <point x="766" y="378" type="curve" smooth="yes"/>
      <point x="766" y="626"/>
      <point x="625" y="758"/>
      <point x="347" y="758" type="curve"/>
      <point x="172" y="758" type="line"/>
      <point x="172" y="606" type="line"/>
      <point x="347" y="606" type="line"/>
      <point x="508" y="606"/>
      <point x="585" y="537"/>
      <point x="584" y="378" type="curve" smooth="yes"/>
      <point x="583" y="218"/>
      <point x="508" y="152"/>
      <point x="347" y="152" type="curve"/>
      <point x="171" y="152" type="line"/>
      <point x="171" y="0" type="line"/>
    </contour>
    <contour>
      <point x="260" y="0" type="line"/>
      <point x="260" y="758" type="line"/>
      <point x="80" y="758" type="line"/>
      <point x="80" y="0" type="line"/>
    </contour>
    <contour>
      <point x="401" y="800" type="move" name="Accent"/>
    </contour>
  </outline>
</glyph>
<glyph name="E" format="1">
  <advance width="646"/>
  <unicode hex="0045"/>
  <outline>
    <contour>
      <point x="260" y="0" type="line"/>
      <point x="260" y="758" type="line"/>
      <point x="80" y="758" type="line"/>
      <point x="80" y="0" type="line"/>
    </contour>
    <contour>
      <point x="586" y="0" type="line"/>
      <point x="586" y="144" type="line"/>
      <point x="183" y="144" type="line"/>
      <point x="183" y="0" type="line"/>
    </contour>
    <contour>
      <point x="531" y="309" type="line"/>
      <point x="531" y="453" type="line"/>
      <point x="183" y="453" type="line"/>
      <point x="183" y="309" type="line"/>
    </contour>
    <contour>
      <point x="581" y="614" type="line"/>
      <point x="581" y="758" type="line"/>
      <point x="183" y="758" type="line"/>
      <point x="183" y="614" type="line"/>
    </contour>
    <contour>
      <point x="333" y="800" type="move" name="Accent"/>
    </contour>
    <contour>
      <point x="518" y="0" type="move" name="ogonek"/>
    </contour>
  </outline>
</glyph>
<glyph name="F" format="1">
  <advance width="621"/>
  <unicode hex="0046"/>
  <outline>
    <contour>
      <point x="260" y="0" type="line"/>
      <point x="260" y="758" type="line"/>
      <point x="80" y="758" type="line"/>
      <point x="80" y="0" type="line"/>
    </contour>
    <contour>
      <point x="531" y="284" type="line"/>
      <point x="531" y="438" type="line"/>
      <point x="183" y="438" type="line"/>
      <point x="183" y="284" type="line"/>
    </contour>
    <contour>
      <point x="581" y="604" type="line"/>
      <point x="581" y="758" type="line"/>
      <point x="183" y="758" type="line"/>
      <point x="183" y="604" type="line"/>
    </contour>
  </outline>
</glyph>
<glyph name="G" format="1">
  <advance width="755"/>
  <unicode hex="0047"/>
  <outline>
    <contour>
      <point x="512" y="-17"/>
      <point x="611" y="6"/>
      <point x="695" y="53" type="curve"/>
      <point x="598" y="184" type="line"/>
      <point x="543" y="158"/>
      <point x="504" y="135"/>
      <point x="434" y="135" type="curve"/>
      <point x="295" y="135"/>
      <point x="218" y="234"/>
      <point x="217" y="378" type="curve" smooth="yes"/>
      <point x="216" y="518"/>
      <point x="295" y="620"/>
      <point x="434" y="620" type="curve"/>
      <point x="526" y="620"/>
      <point x="587" y="597"/>
      <point x="648" y="563" type="curve"/>
      <point x="648" y="722" type="line"/>
      <point x="589" y="748"/>
      <point x="532" y="772"/>
      <point x="434" y="772" type="curve"/>
      <point x="158" y="772"/>
      <point x="35" y="595"/>
      <point x="35" y="378" type="curve" smooth="yes"/>
      <point x="35" y="146"/>
      <point x="169" y="-17"/>
      <point x="434" y="-17" type="curve"/>
    </contour>
    <contour>
      <point x="695" y="53" type="line"/>
      <point x="695" y="313" type="line"/>
      <point x="519" y="313" type="line"/>
      <point x="519" y="53" type="line"/>
    </contour>
    <contour>
      <point x="695" y="309" type="line"/>
      <point x="695" y="463" type="line"/>
      <point x="330" y="463" type="line"/>
      <point x="330" y="309" type="line"/>
    </contour>
    <contour>
      <point x="418" y="800" type="move" name="Accent"/>
    </contour>
    <contour>
      <point x="416" y="0" type="move" name="bottomaccent"/>
    </contour>
  </outline>
</glyph>
<glyph name="H" format="1">
  <advance width="819"/>
  <unicode hex="0048"/>
  <outline>
    <contour>
      <point x="739" y="0" type="line"/>
      <point x="739" y="758" type="line"/>
      <point x="559" y="758" type="line"/>
      <point x="559" y="0" type="line"/>
    </contour>
    <contour>
      <point x="260" y="0" type="line"/>
      <point x="260" y="758" type="line"/>
      <point x="80" y="758" type="line"/>
      <point x="80" y="0" type="line"/>
    </contour>
    <contour>
      <point x="634" y="304" type="line"/>
      <point x="634" y="458" type="line"/>
      <point x="179" y="458" type="line"/>
      <point x="179" y="304" type="line"/>
    </contour>
    <contour>
      <point x="410" y="800" type="move" name="Accent"/>
    </contour>
  </outline>
</glyph>
<glyph name="I" format="1">
  <advance width="340"/>
  <unicode hex="0049"/>
  <outline>
    <contour>
      <point x="260" y="0" type="line"/>
      <point x="260" y="758" type="line"/>
      <point x="80" y="758" type="line"/>
      <point x="80" y="0" type="line"/>
    </contour>
    <contour>
      <point x="170" y="800" type="move" name="Accent"/>
    </contour>
    <contour>
      <point x="170" y="0" type="move" name="bottomaccent"/>
    </contour>
  </outline>
</glyph>
<glyph name="J" format="1">
  <advance width="370"/>
  <unicode hex="004A"/>
  <outline>
    <contour>
      <point x="248" y="-181"/>
      <point x="290" y="-130"/>
      <point x="290" y="60" type="curve" smooth="yes"/>
      <point x="290" y="758" type="line"/>
      <point x="110" y="758" type="line"/>
      <point x="110" y="66" type="line" smooth="yes"/>
      <point x="110" y="-11"/>
      <point x="96" y="-27"/>
      <point x="55" y="-27" type="curve" smooth="yes"/>
      <point x="32" y="-27"/>
      <point x="16" y="-25"/>
      <point x="1" y="-22" type="curve"/>
      <point x="1" y="-173" type="line"/>
      <point x="30" y="-179"/>
      <point x="58" y="-181"/>
      <point x="92" y="-181" type="curve" smooth="yes"/>
    </contour>
    <contour>
      <point x="195" y="800" type="move" name="Accent"/>
    </contour>
  </outline>
</glyph>
<glyph name="K" format="1">
  <advance width="742"/>
  <unicode hex="004B"/>
  <outline>
    <contour>
      <point x="717" y="758" type="line"/>
      <point x="494" y="758" type="line"/>
      <point x="130" y="341" type="line"/>
      <point x="214" y="179" type="line"/>
    </contour>
    <contour>
      <point x="260" y="0" type="line"/>
      <point x="260" y="758" type="line"/>
      <point x="80" y="758" type="line"/>
      <point x="80" y="0" type="line"/>
    </contour>
    <contour>
      <point x="722" y="0" type="line"/>
      <point x="394" y="420" type="line"/>
      <point x="208" y="383" type="line"/>
      <point x="497" y="0" type="line"/>
    </contour>
    <contour>
      <point x="371" y="800" type="move" name="Accent"/>
    </contour>
    <contour>
      <point x="361" y="0" type="move" name="bottomaccent"/>
    </contour>
  </outline>
</glyph>
<glyph name="L" format="1">
  <advance width="576"/>
  <unicode hex="004C"/>
  <outline>
    <contour>
      <point x="260" y="0" type="line"/>
      <point x="260" y="758" type="line"/>
      <point x="80" y="758" type="line"/>
      <point x="80" y="0" type="line"/>
    </contour>
    <contour>
      <point x="536" y="0" type="line"/>
      <point x="536" y="154" type="line"/>
      <point x="183" y="154" type="line"/>
      <point x="183" y="0" type="line"/>
    </contour>
    <contour>
      <point x="164" y="800" type="move" name="Accent"/>
    </contour>
    <contour>
      <point x="307" y="0" type="move" name="bottomaccent"/>
    </contour>
  </outline>
</glyph>
<glyph name="N" format="1">
  <advance width="819"/>
  <unicode hex="004E"/>
  <outline>
    <contour>
      <point x="260" y="0" type="line"/>
      <point x="260" y="679" type="line"/>
      <point x="185" y="595" type="line"/>
      <point x="532" y="0" type="line"/>
      <point x="739" y="0" type="line"/>
      <point x="739" y="758" type="line"/>
      <point x="559" y="758" type="line"/>
      <point x="559" y="79" type="line"/>
      <point x="634" y="163" type="line"/>
      <point x="287" y="758" type="line"/>
      <point x="80" y="758" type="line"/>
      <point x="80" y="0" type="line"/>
    </contour>
    <contour>
      <point x="410" y="800" type="move" name="Accent"/>
    </contour>
    <contour>
      <point x="366" y="0" type="move" name="bottomaccent"/>
    </contour>
  </outline>
</glyph>
<glyph name="O" format="1">
  <advance width="849"/>
  <unicode hex="004F"/>
  <outline>
    <contour>
      <point x="682" y="-17"/>
      <point x="814" y="157"/>
      <point x="814" y="378" type="curve" smooth="yes"/>
      <point x="814" y="594"/>
      <point x="682" y="772"/>
      <point x="425" y="772" type="curve" smooth="yes"/>
      <point x="165" y="772"/>
      <point x="35" y="594"/>
      <point x="35" y="378" type="curve" smooth="yes"/>
      <point x="35" y="157"/>
      <point x="165" y="-17"/>
      <point x="425" y="-17" type="curve" smooth="yes"/>
    </contour>
    <contour>
      <point x="288" y="135"/>
      <point x="219" y="237"/>
      <point x="219" y="378" type="curve" smooth="yes"/>
      <point x="219" y="516"/>
      <point x="288" y="620"/>
      <point x="425" y="620" type="curve" smooth="yes"/>
      <point x="557" y="620"/>
      <point x="631" y="516"/>
      <point x="630" y="378" type="curve" smooth="yes"/>
      <point x="629" y="237"/>
      <point x="557" y="135"/>
      <point x="425" y="135" type="curve" smooth="yes"/>
    </contour>
    <contour>
      <point x="425" y="800" type="move" name="Accent"/>
    </contour>
    <contour>
      <point x="425" y="0" type="move" name="bottomaccent"/>
    </contour>
  </outline>
</glyph>
<glyph name="P" format="1">
  <advance width="696"/>
  <unicode hex="0050"/>
  <outline>
    <contour>
      <point x="387" y="254" type="line"/>
      <point x="580" y="254"/>
      <point x="676" y="343"/>
      <point x="676" y="505" type="curve" smooth="yes"/>
      <point x="676" y="672"/>
      <point x="580" y="758"/>
      <point x="387" y="758" type="curve"/>
      <point x="182" y="758" type="line"/>
      <point x="182" y="606" type="line"/>
      <point x="387" y="606" type="line"/>
      <point x="459" y="606"/>
      <point x="494" y="577"/>
      <point x="494" y="505" type="curve" smooth="yes"/>
      <point x="493" y="437"/>
      <point x="459" y="406"/>
      <point x="387" y="406" type="curve"/>
      <point x="181" y="406" type="line"/>
      <point x="181" y="254" type="line"/>
    </contour>
    <contour>
      <point x="260" y="0" type="line"/>
      <point x="260" y="758" type="line"/>
      <point x="80" y="758" type="line"/>
      <point x="80" y="0" type="line"/>
    </contour>
  </outline>
</glyph>
<glyph name="R" format="1">
  <advance width="741"/>
  <unicode hex="0052"/>
  <outline>
    <contour>
      <point x="387" y="274" type="line"/>
      <point x="580" y="274"/>
      <point x="676" y="359"/>
      <point x="676" y="515" type="curve" smooth="yes"/>
      <point x="676" y="676"/>
      <point x="580" y="758"/>
      <point x="387" y="758" type="curve"/>
      <point x="182" y="758" type="line"/>
      <point x="182" y="606" type="line"/>
      <point x="387" y="606" type="line"/>
      <point x="459" y="606"/>
      <point x="494" y="579"/>
      <point x="494" y="515" type="curve" smooth="yes"/>
      <point x="494" y="456"/>
      <point x="459" y="426"/>
      <point x="387" y="426" type="curve"/>
      <point x="181" y="426" type="line"/>
      <point x="181" y="274" type="line"/>
    </contour>
    <contour>
      <point x="260" y="0" type="line"/>
      <point x="260" y="758" type="line"/>
      <point x="80" y="758" type="line"/>
      <point x="80" y="0" type="line"/>
    </contour>
    <contour>
      <point x="706" y="0" type="line"/>
      <point x="464" y="391" type="line"/>
      <point x="294" y="359" type="line"/>
      <point x="506" y="0" type="line"/>
    </contour>
    <contour>
      <point x="353" y="800" type="move" name="Accent"/>
    </contour>
    <contour>
      <point x="371" y="0" type="move" name="bottomaccent"/>
    </contour>
  </outline>
</glyph>
<glyph name="S" format="1">
  <advance width="671"/>
  <unicode hex="0053"/>
  <outline>
    <contour>
      <point x="516" y="-17"/>
      <point x="626" y="72"/>
      <point x="627" y="217" type="curve"/>
      <point x="627" y="376"/>
      <point x="515" y="422"/>
      <point x="410" y="451" type="curve" smooth="yes"/>
      <point x="341" y="470" type="line" smooth="yes"/>
      <point x="264" y="491"/>
      <point x="238" y="503"/>
      <point x="237" y="550" type="curve"/>
      <point x="237" y="591"/>
      <point x="257" y="620"/>
      <point x="332" y="620" type="curve" smooth="yes"/>
      <point x="435" y="620"/>
      <point x="517" y="598"/>
      <point x="590" y="559" type="curve"/>
      <point x="590" y="715" type="line"/>
      <point x="513" y="751"/>
      <point x="441" y="772"/>
      <point x="332" y="772" type="curve" smooth="yes"/>
      <point x="161" y="772"/>
      <point x="59" y="691"/>
      <point x="59" y="533" type="curve" smooth="yes"/>
      <point x="59" y="379"/>
      <point x="177" y="336"/>
      <point x="269" y="310" type="curve" smooth="yes"/>
      <point x="337" y="291" type="line" smooth="yes"/>
      <point x="414" y="270"/>
      <point x="449" y="255"/>
      <point x="449" y="208" type="curve" smooth="yes"/>
      <point x="449" y="168"/>
      <point x="418" y="135"/>
      <point x="335" y="135" type="curve" smooth="yes"/>
      <point x="243" y="135"/>
      <point x="147" y="154"/>
      <point x="56" y="202" type="curve"/>
      <point x="56" y="40" type="line"/>
      <point x="141" y="0"/>
      <point x="230" y="-17"/>
      <point x="335" y="-17" type="curve" smooth="yes"/>
    </contour>
    <contour>
      <point x="336" y="800" type="move" name="Accent"/>
    </contour>
    <contour>
      <point x="330" y="0" type="move" name="bottomaccent"/>
    </contour>
  </outline>
</glyph>
<glyph name="T" format="1">
  <advance width="674"/>
  <unicode hex="0054"/>
  <outline>
    <contour>
      <point x="427" y="0" type="line"/>
      <point x="427" y="758" type="line"/>
      <point x="247" y="758" type="line"/>
      <point x="247" y="0" type="line"/>
    </contour>
    <contour>
      <point x="265" y="604" type="line"/>
      <point x="265" y="758" type="line"/>
      <point x="40" y="758" type="line"/>
      <point x="40" y="604" type="line"/>
    </contour>
    <contour>
      <point x="634" y="604" type="line"/>
      <point x="634" y="758" type="line"/>
      <point x="349" y="758" type="line"/>
      <point x="349" y="604" type="line"/>
    </contour>
    <contour>
      <point x="337" y="800" type="move" name="Accent"/>
    </contour>
    <contour>
      <point x="337" y="0" type="move" name="bottomaccent"/>
    </contour>
  </outline>
</glyph>
<glyph name="U" format="1">
  <advance width="820"/>
  <unicode hex="0055"/>
  <outline>
    <contour>
      <point x="637" y="-17"/>
      <point x="740" y="102"/>
      <point x="740" y="298" type="curve" smooth="yes"/>
      <point x="740" y="758" type="line"/>
      <point x="560" y="758" type="line"/>
      <point x="560" y="298" type="line" smooth="yes"/>
      <point x="560" y="191"/>
      <point x="510" y="135"/>
      <point x="410" y="135" type="curve" smooth="yes"/>
      <point x="310" y="135"/>
      <point x="260" y="191"/>
      <point x="260" y="298" type="curve" smooth="yes"/>
      <point x="260" y="758" type="line"/>
      <point x="80" y="758" type="line"/>
      <point x="80" y="298" type="line" smooth="yes"/>
      <point x="80" y="102"/>
      <point x="185" y="-17"/>
      <point x="410" y="-17" type="curve" smooth="yes"/>
    </contour>
    <contour>
      <point x="410" y="800" type="move" name="Accent"/>
    </contour>
    <contour>
      <point x="447" y="0" type="move" name="ogonek"/>
    </contour>
  </outline>
</glyph>
<glyph name="V" format="1">
  <advance width="819"/>
  <unicode hex="0056"/>
  <outline>
    <contour>
      <point x="524" y="-9" type="line"/>
      <point x="789" y="758" type="line"/>
      <point x="604" y="758" type="line"/>
      <point x="372" y="63" type="line"/>
      <point x="448" y="63" type="line"/>
      <point x="215" y="758" type="line"/>
      <point x="30" y="758" type="line"/>
      <point x="296" y="-9" type="line"/>
    </contour>
  </outline>
</glyph>
<glyph name="X" format="1">
  <advance width="812"/>
  <unicode hex="0058"/>
  <outline>
    <contour>
      <point x="238" y="0" type="line"/>
      <point x="477" y="360" type="line"/>
      <point x="501" y="378" type="line"/>
      <point x="765" y="758" type="line"/>
      <point x="558" y="758" type="line"/>
      <point x="340" y="428" type="line"/>
      <point x="319" y="413" type="line"/>
      <point x="30" y="0" type="line"/>
    </contour>
    <contour>
      <point x="782" y="0" type="line"/>
      <point x="494" y="413" type="line"/>
      <point x="473" y="428" type="line"/>
      <point x="255" y="758" type="line"/>
      <point x="48" y="758" type="line"/>
      <point x="312" y="378" type="line"/>
      <point x="336" y="360" type="line"/>
      <point x="574" y="0" type="line"/>
    </contour>
  </outline>
</glyph>
<glyph name="Y" format="1">
  <advance width="733"/>
  <unicode hex="0059"/>
  <outline>
    <contour>
      <point x="450" y="286" type="line"/>
      <point x="713" y="758" type="line"/>
      <point x="533" y="758" type="line"/>
      <point x="298" y="328" type="line"/>
      <point x="434" y="328" type="line"/>
      <point x="200" y="758" type="line"/>
      <point x="20" y="758" type="line"/>
      <point x="282" y="286" type="line"/>
    </contour>
    <contour>
      <point x="454" y="0" type="line"/>
      <point x="454" y="339" type="line"/>
      <point x="278" y="339" type="line"/>
      <point x="278" y="0" type="line"/>
    </contour>
    <contour>
      <point x="367" y="800" type="move" name="Accent"/>
    </contour>
  </outline>
</glyph>
<glyph name="Z" format="1">
  <advance width="738"/>
  <unicode hex="005A"/>
  <outline>
    <contour>
      <point x="678" y="0" type="line"/>
      <point x="678" y="154" type="line"/>
      <point x="120" y="154" type="line"/>
      <point x="233" y="54" type="line"/>
      <point x="645" y="606" type="line"/>
      <point x="645" y="758" type="line"/>
      <point x="93" y="758" type="line"/>
      <point x="93" y="604" type="line"/>
      <point x="606" y="604" type="line"/>
      <point x="493" y="704" type="line"/>
      <point x="80" y="152" type="line"/>
      <point x="80" y="0" type="line"/>
    </contour>
    <contour>
      <point x="375" y="800" type="move" name="Accent"/>
    </contour>
  </outline>
</glyph>
<glyph name="bracketleft" format="1">
  <advance width="344"/>
  <unicode hex="005B"/>
  <outline>
    <contour>
      <point x="236" y="-129" type="line"/>
      <point x="236" y="847" type="line"/>
      <point x="60" y="847" type="line"/>
      <point x="60" y="-129" type="line"/>
    </contour>
    <contour>
      <point x="314" y="-129" type="line"/>
      <point x="314" y="25" type="line"/>
      <point x="201" y="25" type="line"/>
      <point x="201" y="-129" type="line"/>
    </contour>
    <contour>
      <point x="309" y="693" type="line"/>
      <point x="309" y="847" type="line"/>
      <point x="201" y="847" type="line"/>
      <point x="201" y="693" type="line"/>
    </contour>
  </outline>
</glyph>
<glyph name="bracketright" format="1">
  <advance width="344"/>
  <unicode hex="005D"/>
  <outline>
    <contour>
      <point x="284" y="-129" type="line"/>
      <point x="284" y="847" type="line"/>
      <point x="108" y="847" type="line"/>
      <point x="108" y="-129" type="line"/>
    </contour>
    <contour>
      <point x="143" y="-129" type="line"/>
      <point x="143" y="25" type="line"/>
      <point x="35" y="25" type="line"/>
      <point x="35" y="-129" type="line"/>
    </contour>
    <contour>
      <point x="143" y="693" type="line"/>
      <point x="143" y="847" type="line"/>
      <point x="30" y="847" type="line"/>
      <point x="30" y="693" type="line"/>
    </contour>
  </outline>
</glyph>
<glyph name="a" format="1">
  <advance width="618"/>
  <unicode hex="0061"/>
  <outline>
    <contour>
      <point x="553" y="0" type="line"/>
      <point x="553" y="333" type="line" smooth="yes"/>
      <point x="553" y="465"/>
      <point x="522" y="566"/>
      <point x="290" y="566" type="curve" smooth="yes"/>
      <point x="161" y="566" type="line"/>
      <point x="161" y="416" type="line"/>
      <point x="275" y="416" type="line" smooth="yes"/>
      <point x="373" y="416"/>
      <point x="379" y="381"/>
      <point x="379" y="323" type="curve" smooth="yes"/>
      <point x="379" y="0" type="line"/>
    </contour>
    <contour>
      <point x="307" y="-13"/>
      <point x="361" y="16"/>
      <point x="434" y="105" type="curve"/>
      <point x="433" y="219" type="line"/>
      <point x="374" y="154"/>
      <point x="321" y="121"/>
      <point x="272" y="121" type="curve" smooth="yes"/>
      <point x="233" y="121"/>
      <point x="206" y="134"/>
      <point x="206" y="180" type="curve" smooth="yes"/>
      <point x="206" y="225"/>
      <point x="237" y="243"/>
      <point x="282" y="243" type="curve" smooth="yes"/>
      <point x="337" y="243"/>
      <point x="382" y="223"/>
      <point x="430" y="189" type="curve"/>
      <point x="436" y="297" type="line"/>
      <point x="382" y="347"/>
      <point x="320" y="367"/>
      <point x="240" y="367" type="curve" smooth="yes"/>
      <point x="109" y="367"/>
      <point x="30" y="300"/>
      <point x="30" y="178" type="curve" smooth="yes"/>
      <point x="30" y="57"/>
      <point x="108" y="-13"/>
      <point x="235" y="-13" type="curve" smooth="yes"/>
    </contour>
    <contour>
      <point x="485" y="0" type="move" name="ogonek"/>
    </contour>
    <contour>
      <point x="295" y="600" type="move" name="accent"/>
    </contour>
  </outline>
</glyph>
<glyph name="b" format="1">
  <advance width="691"/>
  <unicode hex="0062"/>
  <outline>
    <contour>
      <point x="545" y="-17"/>
      <point x="656" y="81"/>
      <point x="656" y="283" type="curve"/>
      <point x="656" y="483"/>
      <point x="545" y="582"/>
      <point x="396" y="582" type="curve" smooth="yes"/>
      <point x="299" y="582"/>
      <point x="223" y="523"/>
      <point x="156" y="440" type="curve"/>
      <point x="156" y="306" type="line"/>
      <point x="214" y="370"/>
      <point x="279" y="428"/>
      <point x="358" y="428" type="curve" smooth="yes"/>
      <point x="435" y="428"/>
      <point x="475" y="377"/>
      <point x="475" y="283" type="curve"/>
      <point x="475" y="187"/>
      <point x="435" y="137"/>
      <point x="358" y="137" type="curve" smooth="yes"/>
      <point x="279" y="137"/>
      <point x="214" y="195"/>
      <point x="156" y="259" type="curve"/>
      <point x="156" y="125" type="line"/>
      <point x="223" y="42"/>
      <point x="299" y="-17"/>
      <point x="396" y="-17" type="curve" smooth="yes"/>
    </contour>
    <contour>
      <point x="244" y="0" type="line"/>
      <point x="244" y="846" type="line"/>
      <point x="70" y="846" type="line"/>
      <point x="70" y="0" type="line"/>
    </contour>
  </outline>
</glyph>
<glyph name="c" format="1">
  <advance width="546"/>
  <unicode hex="0063"/>
  <outline>
    <contour>
      <point x="393" y="-17"/>
      <point x="459" y="-2"/>
      <point x="526" y="38" type="curve"/>
      <point x="477" y="182" type="line"/>
      <point x="430" y="152"/>
      <point x="387" y="137"/>
      <point x="338" y="137" type="curve" smooth="yes"/>
      <point x="250" y="137"/>
      <point x="216" y="193"/>
      <point x="216" y="285" type="curve"/>
      <point x="216" y="374"/>
      <point x="250" y="427"/>
      <point x="343" y="428" type="curve"/>
      <point x="393" y="428"/>
      <point x="434" y="421"/>
      <point x="485" y="396" type="curve"/>
      <point x="485" y="554" type="line"/>
      <point x="433" y="575"/>
      <point x="391" y="582"/>
      <point x="323" y="582" type="curve"/>
      <point x="134" y="581"/>
      <point x="35" y="471"/>
      <point x="35" y="284" type="curve"/>
      <point x="35" y="96"/>
      <point x="134" y="-16"/>
      <point x="323" y="-17" type="curve" smooth="yes"/>
    </contour>
    <contour>
      <point x="319" y="0" type="move" name="bottomaccent"/>
    </contour>
    <contour>
      <point x="312" y="600" type="move" name="accent"/>
    </contour>
  </outline>
</glyph>
<glyph name="d" format="1">
  <advance width="691"/>
  <unicode hex="0064"/>
  <outline>
    <contour>
      <point x="392" y="-17"/>
      <point x="468" y="42"/>
      <point x="535" y="125" type="curve"/>
      <point x="535" y="259" type="line"/>
      <point x="477" y="195"/>
      <point x="412" y="137"/>
      <point x="333" y="137" type="curve" smooth="yes"/>
      <point x="256" y="137"/>
      <point x="216" y="187"/>
      <point x="216" y="283" type="curve"/>
      <point x="216" y="377"/>
      <point x="256" y="428"/>
      <point x="333" y="428" type="curve" smooth="yes"/>
      <point x="412" y="428"/>
      <point x="477" y="370"/>
      <point x="535" y="306" type="curve"/>
      <point x="535" y="440" type="line"/>
      <point x="468" y="523"/>
      <point x="392" y="582"/>
      <point x="295" y="582" type="curve" smooth="yes"/>
      <point x="146" y="582"/>
      <point x="35" y="483"/>
      <point x="35" y="283" type="curve"/>
      <point x="35" y="81"/>
      <point x="146" y="-17"/>
      <point x="295" y="-17" type="curve" smooth="yes"/>
    </contour>
    <contour>
      <point x="621" y="0" type="line"/>
      <point x="621" y="846" type="line"/>
      <point x="447" y="846" type="line"/>
      <point x="447" y="0" type="line"/>
    </contour>
    <contour>
      <point x="641" y="556" type="move" name="slovak"/>
    </contour>
  </outline>
</glyph>
<glyph name="e" format="1">
  <advance width="610"/>
  <unicode hex="0065"/>
  <outline>
    <contour>
      <point x="436" y="-17"/>
      <point x="499" y="-5"/>
      <point x="570" y="35" type="curve"/>
      <point x="525" y="169" type="line"/>
      <point x="464" y="139"/>
      <point x="421" y="127"/>
      <point x="369" y="127" type="curve"/>
      <point x="246" y="127"/>
      <point x="216" y="200"/>
      <point x="216" y="285" type="curve" smooth="yes"/>
      <point x="216" y="404"/>
      <point x="254" y="438"/>
      <point x="313" y="438" type="curve" smooth="yes"/>
      <point x="372" y="438"/>
      <point x="399" y="406"/>
      <point x="399" y="328" type="curve" smooth="yes"/>
      <point x="399" y="229" type="line"/>
      <point x="580" y="229" type="line"/>
      <point x="580" y="298" type="line" smooth="yes"/>
      <point x="580" y="488"/>
      <point x="475" y="582"/>
      <point x="313" y="582" type="curve" smooth="yes"/>
      <point x="160" y="582"/>
      <point x="35" y="479"/>
      <point x="35" y="284" type="curve" smooth="yes"/>
      <point x="35" y="106"/>
      <point x="143" y="-17"/>
      <point x="345" y="-17" type="curve"/>
    </contour>
    <contour>
      <point x="475" y="229" type="line"/>
      <point x="475" y="358" type="line"/>
      <point x="136" y="358" type="line"/>
      <point x="136" y="229" type="line"/>
    </contour>
    <contour>
      <point x="417" y="0" type="move" name="ogonek"/>
    </contour>
    <contour>
      <point x="315" y="600" type="move" name="accent"/>
    </contour>
  </outline>
</glyph>
<glyph name="f" format="1">
  <advance width="407"/>
  <unicode hex="0066"/>
  <outline>
    <contour>
      <point x="272" y="0" type="line"/>
      <point x="272" y="645" type="line" smooth="yes"/>
      <point x="272" y="689"/>
      <point x="284" y="705"/>
      <point x="323" y="705" type="curve" smooth="yes"/>
      <point x="348" y="705"/>
      <point x="366" y="702"/>
      <point x="382" y="697" type="curve"/>
      <point x="382" y="845" type="line"/>
      <point x="344" y="853"/>
      <point x="313" y="859"/>
      <point x="274" y="859" type="curve" smooth="yes"/>
      <point x="153" y="859"/>
      <point x="98" y="803"/>
      <point x="98" y="708" type="curve" smooth="yes"/>
      <point x="98" y="0" type="line"/>
    </contour>
    <contour>
      <point x="382" y="412" type="line"/>
      <point x="382" y="566" type="line"/>
      <point x="30" y="566" type="line"/>
      <point x="30" y="412" type="line"/>
    </contour>
  </outline>
</glyph>
<glyph name="g" format="1">
  <advance width="686"/>
  <unicode hex="0067"/>
  <outline>
    <contour>
      <point x="524" y="-251"/>
      <point x="616" y="-141"/>
      <point x="616" y="2" type="curve" smooth="yes"/>
      <point x="616" y="566" type="line"/>
      <point x="442" y="566" type="line"/>
      <point x="442" y="12" type="line" smooth="yes"/>
      <point x="442" y="-57"/>
      <point x="401" y="-97"/>
      <point x="298" y="-97" type="curve" smooth="yes"/>
      <point x="249" y="-97"/>
      <point x="171" y="-87"/>
      <point x="94" y="-55" type="curve"/>
      <point x="94" y="-215" type="line"/>
      <point x="169" y="-243"/>
      <point x="251" y="-251"/>
      <point x="353" y="-251" type="curve" smooth="yes"/>
    </contour>
    <contour>
      <point x="387" y="3"/>
      <point x="463" y="62"/>
      <point x="530" y="145" type="curve"/>
      <point x="530" y="279" type="line"/>
      <point x="472" y="215"/>
      <point x="407" y="157"/>
      <point x="328" y="157" type="curve" smooth="yes"/>
      <point x="251" y="157"/>
      <point x="211" y="189"/>
      <point x="211" y="293" type="curve"/>
      <point x="211" y="381"/>
      <point x="251" y="428"/>
      <point x="328" y="428" type="curve" smooth="yes"/>
      <point x="407" y="428"/>
      <point x="472" y="370"/>
      <point x="530" y="306" type="curve"/>
      <point x="530" y="440" type="line"/>
      <point x="463" y="523"/>
      <point x="387" y="582"/>
      <point x="290" y="582" type="curve" smooth="yes"/>
      <point x="141" y="582"/>
      <point x="30" y="486"/>
      <point x="30" y="293" type="curve"/>
      <point x="30" y="84"/>
      <point x="141" y="3"/>
      <point x="290" y="3" type="curve" smooth="yes"/>
    </contour>
    <contour>
      <point x="343" y="600" type="move" name="accent"/>
    </contour>
  </outline>
</glyph>
<glyph name="h" format="1">
  <advance width="692"/>
  <unicode hex="0068"/>
  <outline>
    <contour>
      <point x="627" y="0" type="line"/>
      <point x="627" y="340" type="line" smooth="yes"/>
      <point x="627" y="508"/>
      <point x="550" y="578"/>
      <point x="402" y="578" type="curve" smooth="yes"/>
      <point x="308" y="578"/>
      <point x="239" y="533"/>
      <point x="156" y="431" type="curve"/>
      <point x="156" y="287" type="line"/>
      <point x="227" y="370"/>
      <point x="289" y="424"/>
      <point x="363" y="424" type="curve" smooth="yes"/>
      <point x="431" y="424"/>
      <point x="453" y="391"/>
      <point x="453" y="340" type="curve" smooth="yes"/>
      <point x="453" y="0" type="line"/>
    </contour>
    <contour>
      <point x="244" y="0" type="line"/>
      <point x="244" y="846" type="line"/>
      <point x="70" y="846" type="line"/>
      <point x="70" y="0" type="line"/>
    </contour>
    <contour>
      <point x="155" y="900" type="move" name="accent"/>
    </contour>
  </outline>
</glyph>
<glyph name="k" format="1">
  <advance width="657"/>
  <unicode hex="006B"/>
  <outline>
    <contour>
      <point x="629" y="546" type="line"/>
      <point x="421" y="546" type="line"/>
      <point x="101" y="205" type="line"/>
      <point x="191" y="84" type="line"/>
    </contour>
    <contour>
      <point x="647" y="0" type="line"/>
      <point x="379" y="340" type="line"/>
      <point x="200" y="303" type="line"/>
      <point x="439" y="0" type="line"/>
    </contour>
    <contour>
      <point x="244" y="0" type="line"/>
      <point x="244" y="846" type="line"/>
      <point x="70" y="846" type="line"/>
      <point x="70" y="0" type="line"/>
    </contour>
    <contour>
      <point x="329" y="0" type="move" name="bottomaccent"/>
    </contour>
  </outline>
</glyph>
<glyph name="l" format="1">
  <advance width="379"/>
  <unicode hex="006C"/>
  <outline>
    <contour>
      <point x="285" y="-13"/>
      <point x="316" y="-7"/>
      <point x="354" y="1" type="curve"/>
      <point x="354" y="149" type="line"/>
      <point x="338" y="144"/>
      <point x="320" y="141"/>
      <point x="295" y="141" type="curve" smooth="yes"/>
      <point x="256" y="141"/>
      <point x="244" y="157"/>
      <point x="244" y="201" type="curve" smooth="yes"/>
      <point x="244" y="846" type="line"/>
      <point x="70" y="846" type="line"/>
      <point x="70" y="138" type="line" smooth="yes"/>
      <point x="70" y="43"/>
      <point x="125" y="-13"/>
      <point x="246" y="-13" type="curve" smooth="yes"/>
    </contour>
    <contour>
      <point x="264" y="556" type="move" name="slovak"/>
    </contour>
    <contour>
      <point x="227" y="0" type="move" name="bottomaccent"/>
    </contour>
    <contour>
      <point x="155" y="900" type="move" name="accent"/>
    </contour>
  </outline>
</glyph>
<glyph name="m" format="1">
  <advance width="1035"/>
  <unicode hex="006D"/>
  <outline>
    <contour>
      <point x="970" y="0" type="line"/>
      <point x="970" y="340" type="line" smooth="yes"/>
      <point x="970" y="508"/>
      <point x="897" y="578"/>
      <point x="755" y="578" type="curve" smooth="yes"/>
      <point x="665" y="578"/>
      <point x="601" y="531"/>
      <point x="519" y="431" type="curve"/>
      <point x="519" y="287" type="line"/>
      <point x="589" y="368"/>
      <point x="646" y="424"/>
      <point x="716" y="424" type="curve" smooth="yes"/>
      <point x="777" y="424"/>
      <point x="796" y="391"/>
      <point x="796" y="340" type="curve" smooth="yes"/>
      <point x="796" y="0" type="line"/>
    </contour>
    <contour>
      <point x="244" y="0" type="line"/>
      <point x="244" y="566" type="line"/>
      <point x="70" y="566" type="line"/>
      <point x="70" y="0" type="line"/>
    </contour>
    <contour>
      <point x="607" y="0" type="line"/>
      <point x="607" y="340" type="line" smooth="yes"/>
      <point x="607" y="508"/>
      <point x="534" y="578"/>
      <point x="392" y="578" type="curve" smooth="yes"/>
      <point x="302" y="578"/>
      <point x="238" y="531"/>
      <point x="156" y="431" type="curve"/>
      <point x="156" y="287" type="line"/>
      <point x="226" y="368"/>
      <point x="283" y="424"/>
      <point x="353" y="424" type="curve" smooth="yes"/>
      <point x="414" y="424"/>
      <point x="433" y="391"/>
      <point x="433" y="340" type="curve" smooth="yes"/>
      <point x="433" y="0" type="line"/>
    </contour>
  </outline>
</glyph>
<glyph name="n" format="1">
  <advance width="692"/>
  <unicode hex="006E"/>
  <outline>
    <contour>
      <point x="627" y="0" type="line"/>
      <point x="627" y="340" type="line" smooth="yes"/>
      <point x="627" y="508"/>
      <point x="550" y="578"/>
      <point x="402" y="578" type="curve" smooth="yes"/>
      <point x="308" y="578"/>
      <point x="239" y="533"/>
      <point x="156" y="431" type="curve"/>
      <point x="156" y="287" type="line"/>
      <point x="227" y="370"/>
      <point x="289" y="424"/>
      <point x="363" y="424" type="curve" smooth="yes"/>
      <point x="431" y="424"/>
      <point x="453" y="391"/>
      <point x="453" y="340" type="curve" smooth="yes"/>
      <point x="453" y="0" type="line"/>
    </contour>
    <contour>
      <point x="244" y="0" type="line"/>
      <point x="244" y="566" type="line"/>
      <point x="70" y="566" type="line"/>
      <point x="70" y="0" type="line"/>
    </contour>
    <contour>
      <point x="356" y="0" type="move" name="bottomaccent"/>
    </contour>
    <contour>
      <point x="356" y="600" type="move" name="accent"/>
    </contour>
  </outline>
</glyph>
<glyph name="o" format="1">
  <advance width="674"/>
  <unicode hex="006F"/>
  <outline>
    <contour>
      <point x="539" y="-17"/>
      <point x="639" y="116"/>
      <point x="639" y="283" type="curve" smooth="yes"/>
      <point x="639" y="448"/>
      <point x="539" y="582"/>
      <point x="338" y="582" type="curve" smooth="yes"/>
      <point x="136" y="582"/>
      <point x="35" y="448"/>
      <point x="35" y="283" type="curve" smooth="yes"/>
      <point x="35" y="116"/>
      <point x="136" y="-17"/>
      <point x="338" y="-17" type="curve" smooth="yes"/>
    </contour>
    <contour>
      <point x="258" y="131"/>
      <point x="216" y="185"/>
      <point x="216" y="283" type="curve" smooth="yes"/>
      <point x="216" y="380"/>
      <point x="258" y="434"/>
      <point x="338" y="434" type="curve" smooth="yes"/>
      <point x="417" y="434"/>
      <point x="458" y="380"/>
      <point x="458" y="283" type="curve" smooth="yes"/>
      <point x="458" y="185"/>
      <point x="417" y="131"/>
      <point x="338" y="131" type="curve" smooth="yes"/>
    </contour>
    <contour>
      <point x="337" y="0" type="move" name="bottomaccent"/>
    </contour>
    <contour>
      <point x="337" y="600" type="move" name="accent"/>
    </contour>
  </outline>
</glyph>
<glyph name="q" format="1">
  <advance width="691"/>
  <unicode hex="0071"/>
  <outline>
    <contour>
      <point x="392" y="-17"/>
      <point x="468" y="42"/>
      <point x="535" y="125" type="curve"/>
      <point x="535" y="259" type="line"/>
      <point x="477" y="195"/>
      <point x="412" y="137"/>
      <point x="333" y="137" type="curve" smooth="yes"/>
      <point x="256" y="137"/>
      <point x="216" y="187"/>
      <point x="216" y="283" type="curve"/>
      <point x="216" y="377"/>
      <point x="256" y="428"/>
      <point x="333" y="428" type="curve" smooth="yes"/>
      <point x="412" y="428"/>
      <point x="477" y="370"/>
      <point x="535" y="306" type="curve"/>
      <point x="535" y="440" type="line"/>
      <point x="468" y="523"/>
      <point x="392" y="582"/>
      <point x="295" y="582" type="curve" smooth="yes"/>
      <point x="146" y="582"/>
      <point x="35" y="483"/>
      <point x="35" y="283" type="curve"/>
      <point x="35" y="81"/>
      <point x="146" y="-17"/>
      <point x="295" y="-17" type="curve" smooth="yes"/>
    </contour>
    <contour>
      <point x="621" y="-234" type="line"/>
      <point x="621" y="566" type="line"/>
      <point x="447" y="566" type="line"/>
      <point x="447" y="-234" type="line"/>
    </contour>
  </outline>
</glyph>
<glyph name="r" format="1">
  <advance width="451"/>
  <unicode hex="0072"/>
  <outline>
    <contour>
      <point x="221" y="362"/>
      <point x="303" y="424"/>
      <point x="398" y="424" type="curve"/>
      <point x="421" y="424" type="line"/>
      <point x="421" y="578" type="line"/>
      <point x="398" y="578" type="line"/>
      <point x="308" y="578"/>
      <point x="238" y="525"/>
      <point x="156" y="421" type="curve"/>
      <point x="156" y="287" type="line"/>
    </contour>
    <contour>
      <point x="244" y="0" type="line"/>
      <point x="244" y="566" type="line"/>
      <point x="70" y="566" type="line"/>
      <point x="70" y="0" type="line"/>
    </contour>
    <contour>
      <point x="160" y="0" type="move" name="bottomaccent"/>
    </contour>
    <contour>
      <point x="234" y="600" type="move" name="accent"/>
    </contour>
  </outline>
</glyph>
<glyph name="s" format="1">
  <advance width="565"/>
  <unicode hex="0073"/>
  <outline>
    <contour>
      <point x="426" y="-17"/>
      <point x="525" y="42"/>
      <point x="525" y="176" type="curve" smooth="yes"/>
      <point x="525" y="287"/>
      <point x="473" y="334"/>
      <point x="359" y="357" type="curve" smooth="yes"/>
      <point x="262" y="377" type="line" smooth="yes"/>
      <point x="239" y="382"/>
      <point x="227" y="387"/>
      <point x="227" y="405" type="curve" smooth="yes"/>
      <point x="227" y="426"/>
      <point x="242" y="438"/>
      <point x="300" y="438" type="curve" smooth="yes"/>
      <point x="369" y="438"/>
      <point x="448" y="422"/>
      <point x="499" y="398" type="curve"/>
      <point x="499" y="546" type="line"/>
      <point x="438" y="566"/>
      <point x="361" y="582"/>
      <point x="291" y="582" type="curve" smooth="yes"/>
      <point x="130" y="582"/>
      <point x="51" y="521"/>
      <point x="51" y="393" type="curve" smooth="yes"/>
      <point x="51" y="298"/>
      <point x="101" y="246"/>
      <point x="214" y="223" type="curve" smooth="yes"/>
      <point x="311" y="203" type="line" smooth="yes"/>
      <point x="338" y="197"/>
      <point x="349" y="187"/>
      <point x="349" y="166" type="curve"/>
      <point x="349" y="143"/>
      <point x="333" y="127"/>
      <point x="284" y="127" type="curve" smooth="yes"/>
      <point x="201" y="127"/>
      <point x="124" y="142"/>
      <point x="45" y="187" type="curve"/>
      <point x="45" y="34" type="line"/>
      <point x="125" y="-4"/>
      <point x="190" y="-17"/>
      <point x="284" y="-17" type="curve" smooth="yes"/>
    </contour>
    <contour>
      <point x="283" y="0" type="move" name="bottomaccent"/>
    </contour>
    <contour>
      <point x="293" y="600" type="move" name="accent"/>
    </contour>
  </outline>
</glyph>
<glyph name="t" format="1">
  <advance width="440"/>
  <unicode hex="0074"/>
  <outline>
    <contour>
      <point x="323" y="-13"/>
      <point x="354" y="-7"/>
      <point x="392" y="1" type="curve"/>
      <point x="392" y="149" type="line"/>
      <point x="376" y="144"/>
      <point x="358" y="141"/>
      <point x="333" y="141" type="curve" smooth="yes"/>
      <point x="294" y="141"/>
      <point x="282" y="157"/>
      <point x="282" y="201" type="curve" smooth="yes"/>
      <point x="282" y="736" type="line"/>
      <point x="108" y="736" type="line"/>
      <point x="108" y="138" type="line" smooth="yes"/>
      <point x="108" y="43"/>
      <point x="163" y="-13"/>
      <point x="284" y="-13" type="curve" smooth="yes"/>
    </contour>
    <contour>
      <point x="410" y="392" type="line"/>
      <point x="410" y="546" type="line"/>
      <point x="30" y="546" type="line"/>
      <point x="30" y="392" type="line"/>
    </contour>
    <contour>
      <point x="263" y="0" type="move" name="bottomaccent"/>
    </contour>
    <contour>
      <point x="282" y="606" type="move" name="slovak"/>
    </contour>
  </outline>
</glyph>
<glyph name="u" format="1">
  <advance width="692"/>
  <unicode hex="0075"/>
  <outline>
    <contour>
      <point x="384" y="-12"/>
      <point x="453" y="33"/>
      <point x="536" y="135" type="curve"/>
      <point x="536" y="279" type="line"/>
      <point x="465" y="196"/>
      <point x="403" y="142"/>
      <point x="329" y="142" type="curve" smooth="yes"/>
      <point x="261" y="142"/>
      <point x="239" y="175"/>
      <point x="239" y="226" type="curve" smooth="yes"/>
      <point x="239" y="566" type="line"/>
      <point x="65" y="566" type="line"/>
      <point x="65" y="226" type="line" smooth="yes"/>
      <point x="65" y="58"/>
      <point x="142" y="-12"/>
      <point x="290" y="-12" type="curve" smooth="yes"/>
    </contour>
    <contour>
      <point x="622" y="0" type="line"/>
      <point x="622" y="566" type="line"/>
      <point x="448" y="566" type="line"/>
      <point x="448" y="0" type="line"/>
    </contour>
    <contour>
      <point x="554" y="0" type="move" name="bottomaccent"/>
    </contour>
    <contour>
      <point x="346" y="600" type="move" name="accent"/>
    </contour>
  </outline>
</glyph>
<glyph name="v" format="1">
  <advance width="635"/>
  <unicode hex="0076"/>
  <outline>
    <contour>
      <point x="432" y="-9" type="line"/>
      <point x="615" y="566" type="line"/>
      <point x="437" y="566" type="line"/>
      <point x="293" y="63" type="line"/>
      <point x="343" y="63" type="line"/>
      <point x="198" y="566" type="line"/>
      <point x="20" y="566" type="line"/>
      <point x="204" y="-9" type="line"/>
    </contour>
  </outline>
</glyph>
<glyph name="w" format="1">
  <advance width="962"/>
  <unicode hex="0077"/>
  <outline>
    <contour>
      <point x="789" y="-9" type="line"/>
      <point x="932" y="566" type="line"/>
      <point x="754" y="566" type="line"/>
      <point x="650" y="63" type="line"/>
      <point x="720" y="63" type="line"/>
      <point x="585" y="566" type="line"/>
      <point x="407" y="566" type="line"/>
      <point x="581" y="-9" type="line"/>
    </contour>
    <contour>
      <point x="382" y="-9" type="line"/>
      <point x="555" y="566" type="line"/>
      <point x="377" y="566" type="line"/>
      <point x="243" y="63" type="line"/>
      <point x="313" y="63" type="line"/>
      <point x="208" y="566" type="line"/>
      <point x="30" y="566" type="line"/>
      <point x="174" y="-9" type="line"/>
    </contour>
    <contour>
      <point x="481" y="600" type="move" name="accent"/>
    </contour>
  </outline>
</glyph>
<glyph name="x" format="1">
  <advance width="626"/>
  <unicode hex="0078"/>
  <outline>
    <contour>
      <point x="223" y="0" type="line" smooth="yes"/>
      <point x="375" y="265" type="line" smooth="yes"/>
      <point x="413" y="282" type="line" smooth="yes"/>
      <point x="597" y="566" type="line" smooth="yes"/>
      <point x="396" y="566" type="line" smooth="yes"/>
      <point x="254" y="329" type="line" smooth="yes"/>
      <point x="216" y="312" type="line" smooth="yes"/>
      <point x="20" y="0" type="line" smooth="yes"/>
    </contour>
    <contour>
      <point x="606" y="0" type="line" smooth="yes"/>
      <point x="398" y="315" type="line" smooth="yes"/>
      <point x="373" y="329" type="line" smooth="yes"/>
      <point x="233" y="566" type="line" smooth="yes"/>
      <point x="30" y="566" type="line" smooth="yes"/>
      <point x="214" y="282" type="line" smooth="yes"/>
      <point x="243" y="265" type="line" smooth="yes"/>
      <point x="403" y="0" type="line" smooth="yes"/>
    </contour>
  </outline>
</glyph>
<glyph name="y" format="1">
  <advance width="595"/>
  <unicode hex="0079"/>
  <outline>
    <contour>
      <point x="240" y="-251"/>
      <point x="306" y="-216"/>
      <point x="350" y="-89" type="curve" smooth="yes"/>
      <point x="575" y="566" type="line"/>
      <point x="407" y="566" type="line"/>
      <point x="204" y="-26" type="line" smooth="yes"/>
      <point x="183" y="-86"/>
      <point x="149" y="-97"/>
      <point x="100" y="-97" type="curve" smooth="yes"/>
      <point x="80" y="-97"/>
      <point x="56" y="-94"/>
      <point x="36" y="-88" type="curve"/>
      <point x="36" y="-236" type="line"/>
      <point x="62" y="-245"/>
      <point x="93" y="-251"/>
      <point x="132" y="-251" type="curve" smooth="yes"/>
    </contour>
    <contour>
      <point x="353" y="63" type="line"/>
      <point x="198" y="566" type="line"/>
      <point x="20" y="566" type="line"/>
      <point x="214" y="-9" type="line"/>
    </contour>
    <contour>
      <point x="298" y="600" type="move" name="accent"/>
    </contour>
  </outline>
</glyph>
<glyph name="z" format="1">
  <advance width="575"/>
  <unicode hex="007A"/>
  <outline>
    <contour>
      <point x="535" y="0" type="line"/>
      <point x="535" y="152" type="line"/>
      <point x="107" y="152" type="line"/>
      <point x="176" y="54" type="line"/>
      <point x="513" y="414" type="line"/>
      <point x="513" y="566" type="line"/>
      <point x="83" y="566" type="line"/>
      <point x="83" y="414" type="line"/>
      <point x="472" y="414" type="line"/>
      <point x="403" y="512" type="line"/>
      <point x="65" y="152" type="line"/>
      <point x="65" y="0" type="line"/>
    </contour>
    <contour>
      <point x="294" y="600" type="move" name="accent"/>
    </contour>
  </outline>
</glyph>
<glyph name="braceleft" format="1">
  <advance width="406"/>
  <unicode hex="007B"/>
  <outline>
    <contour>
      <point x="121" y="348" type="line"/>
      <point x="251" y="361"/>
      <point x="286" y="381"/>
      <point x="286" y="499" type="curve" smooth="yes"/>
      <point x="286" y="620" type="line" smooth="yes"/>
      <point x="286" y="677"/>
      <point x="296" y="693"/>
      <point x="330" y="693" type="curve" smooth="yes"/>
      <point x="345" y="693"/>
      <point x="361" y="692"/>
      <point x="376" y="689" type="curve"/>
      <point x="376" y="843" type="line"/>
      <point x="350" y="846"/>
      <point x="324" y="847"/>
      <point x="305" y="847" type="curve" smooth="yes"/>
      <point x="166" y="847"/>
      <point x="110" y="810"/>
      <point x="110" y="676" type="curve" smooth="yes"/>
      <point x="110" y="529" type="line" smooth="yes"/>
      <point x="110" y="452"/>
      <point x="100" y="436"/>
      <point x="66" y="436" type="curve" smooth="yes"/>
      <point x="35" y="436" type="line"/>
      <point x="35" y="348" type="line"/>
    </contour>
    <contour>
      <point x="324" y="-129"/>
      <point x="350" y="-128"/>
      <point x="376" y="-125" type="curve"/>
      <point x="376" y="29" type="line"/>
      <point x="361" y="26"/>
      <point x="345" y="25"/>
      <point x="330" y="25" type="curve" smooth="yes"/>
      <point x="296" y="25"/>
      <point x="286" y="41"/>
      <point x="286" y="98" type="curve" smooth="yes"/>
      <point x="286" y="219" type="line" smooth="yes"/>
      <point x="286" y="333"/>
      <point x="251" y="357"/>
      <point x="121" y="370" type="curve"/>
      <point x="35" y="370" type="line"/>
      <point x="35" y="282" type="line"/>
      <point x="66" y="282" type="line" smooth="yes"/>
      <point x="100" y="282"/>
      <point x="110" y="266"/>
      <point x="110" y="189" type="curve" smooth="yes"/>
      <point x="110" y="42" type="line" smooth="yes"/>
      <point x="110" y="-92"/>
      <point x="166" y="-129"/>
      <point x="305" y="-129" type="curve" smooth="yes"/>
    </contour>
  </outline>
</glyph>
<glyph name="bar" format="1">
  <advance width="336"/>
  <unicode hex="007C"/>
  <outline>
    <contour>
      <point x="256" y="-129" type="line"/>
      <point x="256" y="847" type="line"/>
      <point x="80" y="847" type="line"/>
      <point x="80" y="-129" type="line"/>
    </contour>
  </outline>
</glyph>
<glyph name="asciitilde" format="1">
  <advance width="550"/>
  <unicode hex="007E"/>
  <outline>
    <contour>
      <point x="422" y="253"/>
      <point x="465" y="284"/>
      <point x="518" y="339" type="curve"/>
      <point x="446" y="443" type="line"/>
      <point x="402" y="408"/>
      <point x="383" y="399"/>
      <point x="357" y="399" type="curve" smooth="yes"/>
      <point x="313" y="399"/>
      <point x="262" y="451"/>
      <point x="184" y="451" type="curve" smooth="yes"/>
      <point x="128" y="451"/>
      <point x="85" y="420"/>
      <point x="32" y="365" type="curve"/>
      <point x="104" y="261" type="line"/>
      <point x="148" y="296"/>
      <point x="167" y="305"/>
      <point x="193" y="305" type="curve" smooth="yes"/>
      <point x="237" y="305"/>
      <point x="288" y="253"/>
      <point x="366" y="253" type="curve" smooth="yes"/>
    </contour>
  </outline>
</glyph>
<glyph name="exclamdown" format="1">
  <advance width="284"/>
  <unicode hex="00A1"/>
  <outline>
    <contour>
      <point x="238" y="0" type="line"/>
      <point x="216" y="528" type="line"/>
      <point x="68" y="528" type="line"/>
      <point x="46" y="0" type="line"/>
    </contour>
    <contour>
      <point x="234" y="587" type="line"/>
      <point x="234" y="758" type="line"/>
      <point x="50" y="758" type="line"/>
      <point x="50" y="587" type="line"/>
    </contour>
  </outline>
</glyph>
<glyph name="cent" format="1">
  <advance width="550"/>
  <unicode hex="00A2"/>
  <outline>
    <contour>
      <point x="400" y="-17"/>
      <point x="471" y="-3"/>
      <point x="540" y="38" type="curve"/>
      <point x="491" y="182" type="line"/>
      <point x="442" y="150"/>
      <point x="395" y="137"/>
      <point x="342" y="137" type="curve" smooth="yes"/>
      <point x="247" y="137"/>
      <point x="210" y="189"/>
      <point x="210" y="275" type="curve"/>
      <point x="210" y="358"/>
      <point x="246" y="407"/>
      <point x="347" y="408" type="curve"/>
      <point x="401" y="408"/>
      <point x="445" y="402"/>
      <point x="499" y="376" type="curve"/>
      <point x="499" y="534" type="line"/>
      <point x="444" y="556"/>
      <point x="399" y="562"/>
      <point x="327" y="562" type="curve"/>
      <point x="132" y="561"/>
      <point x="29" y="454"/>
      <point x="29" y="274" type="curve"/>
      <point x="29" y="92"/>
      <point x="132" y="-16"/>
      <point x="327" y="-17" type="curve" smooth="yes"/>
    </contour>
    <contour>
      <point x="413" y="-96" type="line"/>
      <point x="413" y="641" type="line"/>
      <point x="267" y="641" type="line"/>
      <point x="267" y="-96" type="line"/>
    </contour>
  </outline>
</glyph>
<glyph name="sterling" format="1">
  <advance width="550"/>
  <unicode hex="00A3"/>
  <outline>
    <contour>
      <point x="306" y="0" type="line"/>
      <point x="306" y="471" type="line" smooth="yes"/>
      <point x="306" y="516"/>
      <point x="329" y="534"/>
      <point x="374" y="534" type="curve" smooth="yes"/>
      <point x="401" y="534"/>
      <point x="437" y="529"/>
      <point x="476" y="513" type="curve"/>
      <point x="476" y="670" type="line"/>
      <point x="456" y="677"/>
      <point x="402" y="688"/>
      <point x="345" y="688" type="curve" smooth="yes"/>
      <point x="175" y="688"/>
      <point x="132" y="611"/>
      <point x="132" y="467" type="curve" smooth="yes"/>
      <point x="132" y="0" type="line"/>
    </contour>
    <contour>
      <point x="522" y="0" type="line"/>
      <point x="522" y="154" type="line"/>
      <point x="37" y="154" type="line"/>
      <point x="37" y="0" type="line"/>
    </contour>
    <contour>
      <point x="428" y="274" type="line"/>
      <point x="428" y="428" type="line"/>
      <point x="67" y="428" type="line"/>
      <point x="67" y="274" type="line"/>
    </contour>
  </outline>
</glyph>
<glyph name="currency" format="1">
  <advance width="550"/>
  <unicode hex="00A4"/>
  <outline>
    <contour>
      <point x="196" y="166" type="line"/>
      <point x="219" y="157"/>
      <point x="244" y="151"/>
      <point x="272" y="151" type="curve"/>
      <point x="300" y="151"/>
      <point x="325" y="157"/>
      <point x="348" y="166" type="curve"/>
      <point x="412" y="102" type="line"/>
      <point x="504" y="195" type="line"/>
      <point x="441" y="259" type="line"/>
      <point x="451" y="283"/>
      <point x="457" y="309"/>
      <point x="457" y="336" type="curve"/>
      <point x="457" y="363"/>
      <point x="451" y="389"/>
      <point x="441" y="413" type="curve"/>
      <point x="504" y="477" type="line"/>
      <point x="412" y="570" type="line"/>
      <point x="348" y="506" type="line"/>
      <point x="325" y="515"/>
      <point x="300" y="521"/>
      <point x="272" y="521" type="curve"/>
      <point x="244" y="521"/>
      <point x="219" y="515"/>
      <point x="196" y="506" type="curve"/>
      <point x="132" y="570" type="line"/>
      <point x="40" y="477" type="line"/>
      <point x="103" y="413" type="line"/>
      <point x="93" y="389"/>
      <point x="87" y="363"/>
      <point x="87" y="336" type="curve"/>
      <point x="87" y="309"/>
      <point x="93" y="283"/>
      <point x="103" y="259" type="curve"/>
      <point x="40" y="195" type="line"/>
      <point x="132" y="102" type="line"/>
    </contour>
    <contour>
      <point x="233" y="259"/>
      <point x="201" y="294"/>
      <point x="201" y="336" type="curve"/>
      <point x="201" y="378"/>
      <point x="233" y="413"/>
      <point x="272" y="413" type="curve"/>
      <point x="311" y="413"/>
      <point x="343" y="378"/>
      <point x="343" y="336" type="curve"/>
      <point x="343" y="294"/>
      <point x="311" y="259"/>
      <point x="272" y="259" type="curve"/>
    </contour>
  </outline>
</glyph>
<glyph name="yen" format="1">
  <advance width="550"/>
  <unicode hex="00A5"/>
  <outline>
    <contour>
      <point x="359" y="286" type="line"/>
      <point x="550" y="674" type="line"/>
      <point x="380" y="674" type="line"/>
      <point x="217" y="328" type="line"/>
      <point x="333" y="328" type="line"/>
      <point x="171" y="674" type="line"/>
      <point x="1" y="674" type="line"/>
      <point x="191" y="286" type="line"/>
    </contour>
    <contour>
      <point x="510" y="98" type="line"/>
      <point x="510" y="222" type="line"/>
      <point x="40" y="222" type="line"/>
      <point x="40" y="98" type="line"/>
    </contour>
    <contour>
      <point x="363" y="0" type="line"/>
      <point x="363" y="339" type="line"/>
      <point x="187" y="339" type="line"/>
      <point x="187" y="0" type="line"/>
    </contour>
    <contour>
      <point x="510" y="257" type="line"/>
      <point x="510" y="381" type="line"/>
      <point x="40" y="381" type="line"/>
      <point x="40" y="257" type="line"/>
    </contour>
  </outline>
</glyph>
<glyph name="brokenbar" format="1">
  <advance width="336"/>
  <unicode hex="00A6"/>
  <outline>
    <contour>
      <point x="256" y="471" type="line"/>
      <point x="256" y="847" type="line"/>
      <point x="80" y="847" type="line"/>
      <point x="80" y="471" type="line"/>
    </contour>
    <contour>
      <point x="256" y="-129" type="line"/>
      <point x="256" y="247" type="line"/>
      <point x="80" y="247" type="line"/>
      <point x="80" y="-129" type="line"/>
    </contour>
  </outline>
</glyph>
<glyph name="section" format="1">
  <advance width="550"/>
  <unicode hex="00A7"/>
  <outline>
    <contour>
      <point x="400" y="-103"/>
      <point x="484" y="-43"/>
      <point x="484" y="67" type="curve" smooth="yes"/>
      <point x="484" y="168"/>
      <point x="423" y="206"/>
      <point x="348" y="227" type="curve" smooth="yes"/>
      <point x="247" y="255" type="line" smooth="yes"/>
      <point x="194" y="270"/>
      <point x="179" y="279"/>
      <point x="179" y="310" type="curve"/>
      <point x="179" y="347"/>
      <point x="220" y="369"/>
      <point x="287" y="376" type="curve"/>
      <point x="180" y="438" type="line"/>
      <point x="98" y="419"/>
      <point x="21" y="377"/>
      <point x="21" y="283" type="curve" smooth="yes"/>
      <point x="21" y="176"/>
      <point x="107" y="145"/>
      <point x="183" y="124" type="curve" smooth="yes"/>
      <point x="296" y="93" type="line" smooth="yes"/>
      <point x="315" y="88"/>
      <point x="326" y="81"/>
      <point x="326" y="66" type="curve" smooth="yes"/>
      <point x="326" y="49"/>
      <point x="309" y="39"/>
      <point x="267" y="39" type="curve" smooth="yes"/>
      <point x="201" y="39"/>
      <point x="141" y="48"/>
      <point x="85" y="74" type="curve"/>
      <point x="85" y="-74" type="line"/>
      <point x="143" y="-97"/>
      <point x="200" y="-103"/>
      <point x="267" y="-103" type="curve" smooth="yes"/>
    </contour>
    <contour>
      <point x="452" y="166"/>
      <point x="529" y="208"/>
      <point x="529" y="302" type="curve" smooth="yes"/>
      <point x="529" y="409"/>
      <point x="443" y="440"/>
      <point x="367" y="461" type="curve" smooth="yes"/>
      <point x="254" y="492" type="line" smooth="yes"/>
      <point x="235" y="497"/>
      <point x="224" y="504"/>
      <point x="224" y="519" type="curve" smooth="yes"/>
      <point x="224" y="536"/>
      <point x="241" y="546"/>
      <point x="283" y="546" type="curve" smooth="yes"/>
      <point x="349" y="546"/>
      <point x="409" y="537"/>
      <point x="465" y="511" type="curve"/>
      <point x="465" y="659" type="line"/>
      <point x="407" y="682"/>
      <point x="350" y="688"/>
      <point x="283" y="688" type="curve" smooth="yes"/>
      <point x="150" y="688"/>
      <point x="66" y="628"/>
      <point x="66" y="518" type="curve" smooth="yes"/>
      <point x="66" y="417"/>
      <point x="127" y="379"/>
      <point x="202" y="358" type="curve" smooth="yes"/>
      <point x="303" y="330" type="line" smooth="yes"/>
      <point x="356" y="315"/>
      <point x="371" y="306"/>
      <point x="371" y="275" type="curve"/>
      <point x="371" y="238"/>
      <point x="330" y="216"/>
      <point x="263" y="209" type="curve"/>
      <point x="370" y="147" type="line"/>
    </contour>
  </outline>
</glyph>
<glyph name="dieresis" format="1">
  <advance width="650"/>
  <unicode hex="00A8"/>
  <outline>
    <contour>
      <point x="512" y="656" type="line"/>
      <point x="512" y="807" type="line"/>
      <point x="358" y="807" type="line"/>
      <point x="358" y="656" type="line"/>
    </contour>
    <contour>
      <point x="292" y="656" type="line"/>
      <point x="292" y="807" type="line"/>
      <point x="138" y="807" type="line"/>
      <point x="138" y="656" type="line"/>
    </contour>
    <contour>
      <point x="323" y="600" type="move" name="_accent"/>
    </contour>
  </outline>
</glyph>
<glyph name="copyright" format="1">
  <advance width="935"/>
  <unicode hex="00A9"/>
  <outline>
    <contour>
      <point x="686" y="-17"/>
      <point x="868" y="150"/>
      <point x="868" y="378" type="curve" smooth="yes"/>
      <point x="868" y="593"/>
      <point x="686" y="772"/>
      <point x="468" y="772" type="curve" smooth="yes"/>
      <point x="246" y="772"/>
      <point x="67" y="593"/>
      <point x="67" y="378" type="curve" smooth="yes"/>
      <point x="67" y="150"/>
      <point x="246" y="-17"/>
      <point x="468" y="-17" type="curve" smooth="yes"/>
    </contour>
    <contour>
      <point x="530" y="155"/>
      <point x="581" y="166"/>
      <point x="626" y="190" type="curve"/>
      <point x="606" y="306" type="line"/>
      <point x="568" y="290"/>
      <point x="531" y="278"/>
      <point x="488" y="278" type="curve"/>
      <point x="422" y="278"/>
      <point x="386" y="315"/>
      <point x="385" y="378" type="curve" smooth="yes"/>
      <point x="384" y="434"/>
      <point x="422" y="478"/>
      <point x="488" y="478" type="curve"/>
      <point x="523" y="478"/>
      <point x="558" y="472"/>
      <point x="592" y="454" type="curve"/>
      <point x="592" y="580" type="line"/>
      <point x="558" y="594"/>
      <point x="530" y="600"/>
      <point x="488" y="600" type="curve"/>
      <point x="321" y="600"/>
      <point x="247" y="500"/>
      <point x="247" y="378" type="curve" smooth="yes"/>
      <point x="247" y="256"/>
      <point x="327" y="155"/>
      <point x="488" y="155" type="curve"/>
    </contour>
    <contour>
      <point x="315" y="95"/>
      <point x="190" y="215"/>
      <point x="190" y="378" type="curve" smooth="yes"/>
      <point x="190" y="532"/>
      <point x="315" y="660"/>
      <point x="468" y="660" type="curve" smooth="yes"/>
      <point x="616" y="660"/>
      <point x="746" y="532"/>
      <point x="745" y="378" type="curve" smooth="yes"/>
      <point x="744" y="215"/>
      <point x="616" y="95"/>
      <point x="468" y="95" type="curve" smooth="yes"/>
    </contour>
  </outline>
</glyph>
<glyph name="ordfeminine" format="1">
  <advance width="397"/>
  <unicode hex="00AA"/>
  <outline>
    <contour>
      <point x="372" y="284" type="line"/>
      <point x="372" y="508" type="line" smooth="yes"/>
      <point x="372" y="619"/>
      <point x="349" y="704"/>
      <point x="193" y="704" type="curve" smooth="yes"/>
      <point x="96" y="704" type="line"/>
      <point x="96" y="586" type="line"/>
      <point x="182" y="586" type="line" smooth="yes"/>
      <point x="246" y="586"/>
      <point x="250" y="553"/>
      <point x="250" y="501" type="curve" smooth="yes"/>
      <point x="250" y="284" type="line"/>
    </contour>
    <contour>
      <point x="204" y="275"/>
      <point x="253" y="296"/>
      <point x="303" y="365" type="curve"/>
      <point x="302" y="437" type="line"/>
      <point x="261" y="392"/>
      <point x="210" y="377"/>
      <point x="185" y="377" type="curve" smooth="yes"/>
      <point x="161" y="377"/>
      <point x="140" y="386"/>
      <point x="140" y="411" type="curve" smooth="yes"/>
      <point x="140" y="442"/>
      <point x="162" y="450"/>
      <point x="186" y="450" type="curve" smooth="yes"/>
      <point x="217" y="450"/>
      <point x="261" y="445"/>
      <point x="300" y="419" type="curve"/>
      <point x="305" y="496" type="line"/>
      <point x="259" y="535"/>
      <point x="210" y="552"/>
      <point x="150" y="552" type="curve" smooth="yes"/>
      <point x="60" y="552"/>
      <point x="6" y="500"/>
      <point x="6" y="408" type="curve" smooth="yes"/>
      <point x="6" y="323"/>
      <point x="67" y="275"/>
      <point x="148" y="275" type="curve" smooth="yes"/>
    </contour>
  </outline>
</glyph>
<glyph name="logicalnot" format="1">
  <advance width="550"/>
  <unicode hex="00AC"/>
  <outline>
    <contour>
      <point x="483" y="260" type="line"/>
      <point x="483" y="414" type="line"/>
      <point x="67" y="414" type="line"/>
      <point x="67" y="260" type="line"/>
    </contour>
    <contour>
      <point x="483" y="129" type="line"/>
      <point x="483" y="345" type="line"/>
      <point x="327" y="345" type="line"/>
      <point x="327" y="129" type="line"/>
    </contour>
  </outline>
</glyph>
<glyph name="registered" format="1">
  <advance width="721"/>
  <unicode hex="00AE"/>
  <outline>
    <contour>
      <point x="519" y="196"/>
      <point x="650" y="317"/>
      <point x="650" y="483" type="curve" smooth="yes"/>
      <point x="650" y="638"/>
      <point x="519" y="769"/>
      <point x="361" y="769" type="curve"/>
      <point x="200" y="769"/>
      <point x="71" y="638"/>
      <point x="71" y="483" type="curve" smooth="yes"/>
      <point x="71" y="317"/>
      <point x="200" y="196"/>
      <point x="361" y="196" type="curve" smooth="yes"/>
    </contour>
    <contour>
      <point x="319" y="338" type="line" smooth="yes"/>
      <point x="319" y="628" type="line" smooth="yes"/>
      <point x="232" y="628" type="line" smooth="yes"/>
      <point x="232" y="338" type="line" smooth="yes"/>
    </contour>
    <contour>
      <point x="494" y="338" type="line" smooth="yes"/>
      <point x="401" y="486" type="line" smooth="yes"/>
      <point x="312" y="475" type="line" smooth="yes"/>
      <point x="395" y="338" type="line" smooth="yes"/>
    </contour>
    <contour>
      <point x="250" y="283"/>
      <point x="160" y="367"/>
      <point x="160" y="483" type="curve" smooth="yes"/>
      <point x="160" y="591"/>
      <point x="250" y="682"/>
      <point x="361" y="682" type="curve" smooth="yes"/>
      <point x="468" y="682"/>
      <point x="562" y="591"/>
      <point x="561" y="483" type="curve" smooth="yes"/>
      <point x="560" y="367"/>
      <point x="468" y="283"/>
      <point x="361" y="283" type="curve" smooth="yes"/>
    </contour>
    <contour>
      <point x="359" y="424" type="line" smooth="yes"/>
      <point x="432" y="424"/>
      <point x="480" y="456"/>
      <point x="480" y="527" type="curve" smooth="yes"/>
      <point x="480" y="599"/>
      <point x="432" y="628"/>
      <point x="359" y="628" type="curve" smooth="yes"/>
      <point x="280" y="628" type="line" smooth="yes"/>
      <point x="280" y="555" type="line" smooth="yes"/>
      <point x="340" y="555" type="line" smooth="yes"/>
      <point x="379" y="555"/>
      <point x="391" y="547"/>
      <point x="391" y="527" type="curve" smooth="yes"/>
      <point x="391" y="504"/>
      <point x="379" y="497"/>
      <point x="340" y="497" type="curve" smooth="yes"/>
      <point x="280" y="497" type="line" smooth="yes"/>
      <point x="280" y="424" type="line" smooth="yes"/>
    </contour>
  </outline>
</glyph>
<glyph name="macron" format="1">
  <advance width="649"/>
  <unicode hex="00AF"/>
  <outline>
    <contour>
      <point x="479" y="679" type="line"/>
      <point x="479" y="787" type="line"/>
      <point x="170" y="787" type="line"/>
      <point x="170" y="679" type="line"/>
    </contour>
    <contour>
      <point x="325" y="600" type="move" name="_accent"/>
    </contour>
  </outline>
</glyph>
<glyph name="degree" format="1">
  <advance width="473"/>
  <unicode hex="00B0"/>
  <outline>
    <contour>
      <point x="353" y="289"/>
      <point x="446" y="383"/>
      <point x="446" y="499" type="curve" smooth="yes"/>
      <point x="446" y="615"/>
      <point x="353" y="708"/>
      <point x="237" y="708" type="curve" smooth="yes"/>
      <point x="121" y="708"/>
      <point x="27" y="615"/>
      <point x="27" y="499" type="curve" smooth="yes"/>
      <point x="27" y="383"/>
      <point x="121" y="289"/>
      <point x="237" y="289" type="curve" smooth="yes"/>
    </contour>
    <contour>
      <point x="195" y="421"/>
      <point x="165" y="456"/>
      <point x="165" y="499" type="curve" smooth="yes"/>
      <point x="165" y="542"/>
      <point x="195" y="576"/>
      <point x="237" y="576" type="curve" smooth="yes"/>
      <point x="279" y="576"/>
      <point x="308" y="542"/>
      <point x="308" y="499" type="curve" smooth="yes"/>
      <point x="308" y="456"/>
      <point x="279" y="421"/>
      <point x="237" y="421" type="curve" smooth="yes"/>
    </contour>
  </outline>
</glyph>
<glyph name="uni00B2" format="1">
  <advance width="390"/>
  <unicode hex="00B2"/>
  <outline>
    <contour>
      <point x="381" y="131" type="line"/>
      <point x="381" y="235" type="line"/>
      <point x="187" y="235" type="line"/>
      <point x="305" y="351"/>
      <point x="367" y="430"/>
      <point x="367" y="518" type="curve" smooth="yes"/>
      <point x="367" y="626"/>
      <point x="294" y="683"/>
      <point x="186" y="683" type="curve" smooth="yes"/>
      <point x="145" y="683"/>
      <point x="106" y="676"/>
      <point x="61" y="656" type="curve"/>
      <point x="61" y="551" type="line"/>
      <point x="99" y="570"/>
      <point x="142" y="581"/>
      <point x="183" y="581" type="curve" smooth="yes"/>
      <point x="228" y="581"/>
      <point x="251" y="558"/>
      <point x="251" y="513" type="curve" smooth="yes"/>
      <point x="251" y="449"/>
      <point x="188" y="385"/>
      <point x="44" y="235" type="curve"/>
      <point x="44" y="131" type="line"/>
    </contour>
  </outline>
</glyph>
<glyph name="uni00B3" format="1">
  <advance width="390"/>
  <unicode hex="00B3"/>
  <outline>
    <contour>
      <point x="292" y="120"/>
      <point x="370" y="182"/>
      <point x="370" y="293" type="curve" smooth="yes"/>
      <point x="370" y="362"/>
      <point x="322" y="416"/>
      <point x="229" y="440" type="curve"/>
      <point x="229" y="393" type="line"/>
      <point x="317" y="421"/>
      <point x="363" y="465"/>
      <point x="363" y="534" type="curve" smooth="yes"/>
      <point x="363" y="624"/>
      <point x="300" y="683"/>
      <point x="170" y="683" type="curve" smooth="yes"/>
      <point x="127" y="683"/>
      <point x="86" y="680"/>
      <point x="44" y="665" type="curve"/>
      <point x="44" y="561" type="line"/>
      <point x="85" y="577"/>
      <point x="127" y="581"/>
      <point x="170" y="581" type="curve" smooth="yes"/>
      <point x="220" y="581"/>
      <point x="246" y="563"/>
      <point x="246" y="534" type="curve" smooth="yes"/>
      <point x="246" y="494"/>
      <point x="212" y="473"/>
      <point x="149" y="473" type="curve" smooth="yes"/>
      <point x="94" y="473" type="line"/>
      <point x="94" y="361" type="line"/>
      <point x="149" y="361" type="line" smooth="yes"/>
      <point x="216" y="361"/>
      <point x="253" y="339"/>
      <point x="253" y="293" type="curve" smooth="yes"/>
      <point x="253" y="245"/>
      <point x="214" y="222"/>
      <point x="160" y="222" type="curve" smooth="yes"/>
      <point x="117" y="222"/>
      <point x="74" y="229"/>
      <point x="37" y="245" type="curve"/>
      <point x="37" y="140" type="line"/>
      <point x="79" y="124"/>
      <point x="124" y="120"/>
      <point x="170" y="120" type="curve" smooth="yes"/>
    </contour>
  </outline>
</glyph>
<glyph name="acute" format="1">
  <advance width="650"/>
  <unicode hex="00B4"/>
  <outline>
    <contour>
      <point x="352" y="656" type="line"/>
      <point x="473" y="809" type="line"/>
      <point x="275" y="809" type="line"/>
      <point x="177" y="656" type="line"/>
    </contour>
    <contour>
      <point x="266" y="600" type="move" name="_accent"/>
    </contour>
  </outline>
</glyph>
<glyph name="paragraph" format="1">
  <advance width="797"/>
  <unicode hex="00B6"/>
  <outline>
    <contour>
      <point x="477" y="-100" type="line"/>
      <point x="477" y="606" type="line"/>
      <point x="561" y="606" type="line"/>
      <point x="561" y="-100" type="line"/>
      <point x="717" y="-100" type="line"/>
      <point x="717" y="758" type="line"/>
      <point x="292" y="758" type="line" smooth="yes"/>
      <point x="119" y="758"/>
      <point x="35" y="669"/>
      <point x="35" y="495" type="curve" smooth="yes"/>
      <point x="35" y="327"/>
      <point x="119" y="234"/>
      <point x="292" y="234" type="curve" smooth="yes"/>
      <point x="321" y="234" type="line"/>
      <point x="321" y="-100" type="line"/>
    </contour>
  </outline>
</glyph>
<glyph name="cedilla" format="1">
  <advance width="650"/>
  <unicode hex="00B8"/>
  <outline>
    <contour>
      <point x="407" y="-263"/>
      <point x="452" y="-215"/>
      <point x="452" y="-147" type="curve" smooth="yes"/>
      <point x="452" y="-87"/>
      <point x="415" y="-44"/>
      <point x="344" y="-44" type="curve" smooth="yes"/>
      <point x="309" y="-44"/>
      <point x="268" y="-51"/>
      <point x="243" y="-62" type="curve"/>
      <point x="210" y="-143" type="line"/>
      <point x="234" y="-135"/>
      <point x="258" y="-132"/>
      <point x="284" y="-132" type="curve" smooth="yes"/>
      <point x="321" y="-132"/>
      <point x="331" y="-139"/>
      <point x="331" y="-151" type="curve" smooth="yes"/>
      <point x="331" y="-163"/>
      <point x="321" y="-169"/>
      <point x="290" y="-169" type="curve" smooth="yes"/>
      <point x="260" y="-169"/>
      <point x="231" y="-163"/>
      <point x="198" y="-148" type="curve"/>
      <point x="198" y="-243" type="line"/>
      <point x="237" y="-261"/>
      <point x="273" y="-263"/>
      <point x="310" y="-263" type="curve"/>
    </contour>
    <contour>
      <point x="328" y="-98" type="line"/>
      <point x="361" y="1" type="line"/>
      <point x="250" y="1" type="line"/>
      <point x="210" y="-143" type="line"/>
    </contour>
    <contour>
      <point x="308" y="0" type="move" name="_bottomaccent"/>
    </contour>
  </outline>
</glyph>
<glyph name="uni00B9" format="1">
  <advance width="390"/>
  <unicode hex="00B9"/>
  <outline>
    <contour>
      <point x="252" y="131" type="line"/>
      <point x="252" y="673" type="line"/>
      <point x="138" y="673" type="line"/>
      <point x="138" y="131" type="line"/>
    </contour>
    <contour>
      <point x="335" y="131" type="line"/>
      <point x="335" y="235" type="line"/>
      <point x="55" y="235" type="line"/>
      <point x="55" y="131" type="line"/>
    </contour>
    <contour>
      <point x="161" y="569" type="line"/>
      <point x="161" y="673" type="line"/>
      <point x="69" y="673" type="line"/>
      <point x="69" y="569" type="line"/>
    </contour>
  </outline>
</glyph>
<glyph name="ordmasculine" format="1">
  <advance width="517"/>
  <unicode hex="00BA"/>
  <outline>
    <contour>
      <point x="401" y="275"/>
      <point x="480" y="374"/>
      <point x="480" y="497" type="curve" smooth="yes"/>
      <point x="480" y="620"/>
      <point x="401" y="718"/>
      <point x="259" y="718" type="curve" smooth="yes"/>
      <point x="117" y="718"/>
      <point x="37" y="620"/>
      <point x="37" y="497" type="curve" smooth="yes"/>
      <point x="37" y="374"/>
      <point x="117" y="275"/>
      <point x="259" y="275" type="curve" smooth="yes"/>
    </contour>
    <contour>
      <point x="197" y="389"/>
      <point x="163" y="439"/>
      <point x="163" y="497" type="curve" smooth="yes"/>
      <point x="163" y="555"/>
      <point x="198" y="604"/>
      <point x="259" y="604" type="curve" smooth="yes"/>
      <point x="323" y="604"/>
      <point x="354" y="555"/>
      <point x="354" y="497" type="curve" smooth="yes"/>
      <point x="354" y="439"/>
      <point x="323" y="389"/>
      <point x="259" y="389" type="curve" smooth="yes"/>
    </contour>
  </outline>
</glyph>
<glyph name="questiondown" format="1">
  <advance width="500"/>
  <unicode hex="00BF"/>
  <outline>
    <contour>
      <point x="333" y="-14"/>
      <point x="395" y="-7"/>
      <point x="463" y="23" type="curve"/>
      <point x="463" y="179" type="line"/>
      <point x="410" y="153"/>
      <point x="350" y="138"/>
      <point x="289" y="138" type="curve" smooth="yes"/>
      <point x="238" y="138"/>
      <point x="205" y="158"/>
      <point x="205" y="194" type="curve" smooth="yes"/>
      <point x="205" y="224"/>
      <point x="214" y="236"/>
      <point x="255" y="269" type="curve" smooth="yes"/>
      <point x="305" y="309" type="line" smooth="yes"/>
      <point x="364" y="356"/>
      <point x="384" y="389"/>
      <point x="384" y="462" type="curve" smooth="yes"/>
      <point x="384" y="528" type="line"/>
      <point x="208" y="528" type="line"/>
      <point x="208" y="479" type="line" smooth="yes"/>
      <point x="208" y="440"/>
      <point x="200" y="422"/>
      <point x="167" y="395" type="curve" smooth="yes"/>
      <point x="137" y="371" type="line" smooth="yes"/>
      <point x="83" y="327"/>
      <point x="27" y="282"/>
      <point x="27" y="180" type="curve" smooth="yes"/>
      <point x="27" y="51"/>
      <point x="132" y="-14"/>
      <point x="269" y="-14" type="curve" smooth="yes"/>
    </contour>
    <contour>
      <point x="388" y="587" type="line"/>
      <point x="388" y="758" type="line"/>
      <point x="204" y="758" type="line"/>
      <point x="204" y="587" type="line"/>
    </contour>
  </outline>
</glyph>
<glyph name="AE" format="1">
  <advance width="1122"/>
  <unicode hex="00C6"/>
  <outline>
    <contour>
      <point x="223" y="0" type="line"/>
      <point x="615" y="704" type="line"/>
      <point x="579" y="704" type="line"/>
      <point x="580" y="758" type="line"/>
      <point x="461" y="758" type="line"/>
      <point x="25" y="0" type="line"/>
    </contour>
    <contour>
      <point x="585" y="204" type="line"/>
      <point x="585" y="348" type="line"/>
      <point x="269" y="348" type="line"/>
      <point x="229" y="204" type="line"/>
    </contour>
    <contour>
      <point x="1062" y="0" type="line"/>
      <point x="1062" y="144" type="line"/>
      <point x="659" y="144" type="line"/>
      <point x="659" y="0" type="line"/>
    </contour>
    <contour>
      <point x="736" y="0" type="line"/>
      <point x="736" y="758" type="line"/>
      <point x="556" y="758" type="line"/>
      <point x="556" y="0" type="line"/>
    </contour>
    <contour>
      <point x="1007" y="309" type="line"/>
      <point x="1007" y="453" type="line"/>
      <point x="659" y="453" type="line"/>
      <point x="659" y="309" type="line"/>
    </contour>
    <contour>
      <point x="1057" y="614" type="line"/>
      <point x="1057" y="758" type="line"/>
      <point x="659" y="758" type="line"/>
      <point x="659" y="614" type="line"/>
    </contour>
  </outline>
</glyph>
<glyph name="Eth" format="1">
  <advance width="801"/>
  <unicode hex="00D0"/>
  <outline>
    <contour>
      <point x="408" y="317" type="line"/>
      <point x="408" y="445" type="line"/>
      <point x="7" y="445" type="line"/>
      <point x="7" y="317" type="line"/>
    </contour>
    <component base="D"/>
  </outline>
</glyph>
<glyph name="Oslash" format="1">
  <advance width="849"/>
  <unicode hex="00D8"/>
  <outline>
    <contour>
      <point x="815" y="671" type="line"/>
      <point x="711" y="771" type="line"/>
      <point x="39" y="86" type="line"/>
      <point x="145" y="-14" type="line"/>
    </contour>
    <component base="O"/>
  </outline>
</glyph>
<glyph name="Thorn" format="1">
  <advance width="642"/>
  <unicode hex="00DE"/>
  <outline>
    <contour>
      <point x="387" y="134" type="line"/>
      <point x="580" y="134"/>
      <point x="676" y="223"/>
      <point x="676" y="385" type="curve" smooth="yes"/>
      <point x="676" y="552"/>
      <point x="580" y="638"/>
      <point x="387" y="638" type="curve"/>
      <point x="182" y="638" type="line"/>
      <point x="182" y="486" type="line"/>
      <point x="387" y="486" type="line"/>
      <point x="459" y="486"/>
      <point x="494" y="457"/>
      <point x="494" y="385" type="curve" smooth="yes"/>
      <point x="493" y="317"/>
      <point x="459" y="286"/>
      <point x="387" y="286" type="curve"/>
      <point x="181" y="286" type="line"/>
      <point x="181" y="134" type="line"/>
    </contour>
    <contour>
      <point x="260" y="0" type="line"/>
      <point x="260" y="758" type="line"/>
      <point x="80" y="758" type="line"/>
      <point x="80" y="0" type="line"/>
    </contour>
    <contour>
      <point x="387" y="758" type="move" name="Accent"/>
    </contour>
  </outline>
</glyph>
<glyph name="germandbls" format="1">
  <advance width="678"/>
  <unicode hex="00DF"/>
  <outline>
    <contour>
      <point x="570" y="-17"/>
      <point x="656" y="46"/>
      <point x="658" y="180" type="curve"/>
      <point x="658" y="351"/>
      <point x="477" y="349"/>
      <point x="477" y="414" type="curve" smooth="yes"/>
      <point x="477" y="470"/>
      <point x="566" y="512"/>
      <point x="566" y="651" type="curve" smooth="yes"/>
      <point x="566" y="784"/>
      <point x="477" y="859"/>
      <point x="333" y="859" type="curve" smooth="yes"/>
      <point x="160" y="859"/>
      <point x="70" y="778"/>
      <point x="70" y="598" type="curve" smooth="yes"/>
      <point x="70" y="0" type="line"/>
      <point x="244" y="0" type="line"/>
      <point x="244" y="598" type="line" smooth="yes"/>
      <point x="244" y="678"/>
      <point x="271" y="705"/>
      <point x="328" y="705" type="curve" smooth="yes"/>
      <point x="370" y="705"/>
      <point x="392" y="686"/>
      <point x="392" y="638" type="curve" smooth="yes"/>
      <point x="392" y="557"/>
      <point x="301" y="536"/>
      <point x="301" y="410" type="curve" smooth="yes"/>
      <point x="301" y="223"/>
      <point x="482" y="247"/>
      <point x="482" y="175" type="curve"/>
      <point x="482" y="139"/>
      <point x="458" y="127"/>
      <point x="416" y="127" type="curve" smooth="yes"/>
      <point x="388" y="127"/>
      <point x="356" y="133"/>
      <point x="317" y="152" type="curve"/>
      <point x="317" y="5" type="line"/>
      <point x="364" y="-15"/>
      <point x="403" y="-17"/>
      <point x="446" y="-17" type="curve" smooth="yes"/>
    </contour>
  </outline>
</glyph>
<glyph name="ae" format="1">
  <advance width="953"/>
  <unicode hex="00E6"/>
  <outline>
    <contour>
      <point x="779" y="-17"/>
      <point x="842" y="-5"/>
      <point x="913" y="35" type="curve"/>
      <point x="868" y="169" type="line"/>
      <point x="807" y="139"/>
      <point x="764" y="127"/>
      <point x="712" y="127" type="curve"/>
      <point x="589" y="127"/>
      <point x="559" y="200"/>
      <point x="559" y="285" type="curve" smooth="yes"/>
      <point x="559" y="404"/>
      <point x="597" y="438"/>
      <point x="656" y="438" type="curve" smooth="yes"/>
      <point x="715" y="438"/>
      <point x="742" y="406"/>
      <point x="742" y="328" type="curve" smooth="yes"/>
      <point x="742" y="229" type="line"/>
      <point x="923" y="229" type="line"/>
      <point x="923" y="298" type="line" smooth="yes"/>
      <point x="923" y="488"/>
      <point x="818" y="582"/>
      <point x="670" y="582" type="curve" smooth="yes"/>
      <point x="519" y="582"/>
      <point x="408" y="479"/>
      <point x="408" y="284" type="curve"/>
      <point x="378" y="272" type="line"/>
      <point x="378" y="100"/>
      <point x="491" y="-17"/>
      <point x="688" y="-17" type="curve"/>
    </contour>
    <contour>
      <point x="323" y="-13"/>
      <point x="395" y="11"/>
      <point x="477" y="111" type="curve"/>
      <point x="433" y="219" type="line"/>
      <point x="374" y="154"/>
      <point x="321" y="121"/>
      <point x="272" y="121" type="curve" smooth="yes"/>
      <point x="233" y="121"/>
      <point x="206" y="134"/>
      <point x="206" y="180" type="curve" smooth="yes"/>
      <point x="206" y="225"/>
      <point x="237" y="243"/>
      <point x="282" y="243" type="curve" smooth="yes"/>
      <point x="337" y="243"/>
      <point x="382" y="223"/>
      <point x="430" y="189" type="curve"/>
      <point x="436" y="297" type="line"/>
      <point x="382" y="347"/>
      <point x="320" y="367"/>
      <point x="240" y="367" type="curve" smooth="yes"/>
      <point x="109" y="367"/>
      <point x="30" y="300"/>
      <point x="30" y="178" type="curve" smooth="yes"/>
      <point x="30" y="57"/>
      <point x="108" y="-13"/>
      <point x="235" y="-13" type="curve" smooth="yes"/>
    </contour>
    <contour>
      <point x="523" y="277" type="line"/>
      <point x="523" y="333" type="line" smooth="yes"/>
      <point x="523" y="465"/>
      <point x="496" y="566"/>
      <point x="290" y="566" type="curve" smooth="yes"/>
      <point x="161" y="566" type="line"/>
      <point x="161" y="416" type="line"/>
      <point x="275" y="416" type="line" smooth="yes"/>
      <point x="373" y="416"/>
      <point x="379" y="381"/>
      <point x="379" y="323" type="curve" smooth="yes"/>
      <point x="379" y="277" type="line"/>
    </contour>
    <contour>
      <point x="818" y="229" type="line"/>
      <point x="818" y="358" type="line"/>
      <point x="479" y="358" type="line"/>
      <point x="479" y="229" type="line"/>
    </contour>
  </outline>
</glyph>
<glyph name="eth" format="1">
  <advance width="673"/>
  <unicode hex="00F0"/>
  <outline>
    <contour>
      <point x="536" y="-17"/>
      <point x="638" y="120"/>
      <point x="638" y="325" type="curve" smooth="yes"/>
      <point x="638" y="568"/>
      <point x="518" y="744"/>
      <point x="326" y="862" type="curve"/>
      <point x="185" y="743" type="line"/>
      <point x="362" y="646"/>
      <point x="462" y="503"/>
      <point x="462" y="313" type="curve" smooth="yes"/>
      <point x="462" y="198"/>
      <point x="414" y="137"/>
      <point x="337" y="137" type="curve" smooth="yes"/>
      <point x="266" y="137"/>
      <point x="211" y="172"/>
      <point x="211" y="276" type="curve" smooth="yes"/>
      <point x="211" y="392"/>
      <point x="276" y="418"/>
      <point x="336" y="418" type="curve" smooth="yes"/>
      <point x="416" y="418"/>
      <point x="483" y="361"/>
      <point x="525" y="316" type="curve"/>
      <point x="525" y="450" type="line"/>
      <point x="463" y="519"/>
      <point x="380" y="572"/>
      <point x="289" y="572" type="curve" smooth="yes"/>
      <point x="161" y="572"/>
      <point x="35" y="494"/>
      <point x="35" y="276" type="curve" smooth="yes"/>
      <point x="35" y="81"/>
      <point x="155" y="-17"/>
      <point x="337" y="-17" type="curve" smooth="yes"/>
    </contour>
    <contour>
      <point x="533" y="785" type="line"/>
      <point x="460" y="874" type="line"/>
      <point x="193" y="669" type="line"/>
      <point x="264" y="582" type="line"/>
    </contour>
  </outline>
</glyph>
<glyph name="oslash" format="1">
  <advance width="674"/>
  <unicode hex="00F8"/>
  <outline>
    <contour>
      <point x="641" y="491" type="line"/>
      <point x="547" y="581" type="line"/>
      <point x="34" y="76" type="line"/>
      <point x="130" y="-14" type="line"/>
    </contour>
    <component base="o"/>
  </outline>
</glyph>
<glyph name="thorn" format="1">
  <advance width="623"/>
  <unicode hex="00FE"/>
  <outline>
    <contour>
      <point x="545" y="-17"/>
      <point x="656" y="81"/>
      <point x="656" y="283" type="curve"/>
      <point x="656" y="483"/>
      <point x="545" y="582"/>
      <point x="396" y="582" type="curve" smooth="yes"/>
      <point x="299" y="582"/>
      <point x="223" y="523"/>
      <point x="156" y="440" type="curve"/>
      <point x="156" y="306" type="line"/>
      <point x="214" y="370"/>
      <point x="279" y="428"/>
      <point x="358" y="428" type="curve" smooth="yes"/>
      <point x="435" y="428"/>
      <point x="475" y="377"/>
      <point x="475" y="283" type="curve"/>
      <point x="475" y="187"/>
      <point x="435" y="137"/>
      <point x="358" y="137" type="curve" smooth="yes"/>
      <point x="279" y="137"/>
      <point x="214" y="195"/>
      <point x="156" y="259" type="curve"/>
      <point x="156" y="125" type="line"/>
      <point x="223" y="42"/>
      <point x="299" y="-17"/>
      <point x="396" y="-17" type="curve" smooth="yes"/>
    </contour>
    <contour>
      <point x="244" y="-234" type="line"/>
      <point x="244" y="846" type="line"/>
      <point x="70" y="846" type="line"/>
      <point x="70" y="-234" type="line"/>
    </contour>
  </outline>
</glyph>
<glyph name="aogonek" format="1">
  <advance width="618"/>
  <unicode hex="0105"/>
  <outline>
    <contour>
      <point x="498" y="-263"/>
      <point x="526" y="-258"/>
      <point x="553" y="-249" type="curve"/>
      <point x="553" y="-154" type="line"/>
      <point x="535" y="-162"/>
      <point x="517" y="-166"/>
      <point x="500" y="-166" type="curve" smooth="yes"/>
      <point x="475" y="-166"/>
      <point x="460" y="-156"/>
      <point x="460" y="-131" type="curve" smooth="yes"/>
      <point x="460" y="-88"/>
      <point x="499" y="-42"/>
      <point x="553" y="0" type="curve"/>
      <point x="553" y="17" type="line"/>
      <point x="418" y="17" type="line"/>
      <point x="418" y="0" type="line"/>
      <point x="355" y="-49"/>
      <point x="329" y="-107"/>
      <point x="329" y="-160" type="curve" smooth="yes"/>
      <point x="329" y="-224"/>
      <point x="374" y="-263"/>
      <point x="471" y="-263" type="curve"/>
    </contour>
    <component base="a"/>
  </outline>
</glyph>
<glyph name="dcroat" format="1">
  <advance width="691"/>
  <unicode hex="0111"/>
  <outline>
    <contour>
      <point x="691" y="626" type="line"/>
      <point x="691" y="754" type="line"/>
      <point x="290" y="754" type="line"/>
      <point x="290" y="626" type="line"/>
    </contour>
    <component base="d"/>
  </outline>
</glyph>
<glyph name="eogonek" format="1">
  <advance width="610"/>
  <unicode hex="0119"/>
  <outline>
    <contour>
      <point x="430" y="-263"/>
      <point x="458" y="-258"/>
      <point x="485" y="-249" type="curve"/>
      <point x="485" y="-154" type="line"/>
      <point x="467" y="-162"/>
      <point x="449" y="-166"/>
      <point x="432" y="-166" type="curve" smooth="yes"/>
      <point x="407" y="-166"/>
      <point x="392" y="-156"/>
      <point x="392" y="-131" type="curve" smooth="yes"/>
      <point x="392" y="-88"/>
      <point x="431" y="-42"/>
      <point x="485" y="0" type="curve"/>
      <point x="350" y="0" type="line"/>
      <point x="287" y="-49"/>
      <point x="261" y="-107"/>
      <point x="261" y="-160" type="curve" smooth="yes"/>
      <point x="261" y="-224"/>
      <point x="306" y="-263"/>
      <point x="403" y="-263" type="curve"/>
    </contour>
    <component base="e"/>
  </outline>
</glyph>
<glyph name="Hbar" format="1">
  <advance width="775"/>
  <unicode hex="0126"/>
  <outline>
    <contour>
      <point x="739" y="0" type="line"/>
      <point x="739" y="758" type="line"/>
      <point x="559" y="758" type="line"/>
      <point x="559" y="0" type="line"/>
    </contour>
    <contour>
      <point x="260" y="0" type="line"/>
      <point x="260" y="758" type="line"/>
      <point x="80" y="758" type="line"/>
      <point x="80" y="0" type="line"/>
    </contour>
    <contour>
      <point x="634" y="304" type="line"/>
      <point x="634" y="458" type="line"/>
      <point x="179" y="458" type="line"/>
      <point x="179" y="304" type="line"/>
    </contour>
    <contour>
      <point x="638" y="526" type="line"/>
      <point x="638" y="678" type="line"/>
      <point x="177" y="678" type="line"/>
      <point x="177" y="526" type="line"/>
    </contour>
  </outline>
</glyph>
<glyph name="hbar" format="1">
  <advance width="692"/>
  <unicode hex="0127"/>
  <outline>
    <contour>
      <point x="398" y="626" type="line"/>
      <point x="398" y="754" type="line"/>
      <point x="-3" y="754" type="line"/>
      <point x="-3" y="626" type="line"/>
    </contour>
    <component base="h"/>
  </outline>
</glyph>
<glyph name="Iogonek" format="1">
  <advance width="340"/>
  <unicode hex="012E"/>
  <outline>
    <contour>
      <point x="183" y="-263"/>
      <point x="211" y="-258"/>
      <point x="238" y="-249" type="curve"/>
      <point x="238" y="-154" type="line"/>
      <point x="220" y="-162"/>
      <point x="202" y="-166"/>
      <point x="185" y="-166" type="curve" smooth="yes"/>
      <point x="160" y="-166"/>
      <point x="145" y="-156"/>
      <point x="145" y="-131" type="curve" smooth="yes"/>
      <point x="145" y="-88"/>
      <point x="184" y="-42"/>
      <point x="238" y="0" type="curve"/>
      <point x="238" y="10" type="line"/>
      <point x="103" y="10" type="line"/>
      <point x="103" y="0" type="line"/>
      <point x="40" y="-49"/>
      <point x="14" y="-107"/>
      <point x="14" y="-160" type="curve" smooth="yes"/>
      <point x="14" y="-224"/>
      <point x="59" y="-263"/>
      <point x="156" y="-263" type="curve"/>
    </contour>
    <component base="I"/>
  </outline>
</glyph>
<glyph name="iogonek" format="1">
  <advance width="314"/>
  <unicode hex="012F"/>
  <outline>
    <contour>
      <point x="170" y="-263"/>
      <point x="198" y="-258"/>
      <point x="225" y="-249" type="curve"/>
      <point x="225" y="-154" type="line"/>
      <point x="207" y="-162"/>
      <point x="189" y="-166"/>
      <point x="172" y="-166" type="curve" smooth="yes"/>
      <point x="147" y="-166"/>
      <point x="132" y="-156"/>
      <point x="132" y="-131" type="curve" smooth="yes"/>
      <point x="132" y="-88"/>
      <point x="171" y="-42"/>
      <point x="225" y="0" type="curve"/>
      <point x="225" y="33" type="line"/>
      <point x="90" y="33" type="line"/>
      <point x="90" y="0" type="line"/>
      <point x="27" y="-49"/>
      <point x="1" y="-107"/>
      <point x="1" y="-160" type="curve" smooth="yes"/>
      <point x="1" y="-224"/>
      <point x="46" y="-263"/>
      <point x="143" y="-263" type="curve"/>
    </contour>
    <component base="i"/>
  </outline>
</glyph>
<glyph name="Lslash" format="1">
  <advance width="576"/>
  <unicode hex="0141"/>
  <outline>
    <contour>
      <point x="432" y="374" type="line"/>
      <point x="432" y="526" type="line"/>
      <point x="0" y="352" type="line"/>
      <point x="0" y="200" type="line"/>
    </contour>
    <component base="L"/>
  </outline>
</glyph>
<glyph name="lslash" format="1">
  <advance width="379"/>
  <unicode hex="0142"/>
  <outline>
    <contour>
      <point x="355" y="409" type="line"/>
      <point x="355" y="559" type="line"/>
      <point x="1" y="457" type="line"/>
      <point x="1" y="307" type="line"/>
    </contour>
    <component base="l"/>
  </outline>
</glyph>
<glyph name="Eng" format="1">
  <advance width="775"/>
  <unicode hex="014A"/>
  <outline>
    <contour>
      <point x="260" y="0" type="line"/>
      <point x="260" y="679" type="line"/>
      <point x="185" y="595" type="line"/>
      <point x="562" y="0" type="line"/>
      <point x="739" y="0" type="line"/>
      <point x="739" y="758" type="line"/>
      <point x="559" y="758" type="line"/>
      <point x="559" y="79" type="line"/>
      <point x="654" y="163" type="line"/>
      <point x="287" y="758" type="line"/>
      <point x="80" y="758" type="line"/>
      <point x="80" y="0" type="line"/>
    </contour>
    <contour>
      <point x="697" y="-251"/>
      <point x="739" y="-200"/>
      <point x="739" y="-10" type="curve" smooth="yes"/>
      <point x="739" y="688" type="line"/>
      <point x="559" y="688" type="line"/>
      <point x="559" y="-4" type="line" smooth="yes"/>
      <point x="559" y="-81"/>
      <point x="545" y="-97"/>
      <point x="504" y="-97" type="curve" smooth="yes"/>
      <point x="481" y="-97"/>
      <point x="465" y="-95"/>
      <point x="450" y="-92" type="curve"/>
      <point x="450" y="-243" type="line"/>
      <point x="479" y="-249"/>
      <point x="507" y="-251"/>
      <point x="541" y="-251" type="curve" smooth="yes"/>
    </contour>
    <contour>
      <point x="403" y="758" type="move" name="Accent"/>
    </contour>
    <contour>
      <point x="366" y="0" type="move" name="bottomaccent"/>
    </contour>
  </outline>
</glyph>
<glyph name="eng" format="1">
  <advance width="692"/>
  <unicode hex="014B"/>
  <outline>
    <contour>
      <point x="572" y="-250"/>
      <point x="627" y="-194"/>
      <point x="627" y="-99" type="curve" smooth="yes"/>
      <point x="627" y="169" type="line"/>
      <point x="453" y="169" type="line"/>
      <point x="453" y="-36" type="line" smooth="yes"/>
      <point x="453" y="-80"/>
      <point x="441" y="-96"/>
      <point x="402" y="-96" type="curve" smooth="yes"/>
      <point x="377" y="-96"/>
      <point x="359" y="-93"/>
      <point x="343" y="-88" type="curve"/>
      <point x="343" y="-236" type="line"/>
      <point x="381" y="-244"/>
      <point x="412" y="-250"/>
      <point x="451" y="-250" type="curve" smooth="yes"/>
    </contour>
    <component base="n"/>
  </outline>
</glyph>
<glyph name="OE" format="1">
  <advance width="1108"/>
  <unicode hex="0152"/>
  <outline>
    <contour>
      <point x="629" y="0" type="line"/>
      <point x="629" y="152" type="line"/>
      <point x="454" y="152" type="line"/>
      <point x="293" y="152"/>
      <point x="216" y="221"/>
      <point x="217" y="380" type="curve" smooth="yes"/>
      <point x="218" y="540"/>
      <point x="293" y="606"/>
      <point x="454" y="606" type="curve"/>
      <point x="630" y="606" type="line"/>
      <point x="630" y="758" type="line"/>
      <point x="454" y="758" type="line"/>
      <point x="176" y="758"/>
      <point x="35" y="631"/>
      <point x="35" y="380" type="curve" smooth="yes"/>
      <point x="35" y="132"/>
      <point x="176" y="0"/>
      <point x="454" y="0" type="curve"/>
    </contour>
    <contour>
      <point x="1048" y="0" type="line"/>
      <point x="1048" y="144" type="line"/>
      <point x="645" y="144" type="line"/>
      <point x="645" y="0" type="line"/>
    </contour>
    <contour>
      <point x="722" y="0" type="line"/>
      <point x="722" y="758" type="line"/>
      <point x="542" y="758" type="line"/>
      <point x="542" y="0" type="line"/>
    </contour>
    <contour>
      <point x="993" y="309" type="line"/>
      <point x="993" y="453" type="line"/>
      <point x="645" y="453" type="line"/>
      <point x="645" y="309" type="line"/>
    </contour>
    <contour>
      <point x="1043" y="614" type="line"/>
      <point x="1043" y="758" type="line"/>
      <point x="645" y="758" type="line"/>
      <point x="645" y="614" type="line"/>
    </contour>
  </outline>
</glyph>
<glyph name="oe" format="1">
  <advance width="1033"/>
  <unicode hex="0153"/>
  <outline>
    <contour>
      <point x="516" y="-17"/>
      <point x="609" y="116"/>
      <point x="609" y="283" type="curve" smooth="yes"/>
      <point x="609" y="448"/>
      <point x="516" y="582"/>
      <point x="328" y="582" type="curve" smooth="yes"/>
      <point x="133" y="582"/>
      <point x="35" y="448"/>
      <point x="35" y="283" type="curve" smooth="yes"/>
      <point x="35" y="116"/>
      <point x="133" y="-17"/>
      <point x="328" y="-17" type="curve" smooth="yes"/>
    </contour>
    <contour>
      <point x="258" y="131"/>
      <point x="216" y="185"/>
      <point x="216" y="283" type="curve" smooth="yes"/>
      <point x="216" y="380"/>
      <point x="258" y="434"/>
      <point x="338" y="434" type="curve" smooth="yes"/>
      <point x="417" y="434"/>
      <point x="458" y="380"/>
      <point x="458" y="283" type="curve" smooth="yes"/>
      <point x="458" y="185"/>
      <point x="417" y="131"/>
      <point x="338" y="131" type="curve" smooth="yes"/>
    </contour>
    <contour>
      <point x="859" y="-17"/>
      <point x="922" y="-5"/>
      <point x="993" y="35" type="curve"/>
      <point x="948" y="169" type="line"/>
      <point x="887" y="139"/>
      <point x="844" y="127"/>
      <point x="792" y="127" type="curve"/>
      <point x="669" y="127"/>
      <point x="639" y="200"/>
      <point x="639" y="285" type="curve" smooth="yes"/>
      <point x="639" y="404"/>
      <point x="677" y="438"/>
      <point x="736" y="438" type="curve" smooth="yes"/>
      <point x="795" y="438"/>
      <point x="822" y="406"/>
      <point x="822" y="328" type="curve" smooth="yes"/>
      <point x="822" y="229" type="line"/>
      <point x="1003" y="229" type="line"/>
      <point x="1003" y="298" type="line" smooth="yes"/>
      <point x="1003" y="488"/>
      <point x="902" y="582"/>
      <point x="746" y="582" type="curve" smooth="yes"/>
      <point x="605" y="582"/>
      <point x="488" y="479"/>
      <point x="488" y="284" type="curve" smooth="yes"/>
      <point x="488" y="106"/>
      <point x="586" y="-17"/>
      <point x="768" y="-17" type="curve"/>
    </contour>
    <contour>
      <point x="898" y="229" type="line"/>
      <point x="898" y="358" type="line"/>
      <point x="559" y="358" type="line"/>
      <point x="559" y="229" type="line"/>
    </contour>
  </outline>
</glyph>
<glyph name="Tbar" format="1">
  <advance width="614"/>
  <unicode hex="0166"/>
  <outline>
    <contour>
      <point x="554" y="294" type="line"/>
      <point x="554" y="446" type="line"/>
      <point x="100" y="446" type="line"/>
      <point x="100" y="294" type="line"/>
    </contour>
    <component base="T" xOffset="-10"/>
  </outline>
</glyph>
<glyph name="tbar" format="1">
  <advance width="440"/>
  <unicode hex="0167"/>
  <outline>
    <contour>
      <point x="411" y="203" type="line"/>
      <point x="411" y="351" type="line"/>
      <point x="31" y="351" type="line"/>
      <point x="31" y="203" type="line"/>
    </contour>
    <component base="t"/>
  </outline>
</glyph>
<glyph name="uogonek" format="1">
  <advance width="692"/>
  <unicode hex="0173"/>
  <outline>
    <contour>
      <point x="567" y="-263"/>
      <point x="595" y="-258"/>
      <point x="622" y="-249" type="curve"/>
      <point x="622" y="-154" type="line"/>
      <point x="604" y="-162"/>
      <point x="586" y="-166"/>
      <point x="569" y="-166" type="curve" smooth="yes"/>
      <point x="544" y="-166"/>
      <point x="529" y="-156"/>
      <point x="529" y="-131" type="curve" smooth="yes"/>
      <point x="529" y="-88"/>
      <point x="568" y="-42"/>
      <point x="622" y="0" type="curve"/>
      <point x="622" y="17" type="line"/>
      <point x="487" y="17" type="line"/>
      <point x="487" y="0" type="line"/>
      <point x="424" y="-49"/>
      <point x="398" y="-107"/>
      <point x="398" y="-160" type="curve" smooth="yes"/>
      <point x="398" y="-224"/>
      <point x="443" y="-263"/>
      <point x="540" y="-263" type="curve"/>
    </contour>
    <component base="u"/>
  </outline>
</glyph>
<glyph name="florin" format="1">
  <advance width="550"/>
  <unicode hex="0192"/>
  <outline>
    <contour>
      <point x="287" y="-234" type="line"/>
      <point x="378" y="653" type="line" smooth="yes"/>
      <point x="382" y="689"/>
      <point x="401" y="705"/>
      <point x="438" y="705" type="curve" smooth="yes"/>
      <point x="457" y="705"/>
      <point x="476" y="704"/>
      <point x="496" y="700" type="curve"/>
      <point x="496" y="855" type="line"/>
      <point x="474" y="858"/>
      <point x="452" y="859"/>
      <point x="436" y="859" type="curve" smooth="yes"/>
      <point x="274" y="859"/>
      <point x="220" y="807"/>
      <point x="205" y="660" type="curve" smooth="yes"/>
      <point x="113" y="-234" type="line"/>
    </contour>
    <contour>
      <point x="457" y="392" type="line"/>
      <point x="487" y="546" type="line"/>
      <point x="95" y="546" type="line"/>
      <point x="95" y="392" type="line"/>
    </contour>
  </outline>
</glyph>
<glyph name="uni0237" format="1">
  <advance width="314"/>
  <unicode hex="0237"/>
  <outline>
    <contour>
      <point x="189" y="-250"/>
      <point x="244" y="-194"/>
      <point x="244" y="-99" type="curve" smooth="yes"/>
      <point x="244" y="569" type="line"/>
      <point x="70" y="569" type="line"/>
      <point x="70" y="-36" type="line" smooth="yes"/>
      <point x="70" y="-80"/>
      <point x="58" y="-96"/>
      <point x="19" y="-96" type="curve" smooth="yes"/>
      <point x="-6" y="-96"/>
      <point x="-24" y="-93"/>
      <point x="-40" y="-88" type="curve"/>
      <point x="-40" y="-236" type="line"/>
      <point x="-2" y="-244"/>
      <point x="29" y="-250"/>
      <point x="68" y="-250" type="curve" smooth="yes"/>
    </contour>
    <contour>
      <point x="157" y="600" type="move" name="accent"/>
    </contour>
  </outline>
</glyph>
<glyph name="circumflex" format="1">
  <advance width="649"/>
  <unicode hex="02C6"/>
  <outline>
    <contour>
      <point x="284" y="656" type="line"/>
      <point x="352" y="809" type="line"/>
      <point x="207" y="809" type="line"/>
      <point x="116" y="656" type="line"/>
    </contour>
    <contour>
      <point x="533" y="656" type="line"/>
      <point x="442" y="809" type="line"/>
      <point x="297" y="809" type="line"/>
      <point x="365" y="656" type="line"/>
    </contour>
    <contour>
      <point x="325" y="600" type="move" name="_accent"/>
    </contour>
  </outline>
</glyph>
<glyph name="caron" format="1">
  <advance width="649"/>
  <unicode hex="02C7"/>
  <outline>
    <contour>
      <point x="442" y="656" type="line"/>
      <point x="533" y="809" type="line"/>
      <point x="365" y="809" type="line"/>
      <point x="297" y="656" type="line"/>
    </contour>
    <contour>
      <point x="352" y="656" type="line"/>
      <point x="284" y="809" type="line"/>
      <point x="116" y="809" type="line"/>
      <point x="207" y="656" type="line"/>
    </contour>
    <contour>
      <point x="325" y="600" type="move" name="_accent"/>
    </contour>
  </outline>
</glyph>
<glyph name="breve" format="1">
  <advance width="650"/>
  <unicode hex="02D8"/>
  <outline>
    <contour>
      <point x="428" y="648"/>
      <point x="495" y="685"/>
      <point x="495" y="785" type="curve" smooth="yes"/>
      <point x="495" y="807" type="line"/>
      <point x="365" y="807" type="line"/>
      <point x="365" y="789" type="line"/>
      <point x="365" y="759"/>
      <point x="353" y="746"/>
      <point x="325" y="746" type="curve" smooth="yes"/>
      <point x="297" y="746"/>
      <point x="285" y="759"/>
      <point x="285" y="789" type="curve"/>
      <point x="285" y="807" type="line"/>
      <point x="155" y="807" type="line"/>
      <point x="155" y="785" type="line" smooth="yes"/>
      <point x="155" y="685"/>
      <point x="224" y="648"/>
      <point x="325" y="648" type="curve" smooth="yes"/>
    </contour>
    <contour>
      <point x="324" y="600" type="move" name="_accent"/>
    </contour>
  </outline>
</glyph>
<glyph name="dotaccent" format="1">
  <advance width="650"/>
  <unicode hex="02D9"/>
  <outline>
    <contour>
      <point x="412" y="656" type="line"/>
      <point x="412" y="807" type="line"/>
      <point x="238" y="807" type="line"/>
      <point x="238" y="656" type="line"/>
    </contour>
    <contour>
      <point x="323" y="600" type="move" name="_accent"/>
    </contour>
  </outline>
</glyph>
<glyph name="ring" format="1">
  <advance width="649"/>
  <unicode hex="02DA"/>
  <outline>
    <contour>
      <point x="414" y="640"/>
      <point x="447" y="680"/>
      <point x="447" y="732" type="curve" smooth="yes"/>
      <point x="447" y="784"/>
      <point x="414" y="823"/>
      <point x="325" y="823" type="curve" smooth="yes"/>
      <point x="234" y="823"/>
      <point x="202" y="784"/>
      <point x="202" y="732" type="curve" smooth="yes"/>
      <point x="202" y="680"/>
      <point x="236" y="640"/>
      <point x="325" y="640" type="curve" smooth="yes"/>
    </contour>
    <contour>
      <point x="302" y="707"/>
      <point x="293" y="716"/>
      <point x="293" y="732" type="curve" smooth="yes"/>
      <point x="293" y="747"/>
      <point x="302" y="756"/>
      <point x="325" y="756" type="curve" smooth="yes"/>
      <point x="346" y="756"/>
      <point x="356" y="747"/>
      <point x="356" y="732" type="curve" smooth="yes"/>
      <point x="356" y="716"/>
      <point x="346" y="707"/>
      <point x="325" y="707" type="curve" smooth="yes"/>
    </contour>
    <contour>
      <point x="325" y="600" type="move" name="_accent"/>
    </contour>
  </outline>
</glyph>
<glyph name="ogonek" format="1">
  <advance width="650"/>
  <unicode hex="02DB"/>
  <outline>
    <contour>
      <point x="377" y="-263"/>
      <point x="405" y="-258"/>
      <point x="432" y="-249" type="curve"/>
      <point x="432" y="-154" type="line"/>
      <point x="414" y="-162"/>
      <point x="396" y="-166"/>
      <point x="379" y="-166" type="curve" smooth="yes"/>
      <point x="354" y="-166"/>
      <point x="339" y="-156"/>
      <point x="339" y="-131" type="curve" smooth="yes"/>
      <point x="339" y="-88"/>
      <point x="378" y="-42"/>
      <point x="432" y="0" type="curve"/>
      <point x="297" y="0" type="line"/>
      <point x="234" y="-49"/>
      <point x="208" y="-107"/>
      <point x="208" y="-160" type="curve" smooth="yes"/>
      <point x="208" y="-224"/>
      <point x="253" y="-263"/>
      <point x="350" y="-263" type="curve"/>
    </contour>
    <contour>
      <point x="364" y="0" type="move" name="_ogonek"/>
    </contour>
  </outline>
</glyph>
<glyph name="tilde" format="1">
  <advance width="649"/>
  <unicode hex="02DC"/>
  <outline>
    <contour>
      <point x="254" y="655" type="line"/>
      <point x="254" y="679"/>
      <point x="262" y="686"/>
      <point x="273" y="686" type="curve" smooth="yes"/>
      <point x="279" y="686"/>
      <point x="288" y="684"/>
      <point x="311" y="677" type="curve" smooth="yes"/>
      <point x="348" y="665" type="line" smooth="yes"/>
      <point x="363" y="660"/>
      <point x="384" y="655"/>
      <point x="406" y="655" type="curve" smooth="yes"/>
      <point x="465" y="655"/>
      <point x="515" y="680"/>
      <point x="515" y="803" type="curve"/>
      <point x="395" y="803" type="line"/>
      <point x="395" y="779"/>
      <point x="387" y="772"/>
      <point x="376" y="772" type="curve" smooth="yes"/>
      <point x="370" y="772"/>
      <point x="361" y="774"/>
      <point x="338" y="781" type="curve" smooth="yes"/>
      <point x="301" y="793" type="line" smooth="yes"/>
      <point x="286" y="798"/>
      <point x="265" y="803"/>
      <point x="243" y="803" type="curve" smooth="yes"/>
      <point x="184" y="803"/>
      <point x="134" y="778"/>
      <point x="134" y="655" type="curve"/>
    </contour>
    <contour>
      <point x="325" y="600" type="move" name="_accent"/>
    </contour>
  </outline>
</glyph>
<glyph name="hungarumlaut" format="1">
  <advance width="649"/>
  <unicode hex="02DD"/>
  <outline>
    <contour>
      <point x="454" y="656" type="line"/>
      <point x="575" y="809" type="line"/>
      <point x="397" y="809" type="line"/>
      <point x="299" y="656" type="line"/>
    </contour>
    <contour>
      <point x="229" y="656" type="line"/>
      <point x="350" y="809" type="line"/>
      <point x="172" y="809" type="line"/>
      <point x="74" y="656" type="line"/>
    </contour>
    <contour>
      <point x="265" y="600" type="move" name="_accent"/>
    </contour>
  </outline>
</glyph>
<glyph name="commaaccent" format="1">
  <advance width="650"/>
  <unicode hex="0326"/>
  <outline>
    <contour>
      <point x="383" y="-246" type="line"/>
      <point x="431" y="-80" type="line"/>
      <point x="251" y="-80" type="line"/>
      <point x="219" y="-246" type="line"/>
    </contour>
    <contour>
      <point x="335" y="0" type="move" name="_bottomaccent"/>
    </contour>
  </outline>
</glyph>
<glyph name="candraBindu-deva" format="1">
  <advance width="0"/>
  <unicode hex="0901"/>
  <outline>
    <component base="eCandraMatra-deva"/>
    <component base="anusvara-deva" yOffset="192"/>
    <contour>
      <point x="-138" y="634" type="move" name="_top"/>
    </contour>
  </outline>
</glyph>
<glyph name="anusvara-deva" format="1">
  <advance width="0"/>
  <unicode hex="0902"/>
  <outline>
    <contour>
      <point x="-47" y="791" type="line"/>
      <point x="-138" y="882" type="line"/>
      <point x="-229" y="791" type="line"/>
      <point x="-138" y="701" type="line"/>
    </contour>
    <contour>
      <point x="-138" y="634" type="move" name="_top"/>
    </contour>
  </outline>
</glyph>
<glyph name="uni0903" format="1">
  <advance width="302"/>
  <unicode hex="0903"/>
  <outline>
    <contour>
      <point x="241" y="433" type="line"/>
      <point x="150" y="524" type="line"/>
      <point x="59" y="433" type="line"/>
      <point x="150" y="343" type="line"/>
    </contour>
    <contour>
      <point x="241" y="99" type="line"/>
      <point x="150" y="190" type="line"/>
      <point x="59" y="99" type="line"/>
      <point x="150" y="9" type="line"/>
    </contour>
  </outline>
</glyph>
<glyph name="uni0906" format="1">
  <advance width="1066"/>
  <unicode hex="0906"/>
  <outline>
    <contour>
      <point x="672" y="0" type="line"/>
      <point x="672" y="550" type="line"/>
      <point x="762" y="550" type="line"/>
      <point x="762" y="674" type="line"/>
      <point x="417" y="674" type="line"/>
      <point x="417" y="550" type="line"/>
      <point x="518" y="550" type="line"/>
      <point x="518" y="0" type="line"/>
    </contour>
    <contour>
      <point x="63" y="40" type="line" smooth="yes"/>
      <point x="214" y="40"/>
      <point x="357" y="83"/>
      <point x="357" y="223" type="curve" smooth="yes"/>
      <point x="357" y="298"/>
      <point x="322" y="360"/>
      <point x="241" y="375" type="curve"/>
      <point x="241" y="358" type="line"/>
      <point x="320" y="388"/>
      <point x="357" y="437"/>
      <point x="357" y="513" type="curve" smooth="yes"/>
      <point x="357" y="631"/>
      <point x="268" y="674"/>
      <point x="93" y="674" type="curve" smooth="yes"/>
      <point x="36" y="674" type="line"/>
      <point x="36" y="550" type="line"/>
      <point x="93" y="550" type="line" smooth="yes"/>
      <point x="163" y="550"/>
      <point x="203" y="533"/>
      <point x="203" y="489" type="curve" smooth="yes"/>
      <point x="203" y="450"/>
      <point x="174" y="425"/>
      <point x="103" y="425" type="curve" smooth="yes"/>
      <point x="51" y="425" type="line"/>
      <point x="51" y="301" type="line"/>
      <point x="102" y="301" type="line" smooth="yes"/>
      <point x="173" y="301"/>
      <point x="203" y="282"/>
      <point x="203" y="243" type="curve" smooth="yes"/>
      <point x="203" y="176"/>
      <point x="127" y="164"/>
      <point x="63" y="164" type="curve" smooth="yes"/>
      <point x="5" y="164" type="line"/>
      <point x="5" y="40" type="line"/>
    </contour>
    <contour>
      <point x="591" y="192" type="line"/>
      <point x="591" y="316" type="line"/>
      <point x="266" y="316" type="line"/>
      <point x="266" y="192" type="line"/>
    </contour>
    <component base="uni093E" xOffset="752"/>
  </outline>
</glyph>
<glyph name="i-deva" format="1">
  <advance width="552"/>
  <unicode hex="0907"/>
  <outline>
    <contour>
      <point x="312" y="-27" type="line" smooth="yes"/>
      <point x="446" y="-27"/>
      <point x="521" y="30"/>
      <point x="521" y="157" type="curve" smooth="yes"/>
      <point x="521" y="272"/>
      <point x="446" y="320"/>
      <point x="307" y="320" type="curve" smooth="yes"/>
      <point x="212" y="320" type="line"/>
      <point x="203" y="328"/>
      <point x="197" y="343"/>
      <point x="197" y="353" type="curve"/>
      <point x="197" y="375"/>
      <point x="211" y="381"/>
      <point x="237" y="381" type="curve" smooth="yes"/>
      <point x="451" y="381" type="line"/>
      <point x="451" y="505" type="line"/>
      <point x="237" y="505" type="line" smooth="yes"/>
      <point x="108" y="505"/>
      <point x="43" y="472"/>
      <point x="43" y="368" type="curve" smooth="yes"/>
      <point x="43" y="292"/>
      <point x="94" y="222"/>
      <point x="129" y="196" type="curve"/>
      <point x="307" y="196" type="line" smooth="yes"/>
      <point x="347" y="196"/>
      <point x="367" y="179"/>
      <point x="367" y="147" type="curve" smooth="yes"/>
      <point x="367" y="113"/>
      <point x="344" y="97"/>
      <point x="303" y="97" type="curve" smooth="yes"/>
      <point x="292" y="97" type="line" smooth="yes"/>
      <point x="224" y="97"/>
      <point x="175" y="115"/>
      <point x="128" y="145" type="curve"/>
      <point x="110" y="33" type="line"/>
      <point x="163" y="0"/>
      <point x="216" y="-27"/>
      <point x="305" y="-27" type="curve" smooth="yes"/>
    </contour>
    <contour>
      <point x="187" y="-75" type="line"/>
      <point x="187" y="174" type="line"/>
      <point x="53" y="174" type="line"/>
      <point x="53" y="-75" type="line"/>
    </contour>
    <contour>
      <point x="451" y="485" type="line"/>
      <point x="451" y="550" type="line"/>
      <point x="562" y="550" type="line"/>
      <point x="562" y="674" type="line"/>
      <point x="-10" y="674" type="line"/>
      <point x="-10" y="550" type="line"/>
      <point x="297" y="550" type="line"/>
      <point x="297" y="485" type="line"/>
    </contour>
    <contour>
      <point x="383" y="674" type="move" name="top"/>
    </contour>
  </outline>
</glyph>
<glyph name="u-deva" format="1">
  <advance width="600"/>
  <unicode hex="0909"/>
  <outline>
    <contour>
      <point x="416" y="0"/>
      <point x="526" y="45"/>
      <point x="526" y="191" type="curve" smooth="yes"/>
      <point x="526" y="269"/>
      <point x="495" y="340"/>
      <point x="400" y="350" type="curve"/>
      <point x="400" y="333" type="line"/>
      <point x="498" y="349"/>
      <point x="526" y="400"/>
      <point x="526" y="465" type="curve" smooth="yes"/>
      <point x="526" y="539"/>
      <point x="491" y="560"/>
      <point x="448" y="586" type="curve"/>
      <point x="297" y="550" type="line"/>
      <point x="348" y="532"/>
      <point x="372" y="514"/>
      <point x="372" y="475" type="curve" smooth="yes"/>
      <point x="372" y="437"/>
      <point x="346" y="405"/>
      <point x="282" y="405" type="curve" smooth="yes"/>
      <point x="210" y="405" type="line"/>
      <point x="210" y="281" type="line"/>
      <point x="281" y="281" type="line" smooth="yes"/>
      <point x="346" y="281"/>
      <point x="372" y="254"/>
      <point x="372" y="201" type="curve" smooth="yes"/>
      <point x="372" y="145"/>
      <point x="326" y="124"/>
      <point x="272" y="124" type="curve" smooth="yes"/>
      <point x="218" y="124"/>
      <point x="172" y="145"/>
      <point x="172" y="201" type="curve"/>
      <point x="172" y="251" type="line"/>
      <point x="18" y="251" type="line"/>
      <point x="18" y="201" type="line" smooth="yes"/>
      <point x="18" y="48"/>
      <point x="128" y="0"/>
      <point x="272" y="0" type="curve" smooth="yes"/>
    </contour>
    <contour>
      <point x="611" y="550" type="line"/>
      <point x="611" y="674" type="line"/>
      <point x="-10" y="674" type="line"/>
      <point x="-10" y="550" type="line"/>
    </contour>
  </outline>
</glyph>
<glyph name="uu-deva" format="1">
  <advance width="841"/>
  <unicode hex="090A"/>
  <outline>
    <contour>
      <point x="416" y="0"/>
      <point x="526" y="45"/>
      <point x="526" y="191" type="curve" smooth="yes"/>
      <point x="526" y="269"/>
      <point x="495" y="340"/>
      <point x="400" y="350" type="curve"/>
      <point x="400" y="333" type="line"/>
      <point x="498" y="349"/>
      <point x="526" y="400"/>
      <point x="526" y="465" type="curve" smooth="yes"/>
      <point x="526" y="539"/>
      <point x="491" y="560"/>
      <point x="448" y="586" type="curve"/>
      <point x="297" y="550" type="line"/>
      <point x="348" y="532"/>
      <point x="372" y="514"/>
      <point x="372" y="475" type="curve" smooth="yes"/>
      <point x="372" y="437"/>
      <point x="346" y="405"/>
      <point x="282" y="405" type="curve" smooth="yes"/>
      <point x="210" y="405" type="line"/>
      <point x="210" y="281" type="line"/>
      <point x="281" y="281" type="line" smooth="yes"/>
      <point x="346" y="281"/>
      <point x="372" y="254"/>
      <point x="372" y="201" type="curve" smooth="yes"/>
      <point x="372" y="145"/>
      <point x="326" y="124"/>
      <point x="272" y="124" type="curve" smooth="yes"/>
      <point x="218" y="124"/>
      <point x="172" y="145"/>
      <point x="172" y="201" type="curve"/>
      <point x="172" y="251" type="line"/>
      <point x="18" y="251" type="line"/>
      <point x="18" y="201" type="line" smooth="yes"/>
      <point x="18" y="48"/>
      <point x="128" y="0"/>
      <point x="272" y="0" type="curve" smooth="yes"/>
    </contour>
    <contour>
      <point x="625" y="0" type="line" smooth="yes"/>
      <point x="753" y="0"/>
      <point x="819" y="44"/>
      <point x="819" y="177" type="curve" smooth="yes"/>
      <point x="819" y="314"/>
      <point x="754" y="354"/>
      <point x="629" y="354" type="curve" smooth="yes"/>
      <point x="567" y="354"/>
      <point x="522" y="337"/>
      <point x="468" y="301" type="curve"/>
      <point x="468" y="180" type="line"/>
      <point x="524" y="219"/>
      <point x="549" y="230"/>
      <point x="605" y="230" type="curve" smooth="yes"/>
      <point x="646" y="230"/>
      <point x="665" y="220"/>
      <point x="665" y="177" type="curve" smooth="yes"/>
      <point x="665" y="138"/>
      <point x="645" y="124"/>
      <point x="613" y="124" type="curve" smooth="yes"/>
      <point x="601" y="124" type="line" smooth="yes"/>
      <point x="590" y="124"/>
      <point x="575" y="126"/>
      <point x="563" y="127" type="curve"/>
      <point x="563" y="5" type="line"/>
      <point x="572" y="3"/>
      <point x="598" y="0"/>
      <point x="613" y="0" type="curve" smooth="yes"/>
    </contour>
    <contour>
      <point x="841" y="550" type="line"/>
      <point x="841" y="674" type="line"/>
      <point x="-10" y="674" type="line"/>
      <point x="-10" y="550" type="line"/>
    </contour>
  </outline>
</glyph>
<glyph name="lVocalic-deva" format="1">
  <advance width="749"/>
  <unicode hex="090C"/>
  <outline>
    <contour>
      <point x="690" y="-127"/>
      <point x="735" y="-118"/>
      <point x="767" y="-101" type="curve"/>
      <point x="767" y="29" type="line"/>
      <point x="739" y="10"/>
      <point x="683" y="-3"/>
      <point x="642" y="-3" type="curve" smooth="yes"/>
      <point x="608" y="-3"/>
      <point x="590" y="11"/>
      <point x="590" y="40" type="curve" smooth="yes"/>
      <point x="590" y="102"/>
      <point x="740" y="118"/>
      <point x="740" y="265" type="curve" smooth="yes"/>
      <point x="740" y="364"/>
      <point x="672" y="430"/>
      <point x="542" y="430" type="curve" smooth="yes"/>
      <point x="423" y="430"/>
      <point x="374" y="350"/>
      <point x="374" y="237" type="curve"/>
      <point x="374" y="198" type="line"/>
      <point x="478" y="198" type="line"/>
      <point x="478" y="217" type="line" smooth="yes"/>
      <point x="478" y="280"/>
      <point x="496" y="306"/>
      <point x="533" y="306" type="curve" smooth="yes"/>
      <point x="567" y="306"/>
      <point x="586" y="284"/>
      <point x="586" y="251" type="curve" smooth="yes"/>
      <point x="586" y="176"/>
      <point x="435" y="158"/>
      <point x="435" y="26" type="curve" smooth="yes"/>
      <point x="435" y="-69"/>
      <point x="500" y="-127"/>
      <point x="624" y="-127" type="curve" smooth="yes"/>
    </contour>
    <contour>
      <point x="342" y="0" type="line"/>
      <point x="342" y="124" type="line"/>
      <point x="290" y="124" type="line" smooth="yes"/>
      <point x="229" y="124"/>
      <point x="216" y="171"/>
      <point x="216" y="217" type="curve" smooth="yes"/>
      <point x="216" y="280"/>
      <point x="234" y="306"/>
      <point x="273" y="306" type="curve"/>
      <point x="306" y="306"/>
      <point x="324" y="280"/>
      <point x="324" y="217" type="curve" smooth="yes"/>
      <point x="324" y="198" type="line"/>
      <point x="428" y="198" type="line"/>
      <point x="428" y="237" type="line"/>
      <point x="428" y="350"/>
      <point x="380" y="430"/>
      <point x="253" y="430" type="curve"/>
      <point x="125" y="430"/>
      <point x="62" y="342"/>
      <point x="62" y="217" type="curve" smooth="yes"/>
      <point x="62" y="112"/>
      <point x="113" y="0"/>
      <point x="290" y="0" type="curve" smooth="yes"/>
    </contour>
    <contour>
      <point x="619" y="400" type="line"/>
      <point x="619" y="550" type="line"/>
      <point x="799" y="550" type="line"/>
      <point x="799" y="674" type="line"/>
      <point x="-10" y="674" type="line"/>
      <point x="-10" y="550" type="line"/>
      <point x="465" y="550" type="line"/>
      <point x="465" y="400" type="line"/>
    </contour>
  </outline>
</glyph>
<glyph name="e-deva" format="1">
  <advance width="619"/>
  <unicode hex="090F"/>
  <outline>
    <contour>
      <point x="517" y="0" type="line"/>
      <point x="517" y="124" type="line"/>
      <point x="409" y="124" type="line"/>
      <point x="323" y="124"/>
      <point x="244" y="127"/>
      <point x="244" y="275" type="curve"/>
      <point x="244" y="609" type="line"/>
      <point x="90" y="609" type="line"/>
      <point x="90" y="275" type="line" smooth="yes"/>
      <point x="90" y="33"/>
      <point x="228" y="0"/>
      <point x="409" y="0" type="curve"/>
    </contour>
    <contour>
      <point x="343" y="212" type="line" smooth="yes"/>
      <point x="478" y="212"/>
      <point x="547" y="255"/>
      <point x="547" y="399" type="curve"/>
      <point x="547" y="653" type="line"/>
      <point x="393" y="653" type="line"/>
      <point x="393" y="399" type="line"/>
      <point x="393" y="344"/>
      <point x="375" y="336"/>
      <point x="343" y="336" type="curve" smooth="yes"/>
      <point x="301" y="336" type="line"/>
      <point x="301" y="212" type="line"/>
    </contour>
    <contour>
      <point x="629" y="550" type="line"/>
      <point x="629" y="674" type="line"/>
      <point x="-10" y="674" type="line"/>
      <point x="-10" y="550" type="line"/>
    </contour>
    <contour>
      <point x="479" y="674" type="move" name="top"/>
    </contour>
  </outline>
</glyph>
<glyph name="ka-deva" format="1">
  <advance width="836"/>
  <unicode hex="0915"/>
  <outline>
    <contour>
      <point x="495" y="0" type="line"/>
      <point x="495" y="550" type="line"/>
      <point x="846" y="550" type="line"/>
      <point x="846" y="674" type="line"/>
      <point x="-10" y="674" type="line"/>
      <point x="-10" y="550" type="line"/>
      <point x="341" y="550" type="line"/>
      <point x="341" y="0" type="line"/>
    </contour>
    <contour>
      <point x="235" y="95" type="line" smooth="yes"/>
      <point x="290" y="95"/>
      <point x="336" y="113"/>
      <point x="389" y="148" type="curve"/>
      <point x="389" y="269" type="line"/>
      <point x="333" y="230"/>
      <point x="308" y="219"/>
      <point x="256" y="219" type="curve" smooth="yes"/>
      <point x="252" y="219" type="line" smooth="yes"/>
      <point x="198" y="219"/>
      <point x="172" y="231"/>
      <point x="172" y="282" type="curve" smooth="yes"/>
      <point x="172" y="328"/>
      <point x="196" y="345"/>
      <point x="234" y="345" type="curve" smooth="yes"/>
      <point x="246" y="345" type="line" smooth="yes"/>
      <point x="260" y="345"/>
      <point x="279" y="343"/>
      <point x="294" y="342" type="curve"/>
      <point x="294" y="464" type="line"/>
      <point x="283" y="466"/>
      <point x="252" y="469"/>
      <point x="234" y="469" type="curve" smooth="yes"/>
      <point x="222" y="469" type="line" smooth="yes"/>
      <point x="87" y="469"/>
      <point x="18" y="422"/>
      <point x="18" y="282" type="curve" smooth="yes"/>
      <point x="18" y="138"/>
      <point x="90" y="95"/>
      <point x="230" y="95" type="curve" smooth="yes"/>
    </contour>
    <contour>
      <point x="615" y="95" type="line" smooth="yes"/>
      <point x="750" y="95"/>
      <point x="819" y="142"/>
      <point x="819" y="282" type="curve" smooth="yes"/>
      <point x="819" y="426"/>
      <point x="747" y="469"/>
      <point x="607" y="469" type="curve" smooth="yes"/>
      <point x="602" y="469" type="line" smooth="yes"/>
      <point x="547" y="469"/>
      <point x="501" y="451"/>
      <point x="448" y="416" type="curve"/>
      <point x="448" y="295" type="line"/>
      <point x="504" y="334"/>
      <point x="529" y="345"/>
      <point x="581" y="345" type="curve" smooth="yes"/>
      <point x="585" y="345" type="line" smooth="yes"/>
      <point x="639" y="345"/>
      <point x="665" y="333"/>
      <point x="665" y="282" type="curve" smooth="yes"/>
      <point x="665" y="236"/>
      <point x="641" y="219"/>
      <point x="603" y="219" type="curve" smooth="yes"/>
      <point x="591" y="219" type="line" smooth="yes"/>
      <point x="577" y="219"/>
      <point x="558" y="221"/>
      <point x="543" y="222" type="curve"/>
      <point x="543" y="100" type="line"/>
      <point x="554" y="98"/>
      <point x="585" y="95"/>
      <point x="603" y="95" type="curve" smooth="yes"/>
    </contour>
    <contour>
      <point x="191" y="-20" type="move" name="nukta"/>
    </contour>
    <contour>
      <point x="417" y="0" type="move" name="bottom"/>
    </contour>
    <contour>
      <point x="417" y="674" type="move" name="top"/>
    </contour>
  </outline>
</glyph>
<glyph name="uni0915" format="1">
  <advance width="836"/>
  <unicode hex="0915"/>
  <outline>
    <contour>
      <point x="495" y="0" type="line"/>
      <point x="495" y="550" type="line"/>
      <point x="846" y="550" type="line"/>
      <point x="846" y="674" type="line"/>
      <point x="-10" y="674" type="line"/>
      <point x="-10" y="550" type="line"/>
      <point x="341" y="550" type="line"/>
      <point x="341" y="0" type="line"/>
    </contour>
    <contour>
      <point x="235" y="95" type="line" smooth="yes"/>
      <point x="290" y="95"/>
      <point x="336" y="113"/>
      <point x="389" y="148" type="curve"/>
      <point x="389" y="269" type="line"/>
      <point x="333" y="230"/>
      <point x="308" y="219"/>
      <point x="256" y="219" type="curve" smooth="yes"/>
      <point x="252" y="219" type="line" smooth="yes"/>
      <point x="198" y="219"/>
      <point x="172" y="231"/>
      <point x="172" y="282" type="curve" smooth="yes"/>
      <point x="172" y="328"/>
      <point x="196" y="345"/>
      <point x="234" y="345" type="curve" smooth="yes"/>
      <point x="246" y="345" type="line" smooth="yes"/>
      <point x="260" y="345"/>
      <point x="279" y="343"/>
      <point x="294" y="342" type="curve"/>
      <point x="294" y="464" type="line"/>
      <point x="283" y="466"/>
      <point x="252" y="469"/>
      <point x="234" y="469" type="curve" smooth="yes"/>
      <point x="222" y="469" type="line" smooth="yes"/>
      <point x="87" y="469"/>
      <point x="18" y="422"/>
      <point x="18" y="282" type="curve" smooth="yes"/>
      <point x="18" y="138"/>
      <point x="90" y="95"/>
      <point x="230" y="95" type="curve" smooth="yes"/>
    </contour>
    <contour>
      <point x="615" y="95" type="line" smooth="yes"/>
      <point x="750" y="95"/>
      <point x="819" y="142"/>
      <point x="819" y="282" type="curve" smooth="yes"/>
      <point x="819" y="426"/>
      <point x="747" y="469"/>
      <point x="607" y="469" type="curve" smooth="yes"/>
      <point x="602" y="469" type="line" smooth="yes"/>
      <point x="547" y="469"/>
      <point x="501" y="451"/>
      <point x="448" y="416" type="curve"/>
      <point x="448" y="295" type="line"/>
      <point x="504" y="334"/>
      <point x="529" y="345"/>
      <point x="581" y="345" type="curve" smooth="yes"/>
      <point x="585" y="345" type="line" smooth="yes"/>
      <point x="639" y="345"/>
      <point x="665" y="333"/>
      <point x="665" y="282" type="curve" smooth="yes"/>
      <point x="665" y="236"/>
      <point x="641" y="219"/>
      <point x="603" y="219" type="curve" smooth="yes"/>
      <point x="591" y="219" type="line" smooth="yes"/>
      <point x="577" y="219"/>
      <point x="558" y="221"/>
      <point x="543" y="222" type="curve"/>
      <point x="543" y="100" type="line"/>
      <point x="554" y="98"/>
      <point x="585" y="95"/>
      <point x="603" y="95" type="curve" smooth="yes"/>
    </contour>
    <contour>
      <point x="251" y="0" type="move" name="nukta"/>
    </contour>
    <contour>
      <point x="417" y="0" type="move" name="bottom"/>
    </contour>
    <contour>
      <point x="417" y="674" type="move" name="top"/>
    </contour>
  </outline>
</glyph>
<glyph name="kha-deva" format="1">
  <advance width="992"/>
  <unicode hex="0916"/>
  <outline>
    <contour>
      <point x="516" y="0" type="line"/>
      <point x="516" y="124" type="line"/>
      <point x="351" y="124" type="line"/>
      <point x="274" y="124"/>
      <point x="244" y="141"/>
      <point x="244" y="195" type="curve"/>
      <point x="244" y="429" type="line"/>
      <point x="90" y="429" type="line"/>
      <point x="90" y="195" type="line" smooth="yes"/>
      <point x="90" y="34"/>
      <point x="201" y="0"/>
      <point x="351" y="0" type="curve"/>
    </contour>
    <contour>
      <point x="250" y="218" type="line" smooth="yes"/>
      <point x="378" y="218"/>
      <point x="444" y="258"/>
      <point x="444" y="395" type="curve"/>
      <point x="444" y="613" type="line"/>
      <point x="290" y="613" type="line"/>
      <point x="290" y="395" type="line"/>
      <point x="290" y="348"/>
      <point x="275" y="342"/>
      <point x="250" y="342" type="curve" smooth="yes"/>
      <point x="228" y="342" type="line"/>
      <point x="228" y="218" type="line"/>
    </contour>
    <contour>
      <point x="663" y="135" type="line" smooth="yes"/>
      <point x="708" y="135"/>
      <point x="746" y="145"/>
      <point x="782" y="170" type="curve"/>
      <point x="782" y="288" type="line"/>
      <point x="752" y="270"/>
      <point x="724" y="259"/>
      <point x="693" y="259" type="curve" smooth="yes"/>
      <point x="681" y="259" type="line" smooth="yes"/>
      <point x="645" y="259"/>
      <point x="625" y="265"/>
      <point x="625" y="302" type="curve"/>
      <point x="625" y="337"/>
      <point x="645" y="345"/>
      <point x="665" y="345" type="curve" smooth="yes"/>
      <point x="677" y="345" type="line" smooth="yes"/>
      <point x="687" y="345"/>
      <point x="699" y="343"/>
      <point x="712" y="341" type="curve"/>
      <point x="712" y="463" type="line"/>
      <point x="698" y="465"/>
      <point x="665" y="469"/>
      <point x="647" y="469" type="curve" smooth="yes"/>
      <point x="635" y="469" type="line" smooth="yes"/>
      <point x="540" y="469"/>
      <point x="471" y="416"/>
      <point x="471" y="302" type="curve" smooth="yes"/>
      <point x="471" y="182"/>
      <point x="542" y="135"/>
      <point x="645" y="135" type="curve" smooth="yes"/>
    </contour>
    <contour>
      <point x="912" y="0" type="line"/>
      <point x="912" y="610" type="line"/>
      <point x="758" y="610" type="line"/>
      <point x="758" y="0" type="line"/>
    </contour>
    <contour>
      <point x="1002" y="550" type="line"/>
      <point x="1002" y="674" type="line"/>
      <point x="-10" y="674" type="line"/>
      <point x="-10" y="550" type="line"/>
    </contour>
    <contour>
      <point x="168" y="-101" type="move" name="nukta"/>
    </contour>
    <contour>
      <point x="835" y="0" type="move" name="bottom"/>
    </contour>
    <contour>
      <point x="835" y="674" type="move" name="top"/>
    </contour>
  </outline>
</glyph>
<glyph name="ga-deva" format="1">
  <advance width="700"/>
  <unicode hex="0917"/>
  <outline>
    <contour>
      <point x="310" y="150"/>
      <point x="361" y="205"/>
      <point x="361" y="319" type="curve" smooth="yes"/>
      <point x="361" y="613" type="line"/>
      <point x="207" y="613" type="line"/>
      <point x="207" y="320" type="line" smooth="yes"/>
      <point x="207" y="288"/>
      <point x="203" y="274"/>
      <point x="187" y="274" type="curve" smooth="yes"/>
      <point x="170" y="274"/>
      <point x="158" y="296"/>
      <point x="143" y="337" type="curve"/>
      <point x="29" y="274" type="line"/>
      <point x="64" y="180"/>
      <point x="119" y="150"/>
      <point x="208" y="150" type="curve" smooth="yes"/>
    </contour>
    <contour>
      <point x="620" y="0" type="line"/>
      <point x="620" y="610" type="line"/>
      <point x="466" y="610" type="line"/>
      <point x="466" y="0" type="line"/>
    </contour>
    <contour>
      <point x="710" y="550" type="line"/>
      <point x="710" y="674" type="line"/>
      <point x="-10" y="674" type="line"/>
      <point x="-10" y="550" type="line"/>
    </contour>
    <contour>
      <point x="283" y="0" type="move" name="nukta"/>
    </contour>
    <contour>
      <point x="542" y="0" type="move" name="bottom"/>
    </contour>
    <contour>
      <point x="542" y="674" type="move" name="top"/>
    </contour>
  </outline>
</glyph>
<glyph name="uni0918" format="1">
  <advance width="631"/>
  <unicode hex="0918"/>
  <outline>
    <contour>
      <point x="551" y="0" type="line"/>
      <point x="551" y="550" type="line"/>
      <point x="641" y="550" type="line"/>
      <point x="641" y="674" type="line"/>
      <point x="-10" y="674" type="line"/>
      <point x="-10" y="550" type="line"/>
      <point x="397" y="550" type="line"/>
      <point x="397" y="0" type="line"/>
    </contour>
    <contour>
      <point x="285" y="92" type="line" smooth="yes"/>
      <point x="335" y="92"/>
      <point x="387" y="107"/>
      <point x="434" y="139" type="curve"/>
      <point x="434" y="268" type="line"/>
      <point x="392" y="228"/>
      <point x="344" y="216"/>
      <point x="305" y="216" type="curve" smooth="yes"/>
      <point x="287" y="216" type="line" smooth="yes"/>
      <point x="251" y="216"/>
      <point x="227" y="223"/>
      <point x="227" y="269" type="curve"/>
      <point x="227" y="313"/>
      <point x="252" y="322"/>
      <point x="287" y="322" type="curve" smooth="yes"/>
      <point x="336" y="322" type="line"/>
      <point x="336" y="406" type="line"/>
      <point x="277" y="406" type="line" smooth="yes"/>
      <point x="142" y="406"/>
      <point x="73" y="368"/>
      <point x="73" y="256" type="curve" smooth="yes"/>
      <point x="73" y="139"/>
      <point x="138" y="92"/>
      <point x="267" y="92" type="curve" smooth="yes"/>
    </contour>
    <contour>
      <point x="336" y="362" type="line"/>
      <point x="336" y="446" type="line"/>
      <point x="287" y="446" type="line" smooth="yes"/>
      <point x="226" y="446"/>
      <point x="192" y="454"/>
      <point x="191" y="505" type="curve"/>
      <point x="191" y="541"/>
      <point x="207" y="553"/>
      <point x="219" y="562" type="curve"/>
      <point x="94" y="590" type="line"/>
      <point x="53" y="558"/>
      <point x="37" y="534"/>
      <point x="37" y="487" type="curve" smooth="yes"/>
      <point x="37" y="390"/>
      <point x="118" y="362"/>
      <point x="277" y="362" type="curve" smooth="yes"/>
    </contour>
    <contour>
      <point x="163" y="0" type="move" name="nukta"/>
    </contour>
    <contour>
      <point x="473" y="0" type="move" name="bottom"/>
    </contour>
    <contour>
      <point x="473" y="674" type="move" name="top"/>
    </contour>
  </outline>
</glyph>
<glyph name="nga-deva" format="1">
  <advance width="621"/>
  <unicode hex="0919"/>
  <outline>
    <contour>
      <point x="312" y="-27" type="line" smooth="yes"/>
      <point x="446" y="-27"/>
      <point x="521" y="30"/>
      <point x="521" y="157" type="curve" smooth="yes"/>
      <point x="521" y="272"/>
      <point x="446" y="320"/>
      <point x="307" y="320" type="curve" smooth="yes"/>
      <point x="212" y="320" type="line"/>
      <point x="203" y="328"/>
      <point x="197" y="343"/>
      <point x="197" y="353" type="curve"/>
      <point x="197" y="375"/>
      <point x="211" y="381"/>
      <point x="237" y="381" type="curve" smooth="yes"/>
      <point x="451" y="381" type="line"/>
      <point x="451" y="505" type="line"/>
      <point x="237" y="505" type="line" smooth="yes"/>
      <point x="108" y="505"/>
      <point x="43" y="472"/>
      <point x="43" y="368" type="curve" smooth="yes"/>
      <point x="43" y="292"/>
      <point x="94" y="222"/>
      <point x="129" y="196" type="curve"/>
      <point x="307" y="196" type="line" smooth="yes"/>
      <point x="347" y="196"/>
      <point x="367" y="179"/>
      <point x="367" y="147" type="curve" smooth="yes"/>
      <point x="367" y="113"/>
      <point x="344" y="97"/>
      <point x="303" y="97" type="curve" smooth="yes"/>
      <point x="292" y="97" type="line" smooth="yes"/>
      <point x="220" y="97"/>
      <point x="158" y="121"/>
      <point x="70" y="179" type="curve"/>
      <point x="14" y="58" type="line"/>
      <point x="93" y="9"/>
      <point x="172" y="-27"/>
      <point x="305" y="-27" type="curve" smooth="yes"/>
    </contour>
    <contour>
      <point x="451" y="485" type="line"/>
      <point x="451" y="550" type="line"/>
      <point x="631" y="550" type="line"/>
      <point x="631" y="674" type="line"/>
      <point x="-10" y="674" type="line"/>
      <point x="-10" y="550" type="line"/>
      <point x="297" y="550" type="line"/>
      <point x="297" y="485" type="line"/>
    </contour>
    <contour>
      <point x="631" y="345" type="line"/>
      <point x="540" y="436" type="line"/>
      <point x="449" y="345" type="line"/>
      <point x="540" y="255" type="line"/>
    </contour>
    <contour>
      <point x="123" y="-90" type="move" name="nukta"/>
    </contour>
    <contour>
      <point x="292" y="0" type="move" name="bottom"/>
    </contour>
    <contour>
      <point x="376" y="674" type="move" name="top"/>
    </contour>
  </outline>
</glyph>
<glyph name="ca-deva" format="1">
  <advance width="646"/>
  <unicode hex="091A"/>
  <outline>
    <contour>
      <point x="566" y="0" type="line"/>
      <point x="566" y="550" type="line"/>
      <point x="656" y="550" type="line"/>
      <point x="656" y="674" type="line"/>
      <point x="-10" y="674" type="line"/>
      <point x="-10" y="550" type="line"/>
      <point x="412" y="550" type="line"/>
      <point x="412" y="0" type="line"/>
    </contour>
    <contour>
      <point x="327" y="97" type="line" smooth="yes"/>
      <point x="371" y="97"/>
      <point x="424" y="111"/>
      <point x="459" y="128" type="curve"/>
      <point x="459" y="257" type="line"/>
      <point x="423" y="237"/>
      <point x="391" y="221"/>
      <point x="346" y="221" type="curve" smooth="yes"/>
      <point x="329" y="221" type="line" smooth="yes"/>
      <point x="278" y="221"/>
      <point x="246" y="237"/>
      <point x="246" y="281" type="curve" smooth="yes"/>
      <point x="246" y="357"/>
      <point x="286" y="373"/>
      <point x="340" y="391" type="curve"/>
      <point x="197" y="409" type="line"/>
      <point x="145" y="389"/>
      <point x="92" y="339"/>
      <point x="92" y="263" type="curve" smooth="yes"/>
      <point x="92" y="148"/>
      <point x="178" y="97"/>
      <point x="297" y="97" type="curve" smooth="yes"/>
    </contour>
    <contour>
      <point x="365" y="356" type="line"/>
      <point x="365" y="480" type="line"/>
      <point x="44" y="480" type="line"/>
      <point x="44" y="356" type="line"/>
    </contour>
    <contour>
      <point x="130" y="0" type="move" name="nukta"/>
    </contour>
    <contour>
      <point x="488" y="0" type="move" name="bottom"/>
    </contour>
    <contour>
      <point x="488" y="674" type="move" name="top"/>
    </contour>
  </outline>
</glyph>
<glyph name="cha-deva" format="1">
  <advance width="780"/>
  <unicode hex="091B"/>
  <outline>
    <contour>
      <point x="578" y="1"/>
      <point x="720" y="46"/>
      <point x="720" y="242" type="curve" smooth="yes"/>
      <point x="720" y="384" type="line" smooth="yes"/>
      <point x="720" y="481"/>
      <point x="681" y="519"/>
      <point x="570" y="519" type="curve" smooth="yes"/>
      <point x="438" y="519"/>
      <point x="390" y="481"/>
      <point x="390" y="385" type="curve" smooth="yes"/>
      <point x="390" y="280" type="line"/>
      <point x="524" y="280" type="line"/>
      <point x="524" y="376" type="line" smooth="yes"/>
      <point x="524" y="390"/>
      <point x="530" y="396"/>
      <point x="545" y="396" type="curve" smooth="yes"/>
      <point x="562" y="396"/>
      <point x="566" y="390"/>
      <point x="566" y="376" type="curve" smooth="yes"/>
      <point x="566" y="242" type="line"/>
      <point x="566" y="144"/>
      <point x="485" y="125"/>
      <point x="389" y="124" type="curve"/>
      <point x="383" y="124" type="line"/>
      <point x="297" y="124"/>
      <point x="223" y="145"/>
      <point x="223" y="201" type="curve" smooth="yes"/>
      <point x="223" y="254"/>
      <point x="249" y="281"/>
      <point x="314" y="281" type="curve" smooth="yes"/>
      <point x="355" y="281" type="line"/>
      <point x="355" y="405" type="line"/>
      <point x="313" y="405" type="line" smooth="yes"/>
      <point x="249" y="405"/>
      <point x="223" y="437"/>
      <point x="223" y="475" type="curve" smooth="yes"/>
      <point x="223" y="514"/>
      <point x="247" y="532"/>
      <point x="298" y="550" type="curve"/>
      <point x="147" y="586" type="line"/>
      <point x="104" y="560"/>
      <point x="69" y="539"/>
      <point x="69" y="465" type="curve" smooth="yes"/>
      <point x="69" y="400"/>
      <point x="97" y="349"/>
      <point x="195" y="333" type="curve"/>
      <point x="195" y="350" type="line"/>
      <point x="100" y="340"/>
      <point x="69" y="269"/>
      <point x="69" y="191" type="curve" smooth="yes"/>
      <point x="69" y="45"/>
      <point x="205" y="0"/>
      <point x="380" y="0" type="curve"/>
      <point x="388" y="0" type="line"/>
    </contour>
    <contour>
      <point x="790" y="550" type="line"/>
      <point x="790" y="674" type="line"/>
      <point x="-10" y="674" type="line"/>
      <point x="-10" y="550" type="line"/>
    </contour>
    <contour>
      <point x="660" y="489" type="line"/>
      <point x="660" y="612" type="line"/>
      <point x="506" y="612" type="line"/>
      <point x="506" y="489" type="line"/>
    </contour>
    <contour>
      <point x="242" y="-70" type="move" name="nukta"/>
    </contour>
    <contour>
      <point x="373" y="0" type="move" name="bottom"/>
    </contour>
    <contour>
      <point x="583" y="674" type="move" name="top"/>
    </contour>
  </outline>
</glyph>
<glyph name="uni091C" format="1">
  <advance width="729"/>
  <unicode hex="091C"/>
  <outline>
    <contour>
      <point x="649" y="0" type="line"/>
      <point x="649" y="550" type="line"/>
      <point x="739" y="550" type="line"/>
      <point x="739" y="674" type="line"/>
      <point x="-10" y="674" type="line"/>
      <point x="-10" y="550" type="line"/>
      <point x="495" y="550" type="line"/>
      <point x="495" y="0" type="line"/>
    </contour>
    <contour>
      <point x="392" y="93"/>
      <point x="436" y="159"/>
      <point x="436" y="292" type="curve" smooth="yes"/>
      <point x="436" y="459" type="line"/>
      <point x="282" y="459" type="line"/>
      <point x="282" y="277" type="line" smooth="yes"/>
      <point x="282" y="239"/>
      <point x="276" y="217"/>
      <point x="243" y="217" type="curve"/>
      <point x="213" y="217"/>
      <point x="204" y="239"/>
      <point x="204" y="277" type="curve" smooth="yes"/>
      <point x="204" y="459" type="line"/>
      <point x="60" y="459" type="line"/>
      <point x="60" y="292" type="line" smooth="yes"/>
      <point x="60" y="159"/>
      <point x="109" y="93"/>
      <point x="243" y="93" type="curve" smooth="yes"/>
    </contour>
    <contour>
      <point x="571" y="335" type="line"/>
      <point x="571" y="459" type="line"/>
      <point x="357" y="459" type="line"/>
      <point x="357" y="335" type="line"/>
    </contour>
    <contour>
      <point x="245" y="0" type="move" name="nukta"/>
    </contour>
    <contour>
      <point x="571" y="0" type="move" name="bottom"/>
    </contour>
    <contour>
      <point x="571" y="674" type="move" name="top"/>
    </contour>
  </outline>
</glyph>
<glyph name="uni091D" format="1">
  <advance width="866"/>
  <unicode hex="091D"/>
  <outline>
    <contour>
      <point x="312" y="-27" type="line" smooth="yes"/>
      <point x="446" y="-27"/>
      <point x="521" y="30"/>
      <point x="521" y="157" type="curve" smooth="yes"/>
      <point x="521" y="272"/>
      <point x="446" y="320"/>
      <point x="307" y="320" type="curve" smooth="yes"/>
      <point x="212" y="320" type="line"/>
      <point x="203" y="328"/>
      <point x="197" y="343"/>
      <point x="197" y="353" type="curve"/>
      <point x="197" y="375"/>
      <point x="211" y="381"/>
      <point x="237" y="381" type="curve" smooth="yes"/>
      <point x="451" y="381" type="line"/>
      <point x="451" y="505" type="line"/>
      <point x="237" y="505" type="line" smooth="yes"/>
      <point x="108" y="505"/>
      <point x="43" y="472"/>
      <point x="43" y="368" type="curve" smooth="yes"/>
      <point x="43" y="292"/>
      <point x="94" y="222"/>
      <point x="129" y="196" type="curve"/>
      <point x="307" y="196" type="line" smooth="yes"/>
      <point x="347" y="196"/>
      <point x="367" y="179"/>
      <point x="367" y="147" type="curve" smooth="yes"/>
      <point x="367" y="113"/>
      <point x="344" y="97"/>
      <point x="303" y="97" type="curve" smooth="yes"/>
      <point x="292" y="97" type="line" smooth="yes"/>
      <point x="224" y="97"/>
      <point x="175" y="115"/>
      <point x="128" y="145" type="curve"/>
      <point x="110" y="33" type="line"/>
      <point x="163" y="0"/>
      <point x="216" y="-27"/>
      <point x="305" y="-27" type="curve" smooth="yes"/>
    </contour>
    <contour>
      <point x="187" y="-75" type="line"/>
      <point x="187" y="174" type="line"/>
      <point x="53" y="174" type="line"/>
      <point x="53" y="-75" type="line"/>
    </contour>
    <contour>
      <point x="671" y="135" type="line"/>
      <point x="671" y="259" type="line"/>
      <point x="457" y="259" type="line"/>
      <point x="457" y="135" type="line"/>
    </contour>
    <contour>
      <point x="786" y="0" type="line"/>
      <point x="786" y="570" type="line"/>
      <point x="632" y="570" type="line"/>
      <point x="632" y="0" type="line"/>
    </contour>
    <contour>
      <point x="451" y="485" type="line"/>
      <point x="451" y="550" type="line"/>
      <point x="876" y="550" type="line"/>
      <point x="876" y="674" type="line"/>
      <point x="-10" y="674" type="line"/>
      <point x="-10" y="550" type="line"/>
      <point x="297" y="550" type="line"/>
      <point x="297" y="485" type="line"/>
    </contour>
    <contour>
      <point x="306" y="-173" type="move" name="nukta"/>
    </contour>
    <contour>
      <point x="712" y="0" type="move" name="bottom"/>
    </contour>
    <contour>
      <point x="712" y="674" type="move" name="top"/>
    </contour>
  </outline>
</glyph>
<glyph name="uni091E" format="1">
  <advance width="634"/>
  <unicode hex="091E"/>
  <outline>
    <contour>
      <point x="554" y="0" type="line"/>
      <point x="554" y="550" type="line"/>
      <point x="644" y="550" type="line"/>
      <point x="644" y="674" type="line"/>
      <point x="-10" y="674" type="line"/>
      <point x="-10" y="550" type="line"/>
      <point x="400" y="550" type="line"/>
      <point x="400" y="0" type="line"/>
    </contour>
    <contour>
      <point x="81" y="73" type="line" smooth="yes"/>
      <point x="249" y="73"/>
      <point x="335" y="132"/>
      <point x="335" y="286" type="curve" smooth="yes"/>
      <point x="335" y="447"/>
      <point x="249" y="499"/>
      <point x="81" y="499" type="curve" smooth="yes"/>
      <point x="38" y="499" type="line"/>
      <point x="38" y="375" type="line"/>
      <point x="81" y="375" type="line" smooth="yes"/>
      <point x="146" y="375"/>
      <point x="181" y="360"/>
      <point x="181" y="286" type="curve"/>
      <point x="181" y="217"/>
      <point x="145" y="197"/>
      <point x="81" y="197" type="curve" smooth="yes"/>
      <point x="38" y="197" type="line"/>
      <point x="38" y="73" type="line"/>
    </contour>
    <contour>
      <point x="476" y="226" type="line"/>
      <point x="476" y="350" type="line"/>
      <point x="258" y="350" type="line"/>
      <point x="258" y="226" type="line"/>
    </contour>
    <contour>
      <point x="293" y="0" type="move" name="nukta"/>
    </contour>
    <contour>
      <point x="476" y="0" type="move" name="bottom"/>
    </contour>
    <contour>
      <point x="476" y="674" type="move" name="top"/>
    </contour>
  </outline>
</glyph>
<glyph name="tta-deva" format="1">
  <advance width="529"/>
  <unicode hex="091F"/>
  <outline>
    <contour>
      <point x="276" y="-6" type="line"/>
      <point x="441" y="-6"/>
      <point x="517" y="59"/>
      <point x="517" y="217" type="curve"/>
      <point x="517" y="247" type="line"/>
      <point x="363" y="247" type="line"/>
      <point x="363" y="217" type="line"/>
      <point x="363" y="138"/>
      <point x="334" y="118"/>
      <point x="276" y="118" type="curve"/>
      <point x="257" y="118" type="line"/>
      <point x="198" y="118"/>
      <point x="166" y="138"/>
      <point x="166" y="241" type="curve"/>
      <point x="166" y="344"/>
      <point x="204" y="364"/>
      <point x="267" y="364" type="curve" smooth="yes"/>
      <point x="449" y="364" type="line"/>
      <point x="449" y="488" type="line" smooth="yes"/>
      <point x="267" y="488" type="line" smooth="yes"/>
      <point x="99" y="488"/>
      <point x="12" y="427"/>
      <point x="12" y="241" type="curve" smooth="yes"/>
      <point x="12" y="56"/>
      <point x="94" y="-6"/>
      <point x="257" y="-6" type="curve"/>
    </contour>
    <contour>
      <point x="449" y="379" type="line"/>
      <point x="449" y="550" type="line"/>
      <point x="539" y="550" type="line"/>
      <point x="539" y="674" type="line"/>
      <point x="-10" y="674" type="line"/>
      <point x="-10" y="550" type="line"/>
      <point x="295" y="550" type="line"/>
      <point x="295" y="379" type="line"/>
    </contour>
    <contour>
      <point x="268" y="-80" type="move" name="nukta"/>
    </contour>
    <contour>
      <point x="266" y="-53" type="move" name="bottom"/>
    </contour>
    <contour>
      <point x="372" y="674" type="move" name="top"/>
    </contour>
  </outline>
</glyph>
<glyph name="uni0920" format="1">
  <advance width="575"/>
  <unicode hex="0920"/>
  <outline>
    <contour>
      <point x="292" y="-6" type="line"/>
      <point x="457" y="-6"/>
      <point x="537" y="56"/>
      <point x="537" y="242" type="curve" smooth="yes"/>
      <point x="537" y="418"/>
      <point x="460" y="490"/>
      <point x="287" y="490" type="curve"/>
      <point x="119" y="490"/>
      <point x="32" y="429"/>
      <point x="32" y="242" type="curve" smooth="yes"/>
      <point x="32" y="56"/>
      <point x="114" y="-6"/>
      <point x="277" y="-6" type="curve"/>
    </contour>
    <contour>
      <point x="219" y="118"/>
      <point x="186" y="138"/>
      <point x="186" y="242" type="curve"/>
      <point x="186" y="345"/>
      <point x="224" y="366"/>
      <point x="287" y="366" type="curve"/>
      <point x="346" y="366"/>
      <point x="383" y="344"/>
      <point x="383" y="242" type="curve"/>
      <point x="383" y="138"/>
      <point x="351" y="118"/>
      <point x="292" y="118" type="curve"/>
      <point x="283" y="118" type="line"/>
    </contour>
    <contour>
      <point x="404" y="390"/>
      <point x="495" y="426"/>
      <point x="495" y="541" type="curve"/>
      <point x="495" y="550" type="line"/>
      <point x="585" y="550" type="line"/>
      <point x="585" y="674" type="line"/>
      <point x="-10" y="674" type="line"/>
      <point x="-10" y="550" type="line"/>
      <point x="341" y="550" type="line"/>
      <point x="341" y="541" type="line"/>
      <point x="341" y="502"/>
      <point x="325" y="490"/>
      <point x="287" y="490" type="curve"/>
      <point x="287" y="390" type="line"/>
    </contour>
    <contour>
      <point x="288" y="-80" type="move" name="nukta"/>
    </contour>
    <contour>
      <point x="288" y="-34" type="move" name="bottom"/>
    </contour>
    <contour>
      <point x="418" y="674" type="move" name="top"/>
    </contour>
  </outline>
</glyph>
<glyph name="uni0921" format="1">
  <advance width="552"/>
  <unicode hex="0921"/>
  <outline>
    <contour>
      <point x="312" y="-27" type="line" smooth="yes"/>
      <point x="446" y="-27"/>
      <point x="521" y="30"/>
      <point x="521" y="157" type="curve" smooth="yes"/>
      <point x="521" y="272"/>
      <point x="446" y="320"/>
      <point x="307" y="320" type="curve" smooth="yes"/>
      <point x="212" y="320" type="line"/>
      <point x="203" y="328"/>
      <point x="197" y="343"/>
      <point x="197" y="353" type="curve"/>
      <point x="197" y="375"/>
      <point x="211" y="381"/>
      <point x="237" y="381" type="curve" smooth="yes"/>
      <point x="451" y="381" type="line"/>
      <point x="451" y="505" type="line"/>
      <point x="237" y="505" type="line" smooth="yes"/>
      <point x="108" y="505"/>
      <point x="43" y="472"/>
      <point x="43" y="368" type="curve" smooth="yes"/>
      <point x="43" y="292"/>
      <point x="94" y="222"/>
      <point x="129" y="196" type="curve"/>
      <point x="307" y="196" type="line" smooth="yes"/>
      <point x="347" y="196"/>
      <point x="367" y="179"/>
      <point x="367" y="147" type="curve" smooth="yes"/>
      <point x="367" y="113"/>
      <point x="344" y="97"/>
      <point x="303" y="97" type="curve" smooth="yes"/>
      <point x="292" y="97" type="line" smooth="yes"/>
      <point x="220" y="97"/>
      <point x="158" y="121"/>
      <point x="70" y="179" type="curve"/>
      <point x="14" y="58" type="line"/>
      <point x="93" y="9"/>
      <point x="172" y="-27"/>
      <point x="305" y="-27" type="curve" smooth="yes"/>
    </contour>
    <contour>
      <point x="451" y="485" type="line"/>
      <point x="451" y="550" type="line"/>
      <point x="562" y="550" type="line"/>
      <point x="562" y="674" type="line"/>
      <point x="-10" y="674" type="line"/>
      <point x="-10" y="550" type="line"/>
      <point x="297" y="550" type="line"/>
      <point x="297" y="485" type="line"/>
    </contour>
    <contour>
      <point x="278" y="-100" type="move" name="nukta"/>
    </contour>
    <contour>
      <point x="292" y="-74" type="move" name="bottom"/>
    </contour>
    <contour>
      <point x="383" y="674" type="move" name="top"/>
    </contour>
  </outline>
</glyph>
<glyph name="ddha-deva" format="1">
  <advance width="529"/>
  <unicode hex="0922"/>
  <outline>
    <contour>
      <point x="276" y="-6" type="line"/>
      <point x="441" y="-6"/>
      <point x="517" y="51"/>
      <point x="517" y="171" type="curve" smooth="yes"/>
      <point x="517" y="197" type="line" smooth="yes"/>
      <point x="517" y="281"/>
      <point x="474" y="331"/>
      <point x="361" y="331" type="curve" smooth="yes"/>
      <point x="243" y="331"/>
      <point x="197" y="299"/>
      <point x="197" y="217" type="curve"/>
      <point x="197" y="160" type="line"/>
      <point x="331" y="160" type="line"/>
      <point x="331" y="198" type="line" smooth="yes"/>
      <point x="331" y="211"/>
      <point x="336" y="217"/>
      <point x="348" y="217" type="curve" smooth="yes"/>
      <point x="359" y="217"/>
      <point x="363" y="211"/>
      <point x="363" y="199" type="curve"/>
      <point x="363" y="169" type="line" smooth="yes"/>
      <point x="363" y="130"/>
      <point x="334" y="118"/>
      <point x="276" y="118" type="curve"/>
      <point x="257" y="118" type="line"/>
      <point x="198" y="118"/>
      <point x="166" y="138"/>
      <point x="166" y="241" type="curve"/>
      <point x="166" y="344"/>
      <point x="204" y="364"/>
      <point x="267" y="364" type="curve" smooth="yes"/>
      <point x="449" y="364" type="line"/>
      <point x="449" y="488" type="line" smooth="yes"/>
      <point x="267" y="488" type="line" smooth="yes"/>
      <point x="99" y="488"/>
      <point x="12" y="427"/>
      <point x="12" y="241" type="curve" smooth="yes"/>
      <point x="12" y="56"/>
      <point x="94" y="-6"/>
      <point x="257" y="-6" type="curve"/>
    </contour>
    <contour>
      <point x="449" y="379" type="line"/>
      <point x="449" y="550" type="line"/>
      <point x="539" y="550" type="line"/>
      <point x="539" y="674" type="line"/>
      <point x="-10" y="674" type="line"/>
      <point x="-10" y="550" type="line"/>
      <point x="295" y="550" type="line"/>
      <point x="295" y="379" type="line"/>
    </contour>
    <contour>
      <point x="268" y="-80" type="move" name="nukta"/>
    </contour>
    <contour>
      <point x="353" y="0" type="move" name="bottom"/>
    </contour>
    <contour>
      <point x="372" y="674" type="move" name="top"/>
    </contour>
  </outline>
</glyph>
<glyph name="nna-deva" format="1">
  <advance width="752"/>
  <unicode hex="0923"/>
  <outline>
    <contour>
      <point x="672" y="0" type="line"/>
      <point x="672" y="550" type="line"/>
      <point x="762" y="550" type="line"/>
      <point x="762" y="674" type="line"/>
      <point x="-10" y="674" type="line"/>
      <point x="-10" y="550" type="line"/>
      <point x="518" y="550" type="line"/>
      <point x="518" y="0" type="line"/>
    </contour>
    <contour>
      <point x="388" y="183"/>
      <point x="456" y="228"/>
      <point x="456" y="378" type="curve" smooth="yes"/>
      <point x="456" y="610" type="line"/>
      <point x="302" y="610" type="line"/>
      <point x="302" y="368" type="line" smooth="yes"/>
      <point x="302" y="320"/>
      <point x="286" y="307"/>
      <point x="258" y="307" type="curve"/>
      <point x="230" y="307"/>
      <point x="214" y="320"/>
      <point x="214" y="368" type="curve" smooth="yes"/>
      <point x="214" y="610" type="line"/>
      <point x="60" y="610" type="line"/>
      <point x="60" y="378" type="line" smooth="yes"/>
      <point x="60" y="228"/>
      <point x="128" y="183"/>
      <point x="258" y="183" type="curve" smooth="yes"/>
    </contour>
    <contour>
      <point x="278" y="20" type="move" name="nukta"/>
    </contour>
    <contour>
      <point x="594" y="0" type="move" name="bottom"/>
    </contour>
    <contour>
      <point x="594" y="674" type="move" name="top"/>
    </contour>
  </outline>
</glyph>
